<svg width="32" height="32" viewBox="0 0 32 32" fill="none" xmlns="http://www.w3.org/2000/svg">
<path d="M18.6628 2.87814L18.663 2.87802C22.1314 1.26922 26.1658 2.49649 28.2955 5.92707C31.7496 11.4979 28.4451 18.9147 22.4366 19.5158L22.4366 19.5158C17.9725 19.963 14.351 16.3198 13.8839 11.4344L13.8839 11.4344C13.701 9.52196 14.2334 7.52756 15.5028 5.44593C15.5625 5.35014 15.5853 5.23585 15.5701 5.12526C15.5548 5.01415 15.5016 4.90967 15.4168 4.83375L15.4169 4.83371L15.4137 4.83096L15.249 4.68952C15.1867 4.63478 15.1137 4.59361 15.0342 4.56964L14.9765 4.76114L15.0342 4.56964C14.954 4.5455 14.8698 4.53961 14.7872 4.55256L14.8181 4.75015L14.7871 4.55256C14.7045 4.56549 14.6262 4.5968 14.5569 4.64351C14.4878 4.69018 14.4295 4.75105 14.3847 4.82142L14.3844 4.82194C12.9683 7.06451 12.3839 9.42287 12.6397 11.891L12.6397 11.8913C13.2496 17.7163 18.0562 21.7676 23.4084 20.7156C28.1237 19.7909 31.3903 15.1163 30.9438 9.94487L30.9438 9.94479C30.5906 5.87287 28.2191 2.85253 25.2105 1.53289C22.1995 0.212174 18.56 0.600396 15.7009 3.32172C15.5839 3.43253 15.5104 3.58281 15.4892 3.74342C15.4679 3.90407 15.4996 4.069 15.5801 4.20914L15.5801 4.20916L15.5819 4.2121L15.6666 4.35384C15.6993 4.40915 15.7429 4.45779 15.7956 4.49582L15.9127 4.33364L15.7956 4.49582C15.8486 4.53403 15.9094 4.56052 15.9742 4.57251C16.0392 4.58451 16.1057 4.58152 16.1693 4.56388C16.2327 4.54625 16.2909 4.51467 16.3403 4.4723L16.3404 4.47223C17.2258 3.71307 17.9995 3.18462 18.6628 2.87814Z" fill="#46736C" stroke="#46736C" stroke-width="0.4"/>
<path d="M18.3594 8.95076C19.0529 8.95076 19.5847 8.34066 19.5847 7.62733C19.5847 6.91401 19.0529 6.30391 18.3594 6.30391C17.6658 6.30391 17.134 6.91401 17.134 7.62733C17.134 8.34066 17.6658 8.95076 18.3594 8.95076Z" fill="#46736C" stroke="#46736C" stroke-width="0.4"/>
<path d="M25.2234 8.94041C25.9121 8.94041 26.4399 8.33471 26.4399 7.6268C26.4399 6.91889 25.9121 6.31318 25.2234 6.31318C24.5348 6.31318 24.007 6.91889 24.007 7.6268C24.007 8.33471 24.5348 8.94041 25.2234 8.94041Z" fill="#46736C" stroke="#46736C" stroke-width="0.4"/>
<path d="M24.1347 9.6557C23.9335 9.56945 23.7305 9.59126 23.5555 9.72356L22.9884 12.1439C22.7424 12.5212 22.48 12.7394 22.2084 12.8315C21.9401 12.9226 21.6327 12.9009 21.2729 12.7382C20.8791 12.5595 20.6122 12.2901 20.4586 11.9285C20.3028 11.5615 20.257 11.0831 20.3406 10.4802L20.3407 10.4794C20.3635 10.3097 20.3306 10.1356 20.2458 9.98769C20.1608 9.83952 20.0278 9.72502 19.867 9.66994L19.867 9.66994L19.8661 9.66962L19.7509 9.6308C19.6898 9.60941 19.6247 9.60181 19.5601 9.60886C19.4949 9.61598 19.4327 9.63773 19.3773 9.67179C19.3221 9.70581 19.2751 9.75115 19.2387 9.80398L19.4034 9.91745L19.2387 9.80398C19.2024 9.85677 19.177 9.91625 19.1635 9.97848L19.1635 9.97848L19.1632 9.97988C18.8813 11.3204 19.1056 12.3641 19.6198 13.0829C20.1331 13.8004 20.9201 14.1717 21.7151 14.1922C22.51 14.2127 23.3165 13.8827 23.8699 13.1973C24.4245 12.5103 24.7091 11.4871 24.5043 10.1478L24.5044 10.1478L24.504 10.1456C24.4672 9.92185 24.3445 9.74861 24.1369 9.65666L24.1369 9.65664L24.1347 9.6557Z" fill="#46736C" stroke="#46736C" stroke-width="0.4"/>
<path d="M31.2 22.5726V22.604V23.4674V23.5021L31.1883 23.5348C30.9607 24.1709 30.4458 24.6955 29.6822 25.1189C26.5212 26.8751 23.4542 28.5822 20.4812 30.2403C18.9328 31.1058 17.414 31.6484 15.7232 30.7013L15.7231 30.7013C15.2976 30.4627 14.8732 30.217 14.4479 29.9706C13.5286 29.4383 12.6047 28.9032 11.6546 28.4322C10.2695 27.7455 8.84991 27.2067 7.35727 27.0314L7.35481 27.0311C7.34678 27.0301 7.34007 27.0295 7.33457 27.0293L31.2 22.5726ZM31.2 22.5726L31.1904 22.5427M31.2 22.5726L31.1904 22.5427M31.1904 22.5427C30.9837 21.9004 30.6893 21.4212 30.2877 21.1432C29.8781 20.8596 29.3881 20.8065 28.8433 20.9539L28.8432 20.9539C27.7455 21.2513 26.6851 21.5324 25.6621 21.7971C25.4868 21.842 25.3364 21.9315 25.2417 22.0814C25.1486 22.2288 25.1279 22.4055 25.1507 22.5892C25.1508 22.5893 25.1508 22.5894 25.1508 22.5895L25.173 22.7742C25.173 22.7742 25.173 22.7743 25.173 22.7743C25.1806 22.8401 25.2008 22.9043 25.2329 22.9626C25.2651 23.0209 25.3089 23.0727 25.3625 23.1135L25.4836 22.9544L25.3625 23.1135C25.4163 23.1544 25.4786 23.1832 25.5457 23.1967C25.6122 23.21 25.6807 23.2075 25.7461 23.1895C25.7467 23.1894 25.7473 23.1892 25.7478 23.1891L29.214 22.2777C29.2142 22.2776 29.2143 22.2776 29.2145 22.2775C29.3075 22.2537 29.4052 22.2603 29.4963 22.2974C29.5876 22.3346 29.6701 22.4017 29.7317 22.4935C29.9082 22.7639 29.9336 23.0037 29.8753 23.1994C29.8157 23.3995 29.6593 23.5841 29.4162 23.7195L29.4159 23.7196C26.1532 25.5413 22.8353 27.3957 19.4621 29.2828C18.2321 29.9707 17.079 29.9733 15.973 29.3104L15.9582 29.3015C13.3687 27.7388 10.5473 26.0363 7.44993 25.6531C7.39447 25.6463 7.3783 25.6298 7.3727 25.6229C7.36479 25.6131 7.34776 25.5835 7.34776 25.5082V20.0726C7.34776 20.0365 7.35195 20.0125 7.35645 19.9977C7.36067 19.9839 7.36465 19.9796 7.36488 19.9793L7.36489 19.9793L7.36607 19.9783C7.36678 19.9779 7.36871 19.9767 7.37253 19.9753C7.38049 19.9724 7.39684 19.9684 7.42537 19.9684H7.42553L13.6449 19.9635C13.7618 19.9634 13.8778 19.9887 13.9866 20.0384C14.0954 20.0881 14.1952 20.1616 14.2797 20.2555L14.2803 20.2561L17.6733 23.9932C17.6735 23.9934 17.6736 23.9936 17.6738 23.9938C17.7305 24.0573 17.7747 24.1341 17.8026 24.2193C17.8305 24.3045 17.8411 24.3951 17.8336 24.4847C17.8034 24.8052 17.7069 25.0025 17.5751 25.1166L17.5748 25.1169C17.3467 25.315 17.1496 25.3853 16.9782 25.3748C16.8062 25.3643 16.6156 25.2698 16.4065 25.0437L13.42 21.8109L13.42 21.8109L13.4188 21.8096C13.3386 21.7243 13.2292 21.6699 13.1096 21.6633C12.9907 21.6567 12.8764 21.6982 12.7883 21.7759L12.6512 21.8922L12.6512 21.8922L12.6485 21.8945C12.5119 22.0147 12.4119 22.1637 12.4018 22.3426C12.3918 22.5209 12.474 22.6802 12.5954 22.8155L31.1904 22.5427ZM7.38508 18.5873H7.38544C9.17551 18.5905 10.9641 18.5807 12.7512 18.5579L12.7518 18.5579C13.2531 18.553 13.708 18.5578 14.1356 18.6782C14.5719 18.801 14.9683 19.0403 15.369 19.482L15.3692 19.4822C16.4046 20.6264 17.458 21.7805 18.5292 22.9444L18.5298 22.945C18.6477 23.0742 18.713 23.1967 18.7646 23.3124C18.7821 23.3518 18.7969 23.3872 18.811 23.4209C18.8401 23.4905 18.866 23.5523 18.906 23.6251C18.9273 23.6628 18.9423 23.6697 18.9434 23.6702C18.9445 23.6707 18.9465 23.6715 18.9513 23.6717C18.9566 23.6719 18.9667 23.6714 18.9828 23.667C18.9829 23.667 18.9829 23.667 18.983 23.667L24.0782 22.264L24.0788 22.2638C24.1433 22.2463 24.2109 22.2441 24.2765 22.2576C24.342 22.2711 24.4028 22.2996 24.4551 22.34L24.3328 22.4982L24.4551 22.34C24.5073 22.3804 24.5496 22.4316 24.5802 22.4891C24.6107 22.5466 24.6292 22.6097 24.635 22.6741L24.635 22.6736L24.4358 22.6923L24.635 22.6744L24.6527 22.8634C24.6527 22.8637 24.6528 22.8639 24.6528 22.8641C24.6719 23.0538 24.6471 23.2339 24.552 23.3834C24.4552 23.5356 24.3034 23.6284 24.1244 23.6754C24.1242 23.6755 24.1241 23.6755 24.1239 23.6756L19.1907 24.9998C19.1907 24.9998 19.1907 24.9998 19.1907 24.9999C19.0993 25.0244 19.0361 25.0786 18.9944 25.1868C18.9944 25.187 18.9943 25.1872 18.9942 25.1873L18.8075 25.1158L7.38508 18.5873ZM7.38508 18.5873C7.33876 18.5873 7.32046 18.5757 7.31183 18.5682C7.30114 18.5591 7.28106 18.5348 7.26655 18.4726M7.38508 18.5873L7.26655 18.4726M7.26655 18.4726C7.00457 17.3225 6.20824 16.7359 5.30118 16.492C4.40493 16.251 3.39019 16.3388 2.62664 16.5278L7.26655 18.4726ZM7.0264 28.9987C7.27717 28.526 7.38911 27.9 7.33392 27.08L2.62658 16.5278C1.74512 16.7457 1.14583 17.417 0.80946 18.4714L0.8 18.501V18.5322V24.8508V24.9354L0.860631 24.9943C1.02896 25.1578 1.20863 25.2794 1.39696 25.3053C1.60739 25.3343 1.78104 25.2392 1.90568 25.0766C2.05232 24.8906 2.12148 24.6702 2.11789 24.426L2.11788 24.4257C2.08806 22.5926 2.08359 20.8612 2.10446 19.2314C2.11158 18.7055 2.23676 18.3468 2.44656 18.1196C2.65333 17.8957 2.97248 17.7673 3.44095 17.7657L3.44116 17.7657L4.58268 17.7608C4.58273 17.7608 4.58278 17.7608 4.58283 17.7608C5.10209 17.7593 5.456 17.9 5.68362 18.1494C5.91454 18.4024 6.04776 18.8022 6.04776 19.3858V27.4754C6.04776 27.9346 5.94361 28.2633 5.76129 28.4874C5.58106 28.7088 5.30265 28.8547 4.89742 28.9057L4.89669 28.9058C4.35778 28.9757 3.78628 28.9823 3.18166 28.9247L3.18132 28.9247C2.79868 28.8889 2.53888 28.7599 2.37117 28.5599C2.20107 28.357 2.1014 28.0521 2.1 27.6171L2.09999 27.6161L2.09104 26.4992H1.89104L2.09104 26.4976L2.09104 26.4983C2.09092 26.372 2.06332 26.2499 1.99362 26.1454C1.92302 26.0395 1.82075 25.9691 1.70233 25.9279C1.42669 25.8293 1.14577 25.9133 0.883528 26.1011L0.8 26.161V26.2637V28.1475V28.1741L0.806948 28.1998C0.980964 28.8426 1.23696 29.3486 1.58748 29.6983C1.94267 30.0527 2.38387 30.2352 2.89877 30.246L2.89912 30.246C2.98459 30.2477 3.07119 30.2496 3.15861 30.2516C3.58564 30.2612 4.03227 30.2712 4.46213 30.2493C4.98035 30.223 5.49218 30.1497 5.93822 29.9647C6.38901 29.7776 6.77336 29.4757 7.0264 28.9987ZM12.7537 18.7578C13.7612 18.748 14.4642 18.7824 15.2209 19.6164L7.38508 18.7873C9.17612 18.7905 10.9657 18.7807 12.7537 18.7578ZM16.2597 25.1795C16.7194 25.6767 17.2015 25.7061 17.706 25.2678L16.2597 25.1795Z" fill="#46736C" stroke="#46736C" stroke-width="0.4"/>
<path d="M5.63655 27.2216C5.72036 26.9999 5.76331 26.7628 5.76331 26.5238C5.76331 26.2848 5.72036 26.0477 5.63655 25.826C5.55273 25.6043 5.42947 25.4018 5.273 25.2303C5.1165 25.0589 4.92971 24.9218 4.72275 24.8279C4.51573 24.7339 4.29312 24.6853 4.06779 24.6853C3.61191 24.6853 3.17884 24.8838 2.86257 25.2303C2.54686 25.5762 2.37227 26.0418 2.37227 26.5238C2.37227 27.0058 2.54686 27.4713 2.86257 27.8172C3.17884 28.1637 3.61191 28.3623 4.06779 28.3623C4.29312 28.3623 4.51573 28.3137 4.72275 28.2197C4.92971 28.1258 5.1165 27.9887 5.273 27.8172C5.42947 27.6458 5.55273 27.4433 5.63655 27.2216ZM4.35197 26.1756C4.43009 26.2612 4.47674 26.3809 4.47674 26.5091C4.47674 26.6373 4.43009 26.757 4.35197 26.8425C4.27441 26.9275 4.17334 26.9714 4.07227 26.9714C3.97119 26.9714 3.87012 26.9275 3.79256 26.8426C3.71444 26.757 3.66779 26.6373 3.66779 26.5091C3.66779 26.3809 3.71444 26.2612 3.79256 26.1756C3.87012 26.0906 3.97119 26.0468 4.07227 26.0468C4.17334 26.0468 4.27441 26.0906 4.35197 26.1756Z" fill="#46736C" stroke="#46736C" stroke-width="0.4"/>
</svg>
