<svg width="62" height="65" viewBox="0 0 62 65" fill="none" xmlns="http://www.w3.org/2000/svg">
<g clip-path="url(#clip0_8733_1014)">
<path d="M33.739 3.0045C33.739 3.39905 33.6553 3.78974 33.4925 4.15427C33.3297 4.51879 33.0912 4.85 32.7905 5.12899C32.4897 5.40799 32.1327 5.6293 31.7398 5.78029C31.3468 5.93128 30.9257 6.00899 30.5004 6.00899C29.6414 6.00899 28.8177 5.69245 28.2103 5.12899C27.6029 4.56554 27.2617 3.80134 27.2617 3.0045C27.2617 2.20765 27.6029 1.44345 28.2103 0.879996C28.8177 0.316544 29.6414 0 30.5004 0C31.3593 0 32.1831 0.316544 32.7905 0.879996C33.3978 1.44345 33.739 2.20765 33.739 3.0045ZM31.5726 3.0106C31.5726 2.74679 31.4596 2.49378 31.2586 2.30724C31.0575 2.12069 30.7848 2.01589 30.5004 2.01589C30.216 2.01589 29.9433 2.12069 29.7422 2.30724C29.5411 2.49378 29.4281 2.74679 29.4281 3.0106C29.4281 3.27442 29.5411 3.52743 29.7422 3.71397C29.9433 3.90052 30.216 4.00532 30.5004 4.00532C30.7848 4.00532 31.0575 3.90052 31.2586 3.71397C31.4596 3.52743 31.5726 3.27442 31.5726 3.0106Z" fill="#46736C"/>
<path d="M30.5019 4.00554C31.0941 4.00554 31.5742 3.56019 31.5742 3.01082C31.5742 2.46146 31.0941 2.01611 30.5019 2.01611C29.9097 2.01611 29.4297 2.46146 29.4297 3.01082C29.4297 3.56019 29.9097 4.00554 30.5019 4.00554Z" fill="white"/>
<path d="M31.6029 18.3184C31.6095 18.3527 31.6225 18.3549 31.6419 18.325C31.8402 18.0196 32.0456 17.7406 32.2581 17.4881C32.5715 17.115 32.9742 16.892 33.495 17.0427C33.7701 17.1221 33.981 17.2763 34.1277 17.5054C34.3801 17.8984 34.2907 18.3108 34.0168 18.6696C33.1699 19.7777 32.3187 20.8837 31.463 21.9877C31.2056 22.3201 30.7881 22.5737 30.3381 22.4983C29.8766 22.4214 29.6555 22.1547 29.3959 21.8131C28.6664 20.8544 27.9064 19.8659 27.1159 18.8478C26.903 18.5734 26.7011 18.2899 26.7268 17.9427C26.7653 17.4408 27.1636 17.0615 27.7047 17.002C28.226 16.9449 28.5596 17.2336 28.8329 17.5981C29.0111 17.836 29.1837 18.0713 29.3509 18.3041C29.397 18.3683 29.4199 18.3618 29.4195 18.2848C29.4093 15.1941 29.4111 12.1272 29.425 9.08397C29.4265 8.79584 29.4954 8.56795 29.6319 8.4003C30.0275 7.91363 30.8385 7.85254 31.277 8.31121C31.4696 8.51229 31.5799 8.73271 31.5793 9.00048C31.5771 12.1373 31.5771 15.1585 31.5793 18.0639C31.5793 18.1528 31.5872 18.2376 31.6029 18.3184Z" fill="#46736C"/>
<path d="M11.6344 11.4972C11.6344 12.2939 11.2933 13.0579 10.686 13.6213C10.0787 14.1846 9.25511 14.5011 8.39631 14.5011C7.53751 14.5011 6.71389 14.1846 6.10662 13.6213C5.49936 13.0579 5.1582 12.2939 5.1582 11.4972C5.1582 10.7004 5.49936 9.93637 6.10662 9.37301C6.71389 8.80965 7.53751 8.49316 8.39631 8.49316C9.25511 8.49316 10.0787 8.80965 10.686 9.37301C11.2933 9.93637 11.6344 10.7004 11.6344 11.4972ZM9.46854 11.5017C9.46854 11.2379 9.35558 10.9849 9.1545 10.7984C8.95341 10.6118 8.68069 10.507 8.39631 10.507C8.2555 10.507 8.11607 10.5328 7.98598 10.5827C7.85589 10.6327 7.73769 10.706 7.63813 10.7984C7.53856 10.8907 7.45958 11.0004 7.40569 11.1211C7.35181 11.2418 7.32407 11.3711 7.32407 11.5017C7.32407 11.6324 7.35181 11.7617 7.40569 11.8824C7.45958 12.0031 7.53856 12.1127 7.63813 12.2051C7.73769 12.2975 7.85589 12.3707 7.98598 12.4207C8.11607 12.4707 8.2555 12.4964 8.39631 12.4964C8.68069 12.4964 8.95341 12.3916 9.1545 12.2051C9.35558 12.0186 9.46854 11.7655 9.46854 11.5017Z" fill="#46736C"/>
<path d="M55.8406 11.4977C55.8406 12.2945 55.4994 13.0587 54.892 13.6222C54.2846 14.1856 53.4609 14.5022 52.6019 14.5022C51.743 14.5022 50.9192 14.1856 50.3119 13.6222C49.7045 13.0587 49.3633 12.2945 49.3633 11.4977C49.3633 10.7008 49.7045 9.93661 50.3119 9.37316C50.9192 8.80971 51.743 8.49316 52.6019 8.49316C53.4609 8.49316 54.2846 8.80971 54.892 9.37316C55.4994 9.93661 55.8406 10.7008 55.8406 11.4977ZM53.6736 11.5017C53.6736 11.2379 53.5607 10.9849 53.3596 10.7984C53.1585 10.6118 52.8858 10.507 52.6014 10.507C52.4606 10.507 52.3212 10.5328 52.1911 10.5827C52.061 10.6327 51.9428 10.706 51.8432 10.7984C51.7436 10.8907 51.6647 11.0004 51.6108 11.1211C51.5569 11.2418 51.5292 11.3711 51.5292 11.5017C51.5292 11.6324 51.5569 11.7617 51.6108 11.8824C51.6647 12.0031 51.7436 12.1127 51.8432 12.2051C51.9428 12.2975 52.061 12.3707 52.1911 12.4207C52.3212 12.4707 52.4606 12.4964 52.6014 12.4964C52.8858 12.4964 53.1585 12.3916 53.3596 12.2051C53.5607 12.0186 53.6736 11.7655 53.6736 11.5017Z" fill="#46736C"/>
<path d="M8.39645 12.4963C8.98863 12.4963 9.46869 12.0509 9.46869 11.5015C9.46869 10.9522 8.98863 10.5068 8.39645 10.5068C7.80428 10.5068 7.32422 10.9522 7.32422 11.5015C7.32422 12.0509 7.80428 12.4963 8.39645 12.4963Z" fill="white"/>
<path d="M52.6035 12.4963C53.1957 12.4963 53.6757 12.0509 53.6757 11.5015C53.6757 10.9522 53.1957 10.5068 52.6035 10.5068C52.0113 10.5068 51.5312 10.9522 51.5312 11.5015C51.5312 12.0509 52.0113 12.4963 52.6035 12.4963Z" fill="white"/>
<path d="M41.7584 22.9914C41.7207 23.0393 41.7334 23.0583 41.7963 23.0485C42.1698 22.9884 42.5221 22.9334 42.8532 22.8835C43.3942 22.8021 43.8875 23.0388 44.0856 23.5188C44.1573 23.6929 44.1742 23.8664 44.1361 24.0391C44.0377 24.4827 43.7553 24.7525 43.2889 24.8485C42.7039 24.9692 42.0849 25.0399 41.4698 25.1341C40.5849 25.2702 39.7158 25.4056 38.8627 25.5403C38.6268 25.578 38.444 25.5858 38.3145 25.5637C37.6956 25.4594 37.3751 24.9987 37.4399 24.4102C37.4909 23.947 37.61 23.4654 37.6945 22.9945C37.8595 22.0778 38.0237 21.162 38.1872 20.2471C38.2655 19.8113 38.5143 19.5249 38.9335 19.3878C39.3681 19.2457 39.8494 19.3974 40.1188 19.7187C40.3679 20.016 40.374 20.3133 40.2982 20.7078C40.2437 20.9925 40.1943 21.2956 40.1501 21.617C40.1442 21.6601 40.1567 21.6652 40.1874 21.6322C40.3919 21.4123 40.6348 21.1726 40.9161 20.9129C43.0299 18.9619 45.0816 17.0595 47.0713 15.2058C47.2519 15.0378 47.4461 14.8566 47.6952 14.7772C48.0084 14.6777 48.3226 14.722 48.638 14.91C49.0841 15.1758 49.2498 15.7393 48.9941 16.1746C48.9085 16.3205 48.7794 16.4732 48.6067 16.6327C46.392 18.6812 44.2146 20.7017 42.0745 22.6941C41.9691 22.7919 41.8451 22.882 41.7584 22.9914Z" fill="#46736C"/>
<path d="M20.8735 21.6335C20.8069 21.3012 20.7458 20.973 20.6902 20.6489C20.6524 20.4285 20.6397 20.1964 20.7226 19.9851C20.8735 19.6033 21.2379 19.359 21.6774 19.3376C22.123 19.3162 22.4634 19.5015 22.6986 19.8935C22.7542 19.9865 22.8038 20.1558 22.8473 20.4015C23.0675 21.6352 23.2872 22.8688 23.5063 24.1024C23.5213 24.1873 23.5356 24.2721 23.5491 24.357C23.6408 24.9373 23.3801 25.3776 22.7644 25.5487C22.5252 25.6154 22.2069 25.5461 21.9627 25.5095C20.5799 25.3003 19.1214 25.0864 17.6815 24.8507C17.1997 24.7718 16.8051 24.2582 16.8512 23.8097C16.8798 23.5304 17.0067 23.295 17.2321 23.1036C17.4742 22.898 17.7848 22.8255 18.1638 22.8863C18.5501 22.948 18.9079 23.0023 19.2372 23.0492C19.3443 23.0644 19.3564 23.0398 19.2734 22.9754C19.179 22.9015 19.0808 22.8349 18.9924 22.7529C16.7258 20.6474 14.5449 18.6246 12.4498 16.6843C12.3554 16.5971 12.2631 16.5055 12.1727 16.4094C11.8595 16.0772 11.8036 15.702 12.0048 15.2839C12.165 14.951 12.5634 14.7255 12.964 14.7306C13.2738 14.7346 13.5475 14.8471 13.7849 15.0681C16.0175 17.145 18.2209 19.1905 20.395 21.2043C20.5503 21.3484 20.6941 21.5047 20.8466 21.6467C20.8707 21.6691 20.8797 21.6647 20.8735 21.6335Z" fill="#46736C"/>
<path d="M38.5878 31.9997C38.5878 33.9896 37.7357 35.8981 36.2189 37.3052C34.7022 38.7123 32.645 39.5028 30.5 39.5028C28.3549 39.5028 26.2978 38.7123 24.781 37.3052C23.2642 35.8981 22.4121 33.9896 22.4121 31.9997C22.4121 30.0097 23.2642 28.1013 24.781 26.6942C26.2978 25.2871 28.3549 24.4966 30.5 24.4966C32.645 24.4966 34.7022 25.2871 36.2189 26.6942C37.7357 28.1013 38.5878 30.0097 38.5878 31.9997ZM36.4231 31.9997C36.4231 30.5428 35.7992 29.1455 34.6887 28.1153C33.5782 27.0851 32.0721 26.5064 30.5016 26.5064C28.9312 26.5064 27.425 27.0851 26.3145 28.1153C25.204 29.1455 24.5802 30.5428 24.5802 31.9997C24.5802 33.4566 25.204 34.8538 26.3145 35.884C27.425 36.9142 28.9312 37.493 30.5016 37.493C32.0721 37.493 33.5782 36.9142 34.6887 35.884C35.7992 34.8538 36.4231 33.4566 36.4231 31.9997Z" fill="#46736C"/>
<path d="M15.7964 33.0054C15.7966 33.0043 15.7965 33.0031 15.7961 33.002C15.7957 33.0009 15.7951 32.9999 15.7943 32.999C15.7935 32.9981 15.7924 32.9974 15.7913 32.997C15.7901 32.9965 15.7889 32.9962 15.7877 32.9963C12.4283 33.0095 9.09158 33.0146 5.77757 33.0115C5.3865 33.0109 5.08378 32.8819 4.8694 32.6246C4.41724 32.082 4.61644 31.3367 5.30949 31.0654C5.42729 31.0189 5.60142 30.9958 5.83189 30.9961C9.08482 30.9995 12.3421 31.0026 15.6038 31.0053C15.6368 31.0053 15.6684 31.0031 15.6988 30.9987C15.7661 30.9892 15.7712 30.967 15.7141 30.932C15.3465 30.7067 15.0183 30.4869 14.7297 30.2728C14.4839 30.09 14.2819 29.7245 14.3346 29.4079C14.4085 28.9596 14.6704 28.6663 15.1204 28.5282C15.2773 28.48 15.4332 28.4749 15.5879 28.5129C15.8045 28.5659 16.0008 28.6511 16.1767 28.7685C17.3935 29.5799 18.6078 30.3878 19.8198 31.1921C20.1013 31.379 20.2917 31.7078 20.2643 32.027C20.2401 32.3085 20.1326 32.5895 19.8851 32.7641C19.7014 32.8934 19.5165 33.0193 19.3303 33.1419C18.2456 33.8559 17.1599 34.5742 16.073 35.2967C15.7463 35.5136 15.3966 35.5591 15.0238 35.4331C14.559 35.2764 14.2506 34.778 14.3423 34.3346C14.4015 34.0492 14.5744 33.8114 14.8608 33.6214C15.1758 33.4134 15.4826 33.216 15.7811 33.0293C15.7902 33.0236 15.7953 33.0156 15.7964 33.0054Z" fill="#46736C"/>
<path d="M45.2144 33.017C45.2177 33.0282 45.2271 33.0385 45.2424 33.048C45.4535 33.1766 45.6672 33.3126 45.8834 33.4558C46.2894 33.7251 46.5479 33.889 46.6538 34.3003C46.6798 34.4011 46.6834 34.5065 46.6648 34.6164C46.5982 35.0081 46.3858 35.2755 46.0277 35.4187C45.5969 35.5908 45.1705 35.4712 44.8078 35.2258C43.6021 34.4103 42.4559 33.6489 41.3694 32.9416C40.9079 32.6418 40.6341 32.3053 40.7828 31.7428C40.881 31.3691 41.1455 31.2159 41.4468 31.0153C42.6171 30.2351 43.7301 29.4971 44.7859 28.8014C44.8788 28.7403 44.977 28.6825 45.0805 28.6278C45.3961 28.4619 45.8065 28.4507 46.1221 28.6309C46.3957 28.787 46.5731 29.0178 46.6543 29.3232C46.758 29.7126 46.5166 30.1163 46.1868 30.3429C45.8901 30.5461 45.5839 30.7425 45.2682 30.9318C45.2641 30.9343 45.2609 30.9379 45.259 30.942C45.257 30.9462 45.2564 30.9508 45.2572 30.9553C45.258 30.9598 45.2602 30.9639 45.2635 30.9673C45.2669 30.9706 45.2712 30.973 45.2759 30.9741C45.3461 30.9897 45.4156 30.9975 45.4844 30.9975C48.7304 30.9985 52.0373 30.999 55.4051 30.999C55.4866 30.999 55.5638 31.0128 55.6366 31.0403C56.575 31.3931 56.6315 32.5649 55.6959 32.937C55.5701 32.9869 55.3752 33.0117 55.1115 33.0114C51.9328 33.0083 48.9321 33.0071 46.1094 33.0078C45.8208 33.0078 45.5261 32.9935 45.2315 32.9961C45.2288 32.9961 45.2261 32.9966 45.2237 32.9977C45.2213 32.9989 45.2192 33.0005 45.2176 33.0025C45.2159 33.0045 45.2148 33.0069 45.2142 33.0094C45.2137 33.0119 45.2138 33.0145 45.2144 33.017Z" fill="#46736C"/>
<path d="M2.47841 32.0001C2.47841 32.3947 2.39462 32.7855 2.23184 33.1501C2.06905 33.5147 1.83046 33.8459 1.52967 34.125C1.22888 34.404 0.871792 34.6254 0.478794 34.7764C0.0857954 34.9274 -0.335418 35.0051 -0.760796 35.0051C-1.18617 35.0051 -1.60739 34.9274 -2.00039 34.7764C-2.39338 34.6254 -2.75047 34.404 -3.05126 34.125C-3.35205 33.8459 -3.59064 33.5147 -3.75343 33.1501C-3.91622 32.7855 -4 32.3947 -4 32.0001C-4 31.2031 -3.65873 30.4388 -3.05126 29.8753C-2.44379 29.3117 -1.61989 28.9951 -0.760796 28.9951C0.0982947 28.9951 0.922199 29.3117 1.52967 29.8753C2.13714 30.4388 2.47841 31.2031 2.47841 32.0001ZM0.315281 32.0037C0.315281 31.7396 0.202198 31.4863 0.000908852 31.2996C-0.20038 31.1129 -0.473386 31.008 -0.758052 31.008C-1.04272 31.008 -1.31572 31.1129 -1.51701 31.2996C-1.7183 31.4863 -1.83139 31.7396 -1.83139 32.0037C-1.83139 32.2678 -1.7183 32.521 -1.51701 32.7078C-1.31572 32.8945 -1.04272 32.9994 -0.758052 32.9994C-0.473386 32.9994 -0.20038 32.8945 0.000908852 32.7078C0.202198 32.521 0.315281 32.2678 0.315281 32.0037Z" fill="#46736C"/>
<path d="M64.9997 32.0001C64.9997 32.7968 64.6585 33.5609 64.0512 34.1242C63.444 34.6876 62.6203 35.0041 61.7615 35.0041C60.9027 35.0041 60.0791 34.6876 59.4719 34.1242C58.8646 33.5609 58.5234 32.7968 58.5234 32.0001C58.5234 31.2034 58.8646 30.4393 59.4719 29.8759C60.0791 29.3126 60.9027 28.9961 61.7615 28.9961C62.6203 28.9961 63.444 29.3126 64.0512 29.8759C64.6585 30.4393 64.9997 31.2034 64.9997 32.0001ZM62.8316 32.0047C62.8316 31.7411 62.7187 31.4884 62.5179 31.302C62.317 31.1157 62.0445 31.011 61.7604 31.011C61.4764 31.011 61.2039 31.1157 61.003 31.302C60.8022 31.4884 60.6893 31.7411 60.6893 32.0047C60.6893 32.2682 60.8022 32.521 61.003 32.7073C61.2039 32.8937 61.4764 32.9984 61.7604 32.9984C62.0445 32.9984 62.317 32.8937 62.5179 32.7073C62.7187 32.521 62.8316 32.2682 62.8316 32.0047Z" fill="#46736C"/>
<path d="M-0.758698 32.9998C-0.165912 32.9998 0.314635 32.554 0.314635 32.004C0.314635 31.4541 -0.165912 31.0083 -0.758698 31.0083C-1.35148 31.0083 -1.83203 31.4541 -1.83203 32.004C-1.83203 32.554 -1.35148 32.9998 -0.758698 32.9998Z" fill="white"/>
<path d="M61.7606 32.9976C62.3522 32.9976 62.8317 32.5527 62.8317 32.0039C62.8317 31.4551 62.3522 31.0103 61.7606 31.0103C61.169 31.0103 60.6895 31.4551 60.6895 32.0039C60.6895 32.5527 61.169 32.9976 61.7606 32.9976Z" fill="white"/>
<path d="M40.1282 42.3827C40.201 42.7665 40.2688 43.1317 40.3317 43.4782C40.3753 43.7178 40.3303 43.944 40.1967 44.1567C39.974 44.5107 39.644 44.6757 39.2068 44.6516C38.7737 44.6275 38.4732 44.4491 38.3052 44.1165C38.2372 43.9815 38.1827 43.794 38.1417 43.554C37.9321 42.3287 37.7027 41.1064 37.4887 39.9188C37.4379 39.6368 37.413 39.4596 37.4141 39.3873C37.4229 38.919 37.8421 38.5499 38.3041 38.4125C38.3513 38.3986 38.4004 38.395 38.4512 38.4018C38.9191 38.4649 39.4174 38.5384 39.946 38.6222C40.9666 38.7841 42.0111 38.9453 43.0793 39.1058C43.4392 39.1598 43.8014 39.2763 43.982 39.5726C44.1147 39.7905 44.2025 40.0903 44.1296 40.3474C44.0147 40.7492 43.7491 41.0014 43.3328 41.1039C43.076 41.1665 42.7736 41.0983 42.5157 41.0642C42.2326 41.027 41.9571 40.9654 41.6816 40.9323C41.6472 40.9283 41.6423 40.9376 41.6668 40.9603C41.8622 41.141 42.074 41.3146 42.2715 41.4979C44.3425 43.4188 46.4954 45.4146 48.7302 47.4855C49.111 47.8388 49.2658 48.3438 48.9475 48.7964C48.7263 49.1115 48.2248 49.3543 47.8346 49.2504C47.5837 49.1839 47.3794 49.0774 47.2217 48.9307C45.0066 46.8745 42.7873 44.8182 40.5639 42.7619C40.4245 42.6331 40.2994 42.4916 40.1594 42.3674C40.132 42.3426 40.1216 42.3477 40.1282 42.3827Z" fill="#46736C"/>
<path d="M19.2783 40.9377C19.0117 40.9801 18.7386 41.0245 18.4591 41.071C18.098 41.1311 17.8425 41.1455 17.6925 41.1143C17.0806 40.9855 16.7081 40.3818 16.9018 39.836C17.0016 39.554 17.1858 39.3524 17.4543 39.2313C17.5699 39.179 17.7417 39.1354 17.9696 39.1004C19.1435 38.9209 20.374 38.7299 21.661 38.5272C21.9864 38.4763 22.4105 38.3827 22.7047 38.4397C23.065 38.5099 23.3277 38.7119 23.4927 39.0455C23.626 39.3143 23.5755 39.5052 23.53 39.7627C23.3306 40.8932 23.1261 42.0445 22.9165 43.2167C22.8773 43.4356 22.8327 43.6552 22.7826 43.8755C22.6322 44.5403 21.926 44.8325 21.2565 44.5597C20.8302 44.3861 20.6074 43.9457 20.6661 43.5364C20.7144 43.1988 20.7759 42.8526 20.8505 42.4979C20.8571 42.466 20.8536 42.4355 20.8401 42.4063C20.8385 42.4028 20.836 42.3998 20.8329 42.3974C20.8297 42.3951 20.826 42.3935 20.822 42.3928C20.818 42.3922 20.8139 42.3925 20.81 42.3937C20.8062 42.3949 20.8027 42.3969 20.8 42.3997C20.6844 42.5188 20.5697 42.6313 20.4559 42.7372C18.6985 44.3716 16.9766 45.9704 15.2901 47.5336C14.7584 48.0269 14.2294 48.5456 13.7021 48.9921C13.4215 49.2296 13.0964 49.3102 12.727 49.2339C12.4727 49.1813 12.2741 49.0693 12.131 48.8979C11.8446 48.5558 11.8078 48.1572 12.0218 47.7764C12.0741 47.6834 12.1888 47.5553 12.3659 47.3921C14.3552 45.5601 16.3389 43.7219 18.317 41.8774C18.6413 41.5745 18.9628 41.266 19.3047 40.9896C19.3625 40.9431 19.3537 40.9258 19.2783 40.9377Z" fill="#46736C"/>
<path d="M29.4246 45.7393C29.4183 45.6667 29.3924 45.6601 29.3466 45.7195C29.2248 45.8769 29.1041 46.0351 28.9845 46.1939C28.7789 46.4671 28.6593 46.6202 28.6256 46.6531C28.4171 46.8552 28.0769 47.0349 27.763 47.0079C27.2631 46.9646 26.7774 46.5996 26.7434 46.1267C26.7229 45.8403 26.8012 45.5815 26.9783 45.3504C27.744 44.3506 28.4835 43.391 29.1968 42.4716C29.2755 42.3698 29.3543 42.265 29.4333 42.157C29.6441 41.8694 29.9113 41.5655 30.3058 41.5065C30.7734 41.4369 31.1538 41.5979 31.4472 41.9896C32.0274 42.763 32.5222 43.4107 32.9315 43.9327C33.2835 44.3813 33.6328 44.8286 33.9796 45.2746C34.0901 45.4171 34.175 45.5744 34.2343 45.7465C34.3846 46.1817 34.1311 46.6689 33.7162 46.8771C33.5787 46.946 33.4124 46.986 33.2174 46.9972C32.8163 47.0201 32.481 46.7941 32.2445 46.505C32.0316 46.2453 31.8374 45.9766 31.6618 45.6986C31.6263 45.6423 31.6038 45.6465 31.5943 45.7113C31.5851 45.7724 31.5806 45.8381 31.5806 45.9083C31.5754 48.9006 31.5758 51.8625 31.5816 54.7941C31.582 55.051 31.5549 55.2461 31.5004 55.3795C31.3737 55.6895 31.0971 55.915 30.7371 55.9837C30.0798 56.109 29.4251 55.6574 29.4235 55.014C29.4143 52.1171 29.4127 49.2111 29.4185 46.2962C29.4185 46.113 29.4405 45.9241 29.4246 45.7393Z" fill="#46736C"/>
<path d="M11.6344 52.5015C11.6344 53.2983 11.2933 54.0623 10.686 54.6257C10.0787 55.189 9.25511 55.5055 8.39631 55.5055C7.53751 55.5055 6.71389 55.189 6.10662 54.6257C5.49936 54.0623 5.1582 53.2983 5.1582 52.5015C5.1582 52.1071 5.24196 51.7164 5.40469 51.352C5.56742 50.9875 5.80594 50.6564 6.10662 50.3774C6.40731 50.0985 6.76428 49.8772 7.15714 49.7262C7.55001 49.5753 7.97108 49.4976 8.39631 49.4976C8.82154 49.4976 9.24262 49.5753 9.63548 49.7262C10.0283 49.8772 10.3853 50.0985 10.686 50.3774C10.9867 50.6564 11.2252 50.9875 11.3879 51.352C11.5507 51.7164 11.6344 52.1071 11.6344 52.5015ZM9.468 52.5066C9.468 52.2427 9.35497 51.9895 9.15379 51.8029C8.9526 51.6163 8.67973 51.5114 8.39521 51.5114C8.11069 51.5114 7.83783 51.6163 7.63664 51.8029C7.43545 51.9895 7.32243 52.2427 7.32243 52.5066C7.32243 52.7706 7.43545 53.0237 7.63664 53.2104C7.83783 53.397 8.11069 53.5019 8.39521 53.5019C8.67973 53.5019 8.9526 53.397 9.15379 53.2104C9.35497 53.0237 9.468 52.7706 9.468 52.5066Z" fill="#46736C"/>
<path d="M55.8425 52.5025C55.8425 53.2994 55.5013 54.0636 54.894 54.627C54.2866 55.1905 53.4628 55.507 52.6039 55.507C51.7449 55.507 50.9212 55.1905 50.3138 54.627C49.7064 54.0636 49.3652 53.2994 49.3652 52.5025C49.3652 51.7057 49.7064 50.9415 50.3138 50.378C50.9212 49.8146 51.7449 49.498 52.6039 49.498C53.4628 49.498 54.2866 49.8146 54.894 50.378C55.5013 50.9415 55.8425 51.7057 55.8425 52.5025ZM53.6706 52.5061C53.6706 52.2434 53.5581 51.9914 53.3579 51.8056C53.1576 51.6198 52.886 51.5155 52.6028 51.5155C52.3196 51.5155 52.048 51.6198 51.8477 51.8056C51.6474 51.9914 51.5349 52.2434 51.5349 52.5061C51.5349 52.7688 51.6474 53.0208 51.8477 53.2066C52.048 53.3924 52.3196 53.4967 52.6028 53.4967C52.886 53.4967 53.1576 53.3924 53.3579 53.2066C53.5581 53.0208 53.6706 52.7688 53.6706 52.5061Z" fill="#46736C"/>
<path d="M52.603 53.4969C53.1928 53.4969 53.6708 53.0534 53.6708 52.5063C53.6708 51.9591 53.1928 51.5156 52.603 51.5156C52.0133 51.5156 51.5352 51.9591 51.5352 52.5063C51.5352 53.0534 52.0133 53.4969 52.603 53.4969Z" fill="white"/>
<path d="M8.39505 53.5017C8.98753 53.5017 9.46783 53.0561 9.46783 52.5064C9.46783 51.9568 8.98753 51.5112 8.39505 51.5112C7.80257 51.5112 7.32227 51.9568 7.32227 52.5064C7.32227 53.0561 7.80257 53.5017 8.39505 53.5017Z" fill="white"/>
<path d="M33.7401 60.9948C33.7401 61.7917 33.3989 62.5561 32.7914 63.1196C32.1839 63.6832 31.36 63.9998 30.5009 63.9998C29.6418 63.9998 28.8179 63.6832 28.2105 63.1196C27.603 62.5561 27.2617 61.7917 27.2617 60.9948C27.2617 60.1978 27.603 59.4334 28.2105 58.8699C28.8179 58.3063 29.6418 57.9897 30.5009 57.9897C31.36 57.9897 32.1839 58.3063 32.7914 58.8699C33.3989 59.4334 33.7401 60.1978 33.7401 60.9948ZM31.5732 60.9993C31.5732 60.735 31.46 60.4815 31.2585 60.2945C31.057 60.1076 30.7837 60.0026 30.4987 60.0026C30.2138 60.0026 29.9405 60.1076 29.739 60.2945C29.5375 60.4815 29.4243 60.735 29.4243 60.9993C29.4243 61.2637 29.5375 61.5172 29.739 61.7041C29.9405 61.8911 30.2138 61.9961 30.4987 61.9961C30.7837 61.9961 31.057 61.8911 31.2585 61.7041C31.46 61.5172 31.5732 61.2637 31.5732 60.9993Z" fill="#46736C"/>
<path d="M30.5002 61.9959C31.0936 61.9959 31.5746 61.5497 31.5746 60.9992C31.5746 60.4487 31.0936 60.0024 30.5002 60.0024C29.9068 60.0024 29.4258 60.4487 29.4258 60.9992C29.4258 61.5497 29.9068 61.9959 30.5002 61.9959Z" fill="white"/>
<path d="M6.93431 23.4698C7.52367 23.4698 8.00143 22.9662 8.00143 22.345C8.00143 21.7238 7.52367 21.2202 6.93431 21.2202C6.34495 21.2202 5.86719 21.7238 5.86719 22.345C5.86719 22.9662 6.34495 23.4698 6.93431 23.4698Z" fill="#46736C"/>
<path d="M40.6836 39.2184L39.3686 37.8323C39.0356 37.4813 38.4957 37.4813 38.1627 37.8323L38.1184 37.879C37.7854 38.23 37.7854 38.7991 38.1184 39.1502L39.4333 40.5362C39.7663 40.8872 40.3063 40.8872 40.6393 40.5362L40.6836 40.4895C41.0166 40.1385 41.0166 39.5694 40.6836 39.2184Z" fill="#46736C"/>
</g>
<defs>
<clipPath id="clip0_8733_1014">
<rect width="61.6667" height="65" fill="white"/>
</clipPath>
</defs>
</svg>
