<svg width="70" height="69" viewBox="0 0 70 69" fill="none" xmlns="http://www.w3.org/2000/svg">
<path d="M29.2115 12.0914C29.1427 12.346 29.0793 12.6228 29.0216 12.9221L29.2115 12.0914ZM29.2115 12.0914C29.2112 12.1 29.211 12.1087 29.211 12.1174V17.681C29.211 17.6879 29.211 17.6946 29.2108 17.701L29.2115 12.0914ZM32.0919 7.58131C30.4802 7.8765 29.2713 8.70538 28.4846 10.0676L28.4846 10.0677C28.1356 10.6724 27.8579 11.5142 27.6447 12.5819L27.6447 12.582C27.4684 13.4651 27.2821 14.3292 27.086 15.1742L27.086 15.1745C26.9075 15.9488 26.9349 16.6603 27.1683 17.2906C27.4018 17.9213 27.8361 18.4561 28.4473 18.8849C28.6943 19.0589 28.9394 19.2295 29.1825 19.3967C29.1966 19.407 29.202 19.4158 29.2044 19.434C29.2128 19.5124 29.2154 19.5915 29.2182 19.6785C29.2194 19.7136 29.2205 19.7499 29.2222 19.788C29.2275 19.9124 29.2376 20.053 29.2761 20.1827C29.3157 20.3167 29.3888 20.45 29.5256 20.5463C29.66 20.6409 29.8327 20.6833 30.0407 20.6833L30.0411 20.6833C33.7951 20.6765 37.1579 20.6758 40.1293 20.6812H40.1297C40.3237 20.6812 40.4847 20.628 40.6066 20.5192C40.7251 20.4134 40.7847 20.2745 40.817 20.1445C40.8491 20.0151 40.8583 19.8773 40.8631 19.7579C40.8645 19.7216 40.8656 19.6875 40.8666 19.6554C40.8692 19.5744 40.8713 19.5057 40.8784 19.4432L40.8784 19.4431C40.8833 19.4001 40.8981 19.3798 40.9313 19.3615C41.6998 18.9405 42.3394 18.4002 42.7251 17.7109C43.1136 17.0164 43.2342 16.1887 42.994 15.2182C42.7674 14.2998 42.5553 13.3794 42.3578 12.4569L42.3578 12.4567C42.1256 11.3771 41.8225 10.5235 41.4416 9.90744L41.4416 9.90743C40.6744 8.66669 39.5162 7.89527 37.9867 7.58964C39.0992 6.2717 39.2465 4.58302 38.6791 3.22075C38.085 1.79455 36.705 0.721893 34.8402 0.804455L34.84 0.804465C32.8928 0.892704 31.325 2.39105 31.1053 4.38198C30.9712 5.58906 31.3024 6.65945 32.0919 7.58131ZM40.8756 17.6755L40.8738 12.3849C41.1262 13.5366 41.3922 14.6511 41.6717 15.7285L41.6718 15.7287C41.8693 16.4868 41.5061 17.2243 40.8756 17.6755ZM39.5924 9.89265C40.0541 10.3253 40.4082 10.8989 40.6492 11.5762C40.4908 11.4172 40.27 11.3545 40.0241 11.3545C40.0241 11.3545 40.0241 11.3545 40.0241 11.3545L29.963 11.3524H29.963C29.762 11.3524 29.5703 11.4342 29.4296 11.5781C29.3876 11.6212 29.3511 11.6688 29.3206 11.7197C29.479 11.224 29.6613 10.8284 29.8652 10.5291L29.8653 10.529C30.6001 9.44993 31.7187 8.96925 33.041 8.98687L33.0413 8.98688C34.3833 9.00321 35.7393 9.00321 37.1092 8.98688L37.1092 8.98688C38.1497 8.97421 38.9737 9.31282 39.5924 9.89265ZM29.2004 17.6917C28.9123 17.4308 28.7039 17.1755 28.5686 16.927C28.3612 16.5425 28.3098 16.1419 28.4137 15.7154L28.4137 15.7153C28.6377 14.793 28.8403 13.862 29.0215 12.9221L29.2004 17.6917ZM36.8494 2.99662C37.3296 3.48812 37.6002 4.1557 37.6002 4.85275C37.6002 5.54979 37.3296 6.21738 36.8494 6.70888C36.3693 7.20022 35.7192 7.47538 35.0424 7.47538C34.3655 7.47538 33.7154 7.20022 33.2353 6.70888C32.7551 6.21738 32.4845 5.54979 32.4845 4.85275C32.4845 4.1557 32.7551 3.48812 33.2353 2.99662C33.7154 2.50527 34.3655 2.23011 35.0424 2.23011C35.7192 2.23011 36.3693 2.50527 36.8494 2.99662ZM39.4714 12.8211V19.2166H30.6133V12.8211H39.4714Z" fill="#46736C" stroke="black" stroke-width="0.4"/>
<path d="M35.0436 15.5993C35.6119 15.5993 36.0646 15.1291 36.0646 14.559C36.0646 13.9889 35.6119 13.5187 35.0436 13.5187C34.4754 13.5187 34.0227 13.9889 34.0227 14.559C34.0227 15.1291 34.4754 15.5993 35.0436 15.5993Z" fill="#46736C" stroke="black" stroke-width="0.4"/>
<path d="M24.6189 16.8051L23.7829 17.1897C23.4339 17.3502 23.2826 17.7668 23.4364 18.117L23.456 18.1616C23.6098 18.5118 24.0146 18.6726 24.3635 18.5121L25.1996 18.1275C25.5485 17.967 25.6999 17.5504 25.5461 17.2002L25.5265 17.1556C25.3727 16.8054 24.9679 16.6446 24.6189 16.8051Z" fill="#46736C" stroke="black" stroke-width="0.4"/>
<path d="M46.2889 17.1892L45.4588 16.7912C45.1115 16.6247 44.703 16.7793 44.5434 17.1281L44.5231 17.1724C44.3634 17.5213 44.5089 17.9414 44.8561 18.1079L45.6862 18.5059C46.0335 18.6724 46.442 18.5178 46.6017 18.169L46.6219 18.1247C46.7816 17.7759 46.6361 17.3557 46.2889 17.1892Z" fill="#46736C" stroke="black" stroke-width="0.4"/>
<path d="M49.5285 19.0713L48.7265 18.5683C48.4033 18.3656 47.9839 18.4708 47.7885 18.7973L47.7656 18.8355C47.5701 19.1619 47.6689 19.5921 47.9921 19.7949L48.7941 20.2979C49.1174 20.5006 49.5367 20.3953 49.7321 20.0689L49.755 20.0307C49.9505 19.7042 49.8518 19.274 49.5285 19.0713Z" fill="#46736C" stroke="black" stroke-width="0.4"/>
<path d="M21.3423 18.5763L20.5472 19.0672C20.2215 19.2683 20.1196 19.699 20.3134 20.0278L20.3381 20.0697C20.5318 20.3984 20.9517 20.507 21.2773 20.306L22.0724 19.8151C22.3981 19.614 22.5 19.1833 22.3062 18.8545L22.2815 18.8126C22.0878 18.4839 21.668 18.3753 21.3423 18.5763Z" fill="#46736C" stroke="black" stroke-width="0.4"/>
<path d="M18.316 20.8135L17.6143 21.4422C17.3287 21.6981 17.3006 22.1416 17.5496 22.4328L17.5785 22.4665C17.8275 22.7577 18.2608 22.7877 18.5463 22.5319L19.248 21.9032C19.5336 21.6473 19.5617 21.2038 19.3127 20.9126L19.2838 20.8789C19.0348 20.5877 18.6015 20.5577 18.316 20.8135Z" fill="#46736C" stroke="black" stroke-width="0.4"/>
<path d="M52.4639 21.4351L51.7643 20.8039C51.4797 20.547 51.0463 20.5756 50.7962 20.8658L50.7646 20.9025C50.5146 21.1928 50.5412 21.6364 50.8259 21.8933L51.5255 22.5245C51.8101 22.7814 52.2435 22.7529 52.4935 22.4626L52.5252 22.4259C52.7752 22.1356 52.7485 21.692 52.4639 21.4351Z" fill="#46736C" stroke="black" stroke-width="0.4"/>
<mask id="path-9-outside-1_8733_9680" maskUnits="userSpaceOnUse" x="16.668" y="21.7637" width="37" height="37" fill="black">
<rect fill="white" x="16.668" y="21.7637" width="37" height="37"/>
<path d="M52.4165 40.5458C52.4165 45.262 50.586 49.7849 47.3277 53.1197C44.0694 56.4545 39.6501 58.328 35.0422 58.328C30.4343 58.328 26.0151 56.4545 22.7568 53.1197C19.4985 49.7849 17.668 45.262 17.668 40.5458C17.668 35.8297 19.4985 31.3068 22.7568 27.9719C26.0151 24.6371 30.4343 22.7637 35.0422 22.7637C39.6501 22.7637 44.0694 24.6371 47.3277 27.9719C50.586 31.3068 52.4165 35.8297 52.4165 40.5458ZM38.5752 29.8692C39.3019 29.7876 40.0937 29.6761 40.9505 29.5347C40.9633 29.5327 40.9755 29.5276 40.9862 29.52C40.9968 29.5125 41.0056 29.5025 41.012 29.4909C41.0183 29.4793 41.022 29.4664 41.0227 29.4532C41.0235 29.4399 41.0213 29.4267 41.0163 29.4144C40.7227 28.7169 40.38 28.0269 39.9881 27.3443C38.2504 24.3218 35.0582 22.3395 32.0412 25.1621C30.7619 26.3613 29.9987 27.7889 29.2774 29.3879C29.2714 29.4007 29.2684 29.4147 29.2688 29.4289C29.2691 29.443 29.2727 29.457 29.2792 29.4696C29.2858 29.4823 29.2951 29.4933 29.3066 29.5017C29.318 29.5102 29.3312 29.5159 29.3451 29.5184C32.4192 30.1017 35.4959 30.2186 38.5752 29.8692ZM31.3159 24.2321C28.6736 24.901 26.3601 26.1125 24.3754 27.8664C24.3631 27.8775 24.3538 27.8916 24.3482 27.9074C24.3427 27.9232 24.3412 27.94 24.3438 27.9564C24.3464 27.9728 24.353 27.9881 24.3631 28.0009C24.3732 28.0137 24.3863 28.0236 24.4013 28.0296C25.6195 28.5408 26.8357 28.9433 28.0499 29.237C28.1013 29.2489 28.1553 29.242 28.2023 29.2174C28.2492 29.1928 28.2863 29.1521 28.3069 29.1024C28.8755 27.7019 29.6075 26.4306 30.5029 25.2885C30.7619 24.9581 31.0542 24.6488 31.3797 24.3606C31.5324 24.226 31.5112 24.1831 31.3159 24.2321ZM42.2358 29.239C43.4254 28.9494 44.6011 28.5864 45.7071 28.0969C45.8346 28.0398 45.8452 27.9657 45.739 27.8746C43.6426 26.0907 41.4042 24.901 39.0236 24.3055C38.9147 24.277 38.8994 24.3035 38.9778 24.3851C40.2557 25.6985 41.264 27.2757 42.0027 29.1166C42.0209 29.1622 42.0544 29.1995 42.0971 29.222C42.1399 29.2444 42.1891 29.2505 42.2358 29.239ZM23.387 28.8087C20.5594 31.7149 18.8038 35.8449 18.7161 39.8912C18.7148 39.9782 18.756 40.0217 18.8397 40.0217L26.0851 40.0197C26.1701 40.0197 26.2133 39.9762 26.2146 39.8891C26.285 36.4914 26.8171 33.3084 27.8108 30.3403C27.8152 30.327 27.8168 30.3128 27.8154 30.2988C27.8141 30.2847 27.8098 30.2711 27.8028 30.2587C27.7958 30.2464 27.7864 30.2357 27.775 30.2272C27.7637 30.2188 27.7507 30.2129 27.737 30.2098C26.3275 29.8971 24.9307 29.4198 23.5464 28.7781C23.4866 28.7509 23.4335 28.7611 23.387 28.8087ZM46.534 28.8821C45.2488 29.4511 43.9077 29.9263 42.5447 30.1976C42.5324 30.1998 42.5207 30.2047 42.5104 30.212C42.5002 30.2194 42.4916 30.2289 42.4853 30.24C42.4791 30.2511 42.4752 30.2634 42.4741 30.2762C42.473 30.2889 42.4747 30.3018 42.4789 30.3138C43.5191 33.4356 44.0478 36.6362 44.0651 39.9156C44.0651 39.9863 44.0996 40.0217 44.1687 40.0217H51.2328C51.2528 40.0217 51.2725 40.0176 51.2909 40.0095C51.3092 40.0014 51.3257 39.9895 51.3393 39.9746C51.353 39.9596 51.3635 39.942 51.3702 39.9227C51.3769 39.9035 51.3796 39.883 51.3783 39.8626C51.1325 35.5688 49.62 31.9297 46.8409 28.9453C46.8024 28.904 46.7524 28.8758 46.6975 28.8645C46.6427 28.8532 46.5856 28.8593 46.534 28.8821ZM27.2428 39.9299C27.2426 39.9416 27.2446 39.9532 27.2489 39.9641C27.2532 39.975 27.2596 39.9849 27.2678 39.9932C27.276 40.0016 27.2857 40.0082 27.2965 40.0128C27.3073 40.0173 27.3188 40.0197 27.3305 40.0197L42.9771 40.0217C42.9869 40.0217 42.9967 40.0197 43.0058 40.0158C43.0149 40.0118 43.0231 40.0061 43.0299 39.9989C43.0368 39.9917 43.0422 39.9831 43.0458 39.9737C43.0494 39.9643 43.0511 39.9543 43.0508 39.9442C43.0296 36.7844 42.5181 33.6769 41.5165 30.6218C41.5028 30.5806 41.475 30.546 41.4379 30.5242C41.4009 30.5025 41.3573 30.4951 41.3152 30.5035C37.2568 31.3002 33.1306 31.2995 28.9366 30.5014C28.8715 30.4892 28.8283 30.515 28.8071 30.5789C27.7988 33.5756 27.2774 36.6926 27.2428 39.9299ZM23.5145 52.3218C24.9081 51.6895 26.3222 51.2007 27.7569 50.8554C27.8114 50.8418 27.83 50.8078 27.8127 50.7534C26.8058 47.7608 26.275 44.5799 26.2206 41.2107C26.2193 41.1196 26.1734 41.0741 26.0831 41.0741L18.8476 41.072C18.744 41.072 18.6955 41.1251 18.7022 41.2311C18.9612 45.5861 20.5202 49.2741 23.379 52.2952C23.396 52.3133 23.4181 52.3255 23.4423 52.3302C23.4666 52.335 23.4918 52.332 23.5145 52.3218ZM41.4985 50.5066C42.4949 47.5678 42.9871 44.4779 43.0648 41.1883C43.0661 41.1121 43.0302 41.0741 42.9572 41.0741H27.3584C27.3438 41.0741 27.3294 41.077 27.316 41.0826C27.3026 41.0883 27.2904 41.0966 27.2802 41.1071C27.27 41.1175 27.262 41.1299 27.2566 41.1435C27.2512 41.1571 27.2485 41.1716 27.2488 41.1862C27.2741 44.3665 27.7895 47.4651 28.7951 50.4822C28.8065 50.5167 28.8298 50.5458 28.8605 50.5642C28.8913 50.5826 28.9275 50.5889 28.9625 50.5821C33.0807 49.7881 37.2142 49.7894 41.363 50.5862C41.3912 50.5917 41.4203 50.5868 41.4452 50.5722C41.4701 50.5576 41.489 50.5343 41.4985 50.5066ZM43.7682 45.2693C43.4932 47.2394 43.0628 49.0729 42.4769 50.7697C42.461 50.8132 42.4749 50.8404 42.5188 50.8513C43.9057 51.1844 45.2282 51.6283 46.4862 52.1831C46.6456 52.2524 46.7845 52.2225 46.9027 52.0933C49.6778 49.0328 51.171 45.3984 51.3822 41.1903C51.3831 41.1751 51.3808 41.1598 51.3757 41.1455C51.3705 41.1312 51.3626 41.1181 51.3523 41.107C51.3421 41.0959 51.3297 41.0871 51.316 41.0811C51.3023 41.0751 51.2876 41.072 51.2727 41.072L44.1647 41.0741C44.0903 41.0741 44.0538 41.1121 44.0551 41.1883C44.0791 42.3657 43.9834 43.7261 43.7682 45.2693ZM37.0867 56.776C38.9618 55.7787 40.1873 53.6433 41.0223 51.6793C41.0254 51.6722 41.027 51.6644 41.0268 51.6565C41.0266 51.6487 41.0248 51.6409 41.0213 51.6339C41.0179 51.6269 41.013 51.6207 41.0069 51.6159C41.0009 51.611 40.9939 51.6076 40.9864 51.6059C40.5334 51.4903 40.0664 51.4006 39.5855 51.3367C36.5381 50.9315 33.5098 50.9438 30.5009 51.3734C30.1156 51.4278 29.737 51.4978 29.365 51.5835C29.288 51.6011 29.2654 51.6474 29.2973 51.7222C30.5766 54.7508 33.3584 58.7604 37.0867 56.776ZM31.4414 56.827C30.0279 55.3422 28.9858 53.7297 28.3149 51.9893C28.2957 51.9394 28.2595 51.8983 28.213 51.8736C28.1665 51.8488 28.1128 51.8421 28.0618 51.8547C26.8343 52.1538 25.6128 52.5543 24.3973 53.056C24.3821 53.062 24.3687 53.072 24.3584 53.085C24.3481 53.098 24.3413 53.1135 24.3387 53.13C24.3361 53.1465 24.3377 53.1634 24.3435 53.179C24.3492 53.1946 24.3588 53.2085 24.3714 53.2191C26.4384 55.0288 28.7865 56.2478 31.4155 56.8759C31.4216 56.8776 31.4281 56.8772 31.4339 56.8747C31.4397 56.8722 31.4445 56.8677 31.4475 56.862C31.4505 56.8563 31.4516 56.8498 31.4505 56.8434C31.4494 56.837 31.4462 56.8312 31.4414 56.827ZM42.0086 51.9506C41.2714 53.8174 40.2624 55.4014 38.9818 56.7026C38.8954 56.7896 38.9107 56.8181 39.0276 56.7882C41.5251 56.1329 43.7795 54.9221 45.7908 53.1559C45.8652 53.0906 45.8572 53.0397 45.7669 53.0029C44.5991 52.523 43.4108 52.1382 42.2019 51.8486C42.1629 51.8396 42.122 51.8449 42.0866 51.8636C42.0512 51.8823 42.0236 51.9131 42.0086 51.9506Z"/>
</mask>
<path d="M52.4165 40.5458C52.4165 45.262 50.586 49.7849 47.3277 53.1197C44.0694 56.4545 39.6501 58.328 35.0422 58.328C30.4343 58.328 26.0151 56.4545 22.7568 53.1197C19.4985 49.7849 17.668 45.262 17.668 40.5458C17.668 35.8297 19.4985 31.3068 22.7568 27.9719C26.0151 24.6371 30.4343 22.7637 35.0422 22.7637C39.6501 22.7637 44.0694 24.6371 47.3277 27.9719C50.586 31.3068 52.4165 35.8297 52.4165 40.5458ZM38.5752 29.8692C39.3019 29.7876 40.0937 29.6761 40.9505 29.5347C40.9633 29.5327 40.9755 29.5276 40.9862 29.52C40.9968 29.5125 41.0056 29.5025 41.012 29.4909C41.0183 29.4793 41.022 29.4664 41.0227 29.4532C41.0235 29.4399 41.0213 29.4267 41.0163 29.4144C40.7227 28.7169 40.38 28.0269 39.9881 27.3443C38.2504 24.3218 35.0582 22.3395 32.0412 25.1621C30.7619 26.3613 29.9987 27.7889 29.2774 29.3879C29.2714 29.4007 29.2684 29.4147 29.2688 29.4289C29.2691 29.443 29.2727 29.457 29.2792 29.4696C29.2858 29.4823 29.2951 29.4933 29.3066 29.5017C29.318 29.5102 29.3312 29.5159 29.3451 29.5184C32.4192 30.1017 35.4959 30.2186 38.5752 29.8692ZM31.3159 24.2321C28.6736 24.901 26.3601 26.1125 24.3754 27.8664C24.3631 27.8775 24.3538 27.8916 24.3482 27.9074C24.3427 27.9232 24.3412 27.94 24.3438 27.9564C24.3464 27.9728 24.353 27.9881 24.3631 28.0009C24.3732 28.0137 24.3863 28.0236 24.4013 28.0296C25.6195 28.5408 26.8357 28.9433 28.0499 29.237C28.1013 29.2489 28.1553 29.242 28.2023 29.2174C28.2492 29.1928 28.2863 29.1521 28.3069 29.1024C28.8755 27.7019 29.6075 26.4306 30.5029 25.2885C30.7619 24.9581 31.0542 24.6488 31.3797 24.3606C31.5324 24.226 31.5112 24.1831 31.3159 24.2321ZM42.2358 29.239C43.4254 28.9494 44.6011 28.5864 45.7071 28.0969C45.8346 28.0398 45.8452 27.9657 45.739 27.8746C43.6426 26.0907 41.4042 24.901 39.0236 24.3055C38.9147 24.277 38.8994 24.3035 38.9778 24.3851C40.2557 25.6985 41.264 27.2757 42.0027 29.1166C42.0209 29.1622 42.0544 29.1995 42.0971 29.222C42.1399 29.2444 42.1891 29.2505 42.2358 29.239ZM23.387 28.8087C20.5594 31.7149 18.8038 35.8449 18.7161 39.8912C18.7148 39.9782 18.756 40.0217 18.8397 40.0217L26.0851 40.0197C26.1701 40.0197 26.2133 39.9762 26.2146 39.8891C26.285 36.4914 26.8171 33.3084 27.8108 30.3403C27.8152 30.327 27.8168 30.3128 27.8154 30.2988C27.8141 30.2847 27.8098 30.2711 27.8028 30.2587C27.7958 30.2464 27.7864 30.2357 27.775 30.2272C27.7637 30.2188 27.7507 30.2129 27.737 30.2098C26.3275 29.8971 24.9307 29.4198 23.5464 28.7781C23.4866 28.7509 23.4335 28.7611 23.387 28.8087ZM46.534 28.8821C45.2488 29.4511 43.9077 29.9263 42.5447 30.1976C42.5324 30.1998 42.5207 30.2047 42.5104 30.212C42.5002 30.2194 42.4916 30.2289 42.4853 30.24C42.4791 30.2511 42.4752 30.2634 42.4741 30.2762C42.473 30.2889 42.4747 30.3018 42.4789 30.3138C43.5191 33.4356 44.0478 36.6362 44.0651 39.9156C44.0651 39.9863 44.0996 40.0217 44.1687 40.0217H51.2328C51.2528 40.0217 51.2725 40.0176 51.2909 40.0095C51.3092 40.0014 51.3257 39.9895 51.3393 39.9746C51.353 39.9596 51.3635 39.942 51.3702 39.9227C51.3769 39.9035 51.3796 39.883 51.3783 39.8626C51.1325 35.5688 49.62 31.9297 46.8409 28.9453C46.8024 28.904 46.7524 28.8758 46.6975 28.8645C46.6427 28.8532 46.5856 28.8593 46.534 28.8821ZM27.2428 39.9299C27.2426 39.9416 27.2446 39.9532 27.2489 39.9641C27.2532 39.975 27.2596 39.9849 27.2678 39.9932C27.276 40.0016 27.2857 40.0082 27.2965 40.0128C27.3073 40.0173 27.3188 40.0197 27.3305 40.0197L42.9771 40.0217C42.9869 40.0217 42.9967 40.0197 43.0058 40.0158C43.0149 40.0118 43.0231 40.0061 43.0299 39.9989C43.0368 39.9917 43.0422 39.9831 43.0458 39.9737C43.0494 39.9643 43.0511 39.9543 43.0508 39.9442C43.0296 36.7844 42.5181 33.6769 41.5165 30.6218C41.5028 30.5806 41.475 30.546 41.4379 30.5242C41.4009 30.5025 41.3573 30.4951 41.3152 30.5035C37.2568 31.3002 33.1306 31.2995 28.9366 30.5014C28.8715 30.4892 28.8283 30.515 28.8071 30.5789C27.7988 33.5756 27.2774 36.6926 27.2428 39.9299ZM23.5145 52.3218C24.9081 51.6895 26.3222 51.2007 27.7569 50.8554C27.8114 50.8418 27.83 50.8078 27.8127 50.7534C26.8058 47.7608 26.275 44.5799 26.2206 41.2107C26.2193 41.1196 26.1734 41.0741 26.0831 41.0741L18.8476 41.072C18.744 41.072 18.6955 41.1251 18.7022 41.2311C18.9612 45.5861 20.5202 49.2741 23.379 52.2952C23.396 52.3133 23.4181 52.3255 23.4423 52.3302C23.4666 52.335 23.4918 52.332 23.5145 52.3218ZM41.4985 50.5066C42.4949 47.5678 42.9871 44.4779 43.0648 41.1883C43.0661 41.1121 43.0302 41.0741 42.9572 41.0741H27.3584C27.3438 41.0741 27.3294 41.077 27.316 41.0826C27.3026 41.0883 27.2904 41.0966 27.2802 41.1071C27.27 41.1175 27.262 41.1299 27.2566 41.1435C27.2512 41.1571 27.2485 41.1716 27.2488 41.1862C27.2741 44.3665 27.7895 47.4651 28.7951 50.4822C28.8065 50.5167 28.8298 50.5458 28.8605 50.5642C28.8913 50.5826 28.9275 50.5889 28.9625 50.5821C33.0807 49.7881 37.2142 49.7894 41.363 50.5862C41.3912 50.5917 41.4203 50.5868 41.4452 50.5722C41.4701 50.5576 41.489 50.5343 41.4985 50.5066ZM43.7682 45.2693C43.4932 47.2394 43.0628 49.0729 42.4769 50.7697C42.461 50.8132 42.4749 50.8404 42.5188 50.8513C43.9057 51.1844 45.2282 51.6283 46.4862 52.1831C46.6456 52.2524 46.7845 52.2225 46.9027 52.0933C49.6778 49.0328 51.171 45.3984 51.3822 41.1903C51.3831 41.1751 51.3808 41.1598 51.3757 41.1455C51.3705 41.1312 51.3626 41.1181 51.3523 41.107C51.3421 41.0959 51.3297 41.0871 51.316 41.0811C51.3023 41.0751 51.2876 41.072 51.2727 41.072L44.1647 41.0741C44.0903 41.0741 44.0538 41.1121 44.0551 41.1883C44.0791 42.3657 43.9834 43.7261 43.7682 45.2693ZM37.0867 56.776C38.9618 55.7787 40.1873 53.6433 41.0223 51.6793C41.0254 51.6722 41.027 51.6644 41.0268 51.6565C41.0266 51.6487 41.0248 51.6409 41.0213 51.6339C41.0179 51.6269 41.013 51.6207 41.0069 51.6159C41.0009 51.611 40.9939 51.6076 40.9864 51.6059C40.5334 51.4903 40.0664 51.4006 39.5855 51.3367C36.5381 50.9315 33.5098 50.9438 30.5009 51.3734C30.1156 51.4278 29.737 51.4978 29.365 51.5835C29.288 51.6011 29.2654 51.6474 29.2973 51.7222C30.5766 54.7508 33.3584 58.7604 37.0867 56.776ZM31.4414 56.827C30.0279 55.3422 28.9858 53.7297 28.3149 51.9893C28.2957 51.9394 28.2595 51.8983 28.213 51.8736C28.1665 51.8488 28.1128 51.8421 28.0618 51.8547C26.8343 52.1538 25.6128 52.5543 24.3973 53.056C24.3821 53.062 24.3687 53.072 24.3584 53.085C24.3481 53.098 24.3413 53.1135 24.3387 53.13C24.3361 53.1465 24.3377 53.1634 24.3435 53.179C24.3492 53.1946 24.3588 53.2085 24.3714 53.2191C26.4384 55.0288 28.7865 56.2478 31.4155 56.8759C31.4216 56.8776 31.4281 56.8772 31.4339 56.8747C31.4397 56.8722 31.4445 56.8677 31.4475 56.862C31.4505 56.8563 31.4516 56.8498 31.4505 56.8434C31.4494 56.837 31.4462 56.8312 31.4414 56.827ZM42.0086 51.9506C41.2714 53.8174 40.2624 55.4014 38.9818 56.7026C38.8954 56.7896 38.9107 56.8181 39.0276 56.7882C41.5251 56.1329 43.7795 54.9221 45.7908 53.1559C45.8652 53.0906 45.8572 53.0397 45.7669 53.0029C44.5991 52.523 43.4108 52.1382 42.2019 51.8486C42.1629 51.8396 42.122 51.8449 42.0866 51.8636C42.0512 51.8823 42.0236 51.9131 42.0086 51.9506Z" fill="#46736C"/>
<path d="M52.4165 40.5458C52.4165 45.262 50.586 49.7849 47.3277 53.1197C44.0694 56.4545 39.6501 58.328 35.0422 58.328C30.4343 58.328 26.0151 56.4545 22.7568 53.1197C19.4985 49.7849 17.668 45.262 17.668 40.5458C17.668 35.8297 19.4985 31.3068 22.7568 27.9719C26.0151 24.6371 30.4343 22.7637 35.0422 22.7637C39.6501 22.7637 44.0694 24.6371 47.3277 27.9719C50.586 31.3068 52.4165 35.8297 52.4165 40.5458ZM38.5752 29.8692C39.3019 29.7876 40.0937 29.6761 40.9505 29.5347C40.9633 29.5327 40.9755 29.5276 40.9862 29.52C40.9968 29.5125 41.0056 29.5025 41.012 29.4909C41.0183 29.4793 41.022 29.4664 41.0227 29.4532C41.0235 29.4399 41.0213 29.4267 41.0163 29.4144C40.7227 28.7169 40.38 28.0269 39.9881 27.3443C38.2504 24.3218 35.0582 22.3395 32.0412 25.1621C30.7619 26.3613 29.9987 27.7889 29.2774 29.3879C29.2714 29.4007 29.2684 29.4147 29.2688 29.4289C29.2691 29.443 29.2727 29.457 29.2792 29.4696C29.2858 29.4823 29.2951 29.4933 29.3066 29.5017C29.318 29.5102 29.3312 29.5159 29.3451 29.5184C32.4192 30.1017 35.4959 30.2186 38.5752 29.8692ZM31.3159 24.2321C28.6736 24.901 26.3601 26.1125 24.3754 27.8664C24.3631 27.8775 24.3538 27.8916 24.3482 27.9074C24.3427 27.9232 24.3412 27.94 24.3438 27.9564C24.3464 27.9728 24.353 27.9881 24.3631 28.0009C24.3732 28.0137 24.3863 28.0236 24.4013 28.0296C25.6195 28.5408 26.8357 28.9433 28.0499 29.237C28.1013 29.2489 28.1553 29.242 28.2023 29.2174C28.2492 29.1928 28.2863 29.1521 28.3069 29.1024C28.8755 27.7019 29.6075 26.4306 30.5029 25.2885C30.7619 24.9581 31.0542 24.6488 31.3797 24.3606C31.5324 24.226 31.5112 24.1831 31.3159 24.2321ZM42.2358 29.239C43.4254 28.9494 44.6011 28.5864 45.7071 28.0969C45.8346 28.0398 45.8452 27.9657 45.739 27.8746C43.6426 26.0907 41.4042 24.901 39.0236 24.3055C38.9147 24.277 38.8994 24.3035 38.9778 24.3851C40.2557 25.6985 41.264 27.2757 42.0027 29.1166C42.0209 29.1622 42.0544 29.1995 42.0971 29.222C42.1399 29.2444 42.1891 29.2505 42.2358 29.239ZM23.387 28.8087C20.5594 31.7149 18.8038 35.8449 18.7161 39.8912C18.7148 39.9782 18.756 40.0217 18.8397 40.0217L26.0851 40.0197C26.1701 40.0197 26.2133 39.9762 26.2146 39.8891C26.285 36.4914 26.8171 33.3084 27.8108 30.3403C27.8152 30.327 27.8168 30.3128 27.8154 30.2988C27.8141 30.2847 27.8098 30.2711 27.8028 30.2587C27.7958 30.2464 27.7864 30.2357 27.775 30.2272C27.7637 30.2188 27.7507 30.2129 27.737 30.2098C26.3275 29.8971 24.9307 29.4198 23.5464 28.7781C23.4866 28.7509 23.4335 28.7611 23.387 28.8087ZM46.534 28.8821C45.2488 29.4511 43.9077 29.9263 42.5447 30.1976C42.5324 30.1998 42.5207 30.2047 42.5104 30.212C42.5002 30.2194 42.4916 30.2289 42.4853 30.24C42.4791 30.2511 42.4752 30.2634 42.4741 30.2762C42.473 30.2889 42.4747 30.3018 42.4789 30.3138C43.5191 33.4356 44.0478 36.6362 44.0651 39.9156C44.0651 39.9863 44.0996 40.0217 44.1687 40.0217H51.2328C51.2528 40.0217 51.2725 40.0176 51.2909 40.0095C51.3092 40.0014 51.3257 39.9895 51.3393 39.9746C51.353 39.9596 51.3635 39.942 51.3702 39.9227C51.3769 39.9035 51.3796 39.883 51.3783 39.8626C51.1325 35.5688 49.62 31.9297 46.8409 28.9453C46.8024 28.904 46.7524 28.8758 46.6975 28.8645C46.6427 28.8532 46.5856 28.8593 46.534 28.8821ZM27.2428 39.9299C27.2426 39.9416 27.2446 39.9532 27.2489 39.9641C27.2532 39.975 27.2596 39.9849 27.2678 39.9932C27.276 40.0016 27.2857 40.0082 27.2965 40.0128C27.3073 40.0173 27.3188 40.0197 27.3305 40.0197L42.9771 40.0217C42.9869 40.0217 42.9967 40.0197 43.0058 40.0158C43.0149 40.0118 43.0231 40.0061 43.0299 39.9989C43.0368 39.9917 43.0422 39.9831 43.0458 39.9737C43.0494 39.9643 43.0511 39.9543 43.0508 39.9442C43.0296 36.7844 42.5181 33.6769 41.5165 30.6218C41.5028 30.5806 41.475 30.546 41.4379 30.5242C41.4009 30.5025 41.3573 30.4951 41.3152 30.5035C37.2568 31.3002 33.1306 31.2995 28.9366 30.5014C28.8715 30.4892 28.8283 30.515 28.8071 30.5789C27.7988 33.5756 27.2774 36.6926 27.2428 39.9299ZM23.5145 52.3218C24.9081 51.6895 26.3222 51.2007 27.7569 50.8554C27.8114 50.8418 27.83 50.8078 27.8127 50.7534C26.8058 47.7608 26.275 44.5799 26.2206 41.2107C26.2193 41.1196 26.1734 41.0741 26.0831 41.0741L18.8476 41.072C18.744 41.072 18.6955 41.1251 18.7022 41.2311C18.9612 45.5861 20.5202 49.2741 23.379 52.2952C23.396 52.3133 23.4181 52.3255 23.4423 52.3302C23.4666 52.335 23.4918 52.332 23.5145 52.3218ZM41.4985 50.5066C42.4949 47.5678 42.9871 44.4779 43.0648 41.1883C43.0661 41.1121 43.0302 41.0741 42.9572 41.0741H27.3584C27.3438 41.0741 27.3294 41.077 27.316 41.0826C27.3026 41.0883 27.2904 41.0966 27.2802 41.1071C27.27 41.1175 27.262 41.1299 27.2566 41.1435C27.2512 41.1571 27.2485 41.1716 27.2488 41.1862C27.2741 44.3665 27.7895 47.4651 28.7951 50.4822C28.8065 50.5167 28.8298 50.5458 28.8605 50.5642C28.8913 50.5826 28.9275 50.5889 28.9625 50.5821C33.0807 49.7881 37.2142 49.7894 41.363 50.5862C41.3912 50.5917 41.4203 50.5868 41.4452 50.5722C41.4701 50.5576 41.489 50.5343 41.4985 50.5066ZM43.7682 45.2693C43.4932 47.2394 43.0628 49.0729 42.4769 50.7697C42.461 50.8132 42.4749 50.8404 42.5188 50.8513C43.9057 51.1844 45.2282 51.6283 46.4862 52.1831C46.6456 52.2524 46.7845 52.2225 46.9027 52.0933C49.6778 49.0328 51.171 45.3984 51.3822 41.1903C51.3831 41.1751 51.3808 41.1598 51.3757 41.1455C51.3705 41.1312 51.3626 41.1181 51.3523 41.107C51.3421 41.0959 51.3297 41.0871 51.316 41.0811C51.3023 41.0751 51.2876 41.072 51.2727 41.072L44.1647 41.0741C44.0903 41.0741 44.0538 41.1121 44.0551 41.1883C44.0791 42.3657 43.9834 43.7261 43.7682 45.2693ZM37.0867 56.776C38.9618 55.7787 40.1873 53.6433 41.0223 51.6793C41.0254 51.6722 41.027 51.6644 41.0268 51.6565C41.0266 51.6487 41.0248 51.6409 41.0213 51.6339C41.0179 51.6269 41.013 51.6207 41.0069 51.6159C41.0009 51.611 40.9939 51.6076 40.9864 51.6059C40.5334 51.4903 40.0664 51.4006 39.5855 51.3367C36.5381 50.9315 33.5098 50.9438 30.5009 51.3734C30.1156 51.4278 29.737 51.4978 29.365 51.5835C29.288 51.6011 29.2654 51.6474 29.2973 51.7222C30.5766 54.7508 33.3584 58.7604 37.0867 56.776ZM31.4414 56.827C30.0279 55.3422 28.9858 53.7297 28.3149 51.9893C28.2957 51.9394 28.2595 51.8983 28.213 51.8736C28.1665 51.8488 28.1128 51.8421 28.0618 51.8547C26.8343 52.1538 25.6128 52.5543 24.3973 53.056C24.3821 53.062 24.3687 53.072 24.3584 53.085C24.3481 53.098 24.3413 53.1135 24.3387 53.13C24.3361 53.1465 24.3377 53.1634 24.3435 53.179C24.3492 53.1946 24.3588 53.2085 24.3714 53.2191C26.4384 55.0288 28.7865 56.2478 31.4155 56.8759C31.4216 56.8776 31.4281 56.8772 31.4339 56.8747C31.4397 56.8722 31.4445 56.8677 31.4475 56.862C31.4505 56.8563 31.4516 56.8498 31.4505 56.8434C31.4494 56.837 31.4462 56.8312 31.4414 56.827ZM42.0086 51.9506C41.2714 53.8174 40.2624 55.4014 38.9818 56.7026C38.8954 56.7896 38.9107 56.8181 39.0276 56.7882C41.5251 56.1329 43.7795 54.9221 45.7908 53.1559C45.8652 53.0906 45.8572 53.0397 45.7669 53.0029C44.5991 52.523 43.4108 52.1382 42.2019 51.8486C42.1629 51.8396 42.122 51.8449 42.0866 51.8636C42.0512 51.8823 42.0236 51.9131 42.0086 51.9506Z" stroke="black" stroke-width="0.8" mask="url(#path-9-outside-1_8733_9680)"/>
<path d="M53.4672 23.3499L53.4341 23.3793C53.1488 23.6322 53.1186 24.073 53.3647 24.3637L53.9857 25.0975C54.2317 25.3882 54.6623 25.4205 54.9476 25.1676L54.9807 25.1382C55.266 24.8853 55.2962 24.4445 55.0501 24.1538L54.4291 23.42C54.183 23.1293 53.7525 23.097 53.4672 23.3499Z" fill="#46736C" stroke="black" stroke-width="0.4"/>
<path d="M16.6445 23.393L16.6145 23.3661C16.329 23.1102 15.8957 23.1403 15.6467 23.4315L15.0219 24.1619C14.7729 24.453 14.801 24.8966 15.0866 25.1524L15.1166 25.1793C15.4021 25.4352 15.8354 25.4051 16.0844 25.1139L16.7092 24.3835C16.9582 24.0924 16.9301 23.6488 16.6445 23.393Z" fill="#46736C" stroke="black" stroke-width="0.4"/>
<path d="M14.3145 26.2481L14.2737 26.2225C13.9513 26.0204 13.5332 26.1253 13.3384 26.4508L12.849 27.2681C12.6541 27.5936 12.7526 28.0225 13.0749 28.2247L13.1157 28.2502C13.438 28.4524 13.8561 28.3474 14.051 28.022L14.5403 27.2047C14.7352 26.8792 14.6368 26.4503 14.3145 26.2481Z" fill="#46736C" stroke="black" stroke-width="0.4"/>
<path d="M55.8026 26.2071L55.7652 26.2306C55.4419 26.4333 55.3432 26.8635 55.5387 27.19L56.0259 28.0038C56.2214 28.3302 56.6407 28.4355 56.964 28.2327L57.0013 28.2093C57.3246 28.0065 57.4234 27.5763 57.2279 27.2499L56.7406 26.4361C56.5452 26.1097 56.1259 26.0044 55.8026 26.2071Z" fill="#46736C" stroke="black" stroke-width="0.4"/>
<path d="M12.4537 29.4454L12.4067 29.4231C12.0628 29.2597 11.6596 29.4141 11.503 29.7593L11.1121 30.6214C10.9555 30.9666 11.1006 31.3814 11.4445 31.5448L11.4915 31.5671C11.8353 31.7305 12.2386 31.5762 12.3952 31.2309L12.7861 30.3689C12.9427 30.0236 12.7976 29.6088 12.4537 29.4454Z" fill="#46736C" stroke="black" stroke-width="0.4"/>
<path d="M57.6857 29.4006L57.6384 29.4221C57.2886 29.5808 57.1352 29.9966 57.2871 30.3475L57.6569 31.2015C57.8088 31.5525 58.2129 31.7155 58.5626 31.5568L58.61 31.5354C58.9598 31.3767 59.1132 30.9609 58.9612 30.6099L58.5915 29.756C58.4395 29.405 58.0355 29.242 57.6857 29.4006Z" fill="#46736C" stroke="black" stroke-width="0.4"/>
<path d="M59.1157 32.8054L59.0657 32.8191C58.7036 32.9184 58.495 33.2965 58.5895 33.6575L58.8309 34.5794C58.9254 34.9405 59.2907 35.1611 59.6528 35.0618L59.7029 35.0481C60.065 34.9488 60.2735 34.5707 60.179 34.2097L59.9377 33.2878C59.8431 32.9267 59.4778 32.7061 59.1157 32.8054Z" fill="#46736C" stroke="black" stroke-width="0.4"/>
<path d="M11.0163 32.8437L10.9702 32.8307C10.6088 32.7289 10.242 32.9469 10.145 33.3072L9.89627 34.2314C9.79928 34.5918 10.0053 34.9713 10.3667 35.0731L10.4128 35.0861C10.7742 35.188 11.141 34.97 11.238 34.6096L11.4867 33.6855C11.5837 33.3251 11.3777 32.9456 11.0163 32.8437Z" fill="#46736C" stroke="black" stroke-width="0.4"/>
<path d="M16.1617 54.0449L16.1616 54.045C15.8477 54.3905 15.457 54.6551 15.0903 54.9035C14.9717 54.9838 14.8556 55.0625 14.7454 55.1416C14.7359 55.1484 14.7338 55.1526 14.7335 55.153C14.7333 55.1534 14.7313 55.1569 14.7309 55.1677L14.7308 55.1696C14.7285 55.2221 14.7277 55.2774 14.7268 55.337L14.7268 55.3402C14.726 55.3978 14.7251 55.4593 14.7225 55.5206C14.7174 55.6438 14.7052 55.7801 14.6665 55.9068C14.627 56.036 14.5567 56.1655 14.4294 56.2607C14.3023 56.3558 14.1403 56.4003 13.9478 56.4009L13.9473 56.4009C10.529 56.4036 7.13536 56.4029 3.76626 56.3988L3.76566 56.3988C3.58549 56.3981 3.41364 56.325 3.28714 56.1966C3.16086 56.0684 3.08984 55.8955 3.08826 55.7155L3.08827 55.7158L16.1617 54.0449ZM16.1617 54.0449C17.1001 53.0099 17.1199 51.711 16.7641 50.4405C16.529 49.6009 16.3249 48.7512 16.1518 47.8913C15.8973 46.6254 15.4089 45.5747 14.6517 44.788C13.936 44.0444 12.9917 43.5486 11.8093 43.323C13.4649 41.526 13.1021 38.6804 11.1806 37.2605L11.1805 37.2605C8.59386 35.351 4.98792 37.2732 4.93152 40.5077C4.91325 41.5562 5.25667 42.4894 5.9538 43.3C4.02678 43.6688 2.68977 44.7384 1.96925 46.503L1.96916 46.5032C1.7672 46.9996 1.61104 47.5771 1.49895 48.2336C1.38714 48.8852 1.24308 49.5343 1.06675 50.1807L1.06673 50.1808C0.834881 51.032 0.750265 51.7527 0.828305 52.3339C1.01693 53.7551 2.02175 54.4604 3.04834 55.1399L3.04922 55.1404M16.1617 54.0449L3.04922 55.1404M3.04922 55.1404C3.0729 55.1559 3.0818 55.1694 3.08229 55.204C3.08229 55.2041 3.08229 55.2041 3.08229 55.2042M3.04922 55.1404L3.08229 55.2042M11.6555 43.4766C11.6545 43.4787 11.6537 43.4804 11.6531 43.4816C11.6507 43.4863 11.649 43.4886 11.6491 43.4884C11.6492 43.4883 11.6517 43.485 11.6583 43.4784C11.6585 43.4783 11.6586 43.4781 11.6588 43.478L11.656 43.4752M11.6555 43.4766L11.576 43.3944L11.5929 43.288C11.5923 43.2877 11.5918 43.2874 11.5913 43.2871C11.5853 43.2839 11.5817 43.2828 11.5817 43.2828C11.5817 43.2828 11.5852 43.2839 11.5935 43.2852L11.5931 43.2881M11.6555 43.4766C11.6556 43.4762 11.6558 43.4757 11.656 43.4752M11.6555 43.4766L11.576 43.3944M11.656 43.4752C11.6629 43.4591 11.6739 43.4224 11.6599 43.3755C11.6439 43.3219 11.6075 43.2963 11.5931 43.2881M11.656 43.4752L11.576 43.3944M11.5931 43.2881L11.576 43.3944M11.5931 43.2881L11.576 43.3944M3.07884 47.6834C3.07305 47.7208 3.07019 47.7586 3.07032 47.7965L3.07032 47.7963L3.07884 47.6834ZM3.07884 47.6834C3.06443 47.7431 3.05068 47.8039 3.03759 47.866L3.03757 47.8661C2.77971 49.0863 2.51985 50.2828 2.25799 51.4556C2.16892 51.858 2.22242 52.2789 2.40825 52.6428L2.40838 52.643C2.54232 52.9062 2.75767 53.169 3.06308 53.4298L3.07884 47.6834ZM3.08229 55.2042L3.08826 55.7151L3.08229 55.2042ZM3.07431 53.4192C3.0743 53.4261 3.07423 53.4326 3.0741 53.439C3.07062 53.4361 3.06705 53.4332 3.0634 53.4301L3.07431 53.4192ZM3.07431 53.4192C3.07431 53.4191 3.07431 53.4191 3.07431 53.419L3.07032 47.797L3.07431 53.4192ZM3.72057 46.2203L3.72074 46.22C4.60304 45.054 5.75518 44.6507 7.21987 44.6942C8.27337 44.7256 9.31567 44.7242 10.3468 44.6901C11.1221 44.6662 11.766 44.7493 12.2846 44.9318C13.3934 45.322 14.1755 46.1973 14.5432 47.3457C14.5333 47.3342 14.5229 47.323 14.5123 47.3121C14.369 47.1655 14.1737 47.0822 13.9691 47.0822H3.77049C3.67765 47.0822 3.58584 47.101 3.50037 47.1373C3.41492 47.1737 3.33761 47.2268 3.27278 47.2934C3.20795 47.36 3.15686 47.4388 3.12221 47.5252C3.11874 47.5338 3.11544 47.5425 3.11232 47.5513C3.25843 47.0014 3.46286 46.5598 3.72057 46.2203ZM14.7311 53.4035L14.7348 48.1227C14.9476 49.0806 15.1938 50.0947 15.4733 51.165C15.6048 51.6686 15.5947 52.1234 15.4518 52.5111C15.3252 52.8546 15.0897 53.1585 14.7311 53.4035ZM10.6931 38.7241C11.1718 39.214 11.4416 39.8795 11.4416 40.5744C11.4416 41.2693 11.1718 41.9348 10.6931 42.4248C10.2145 42.9146 9.56645 43.1889 8.89169 43.1889C8.55749 43.1889 8.22644 43.1215 7.91741 42.9905C7.60837 42.8595 7.32727 42.6673 7.09027 42.4248C6.85326 42.1822 6.66501 41.894 6.5365 41.5764C6.40798 41.2589 6.34178 40.9184 6.34178 40.5744C6.34178 40.2304 6.40798 39.8899 6.5365 39.5724C6.66501 39.2549 6.85326 38.9666 7.09027 38.7241C7.32727 38.4815 7.60837 38.2893 7.91741 38.1583C8.22644 38.0273 8.55749 37.9599 8.89169 37.9599C9.56645 37.9599 10.2145 38.2342 10.6931 38.7241ZM13.3028 48.553V54.9485H4.46866V48.553H13.3028Z" fill="#46736C" stroke="black" stroke-width="0.4"/>
<path d="M66.349 56.1925C63.0146 56.2047 59.621 56.2061 56.1683 56.1966L66.3492 56.3925M66.349 56.1925L66.3489 56.3925C66.349 56.3925 66.3491 56.3925 66.3492 56.3925M66.349 56.1925C66.4643 56.1925 66.575 56.1465 66.6576 56.0642C66.7403 55.9819 66.7882 55.8699 66.7914 55.7519L66.9913 55.758L66.9913 55.7575C66.9913 55.7574 66.9913 55.7573 66.9913 55.7572L67.0092 55.1645H67.0092L67.0093 55.1618C67.0093 55.1576 67.0097 55.1549 67.01 55.1533C67.0104 55.153 67.0109 55.1526 67.0115 55.1522C67.0125 55.1514 67.0138 55.1505 67.0156 55.1494L66.9109 54.979M66.349 56.1925L66.3497 56.3925C66.3495 56.3925 66.3494 56.3925 66.3492 56.3925M66.3492 56.3925C63.0145 56.4047 59.6207 56.4061 56.1678 56.3965H56.1677C55.9731 56.396 55.8088 56.3545 55.6784 56.2646C55.5466 56.1736 55.4703 56.0476 55.4264 55.9173C55.3836 55.7904 55.3692 55.6531 55.3633 55.5267C55.3598 55.4525 55.3591 55.3689 55.3585 55.291C55.358 55.2431 55.3577 55.1974 55.3567 55.1573L55.5566 55.1523L55.3567 55.1586C55.3565 55.1523 55.3548 55.1466 55.3522 55.1419C55.3497 55.1373 55.3464 55.134 55.3432 55.1319L55.343 55.1317C55.0151 54.9158 54.7005 54.6929 54.3991 54.4629L54.399 54.4629C53.6808 53.9143 53.3057 53.2576 53.1705 52.527C53.0367 51.8042 53.1401 51.0226 53.3505 50.2211L53.3505 50.2211C53.5579 49.4316 53.7335 48.6512 53.8774 47.8798C54.0332 47.0357 54.2788 46.3261 54.6199 45.7576L54.62 45.7575C55.4628 44.3544 56.7203 43.5913 58.2583 43.3093C57.3852 42.2689 57.0586 41.1028 57.2948 39.824C57.4415 39.0294 57.7978 38.3348 58.361 37.7441C60.3301 35.6772 63.7352 36.3057 64.8284 38.977C65.446 40.4833 65.1619 42.1499 64.113 43.3144C65.8723 43.6516 67.1434 44.6012 67.9037 46.1603C68.151 46.6666 68.357 47.3546 68.526 48.2164L68.526 48.2165C68.6671 48.9383 68.8398 49.6582 69.0442 50.3762L69.0442 50.3765C69.3717 51.5334 69.3583 52.4414 68.9974 53.2134C68.6389 53.98 67.9535 54.5776 67.015 55.1497L66.9109 54.979M66.9109 54.979C66.8445 55.0198 66.8106 55.0796 66.8093 55.1585L68.8518 50.431C69.4915 52.6907 68.7641 53.8491 66.9109 54.979ZM55.6041 47.2593L55.6042 47.2592C55.6564 47.2037 55.7193 47.1591 55.7892 47.1285L55.8693 47.3118L55.7892 47.1285C55.8591 47.0979 55.9345 47.082 56.0109 47.082L66.3131 47.08H66.3131C66.4062 47.08 66.4983 47.0988 66.5841 47.1351C66.6699 47.1715 66.7475 47.2246 66.8127 47.2913C66.8217 47.3006 66.8305 47.3101 66.839 47.3199C66.7086 46.9183 66.545 46.5797 66.3505 46.3015L55.6041 47.2593ZM55.6041 47.2593C55.4315 47.4431 55.3506 47.676 55.3506 47.9406L55.6041 47.2593ZM57.7628 44.9194L57.7627 44.9195C57.0591 45.1651 56.4738 45.6043 56.0048 46.2439L56.0048 46.2439C55.7027 46.6558 55.4695 47.2214 55.3138 47.9517C55.3138 47.9517 55.3138 47.9518 55.3138 47.9519L55.1182 47.9102L57.7628 44.9194ZM57.7628 44.9194C58.2591 44.7458 58.9198 44.6686 59.7538 44.698C60.5881 44.7295 61.4657 44.7287 62.3866 44.696M57.7628 44.9194L62.3866 44.696M54.6339 52.502L54.634 52.5023C54.7244 52.7441 54.9468 53.0472 55.33 53.4127L55.3302 53.413C55.3399 53.4223 55.3491 53.4308 55.3578 53.4385C55.3584 53.4246 55.3587 53.4094 55.3586 53.393L54.6339 52.502ZM54.6339 52.502C54.5054 52.1603 54.4802 51.8128 54.5583 51.4547L54.6339 52.502ZM62.3866 44.696C63.2445 44.6658 63.9948 44.7258 64.6496 44.9621M62.3866 44.696L64.6496 44.9621M64.6496 44.9621C65.2991 45.1965 65.8653 45.6082 66.3505 46.3014L64.6496 44.9621ZM67.0096 53.4251L67.017 48.005L67.8634 50.6635L67.671 50.718C67.671 50.7181 67.671 50.7181 67.671 50.7181C67.8468 51.3379 67.9091 51.8668 67.799 52.3236C67.7021 52.7259 67.4662 53.0929 67.0096 53.4251ZM66.8224 53.6702L66.9034 53.6239L66.8224 53.6702ZM62.9933 38.7238C63.4721 39.2138 63.7418 39.8793 63.7418 40.5742C63.7418 41.2691 63.4721 41.9346 62.9933 42.4245C62.5148 42.9144 61.8667 43.1887 61.1919 43.1887C60.5172 43.1887 59.8691 42.9144 59.3905 42.4245C58.9118 41.9346 58.642 41.2691 58.642 40.5742C58.642 39.8793 58.9118 39.2138 59.3905 38.7238C59.8691 38.234 60.5172 37.9597 61.1919 37.9597C61.8667 37.9597 62.5148 38.234 62.9933 38.7238ZM65.607 48.5527V54.9483H56.7769V48.5527H65.607Z" fill="#46736C" stroke="black" stroke-width="0.4"/>
<path d="M8.90884 51.3247C9.47596 51.3247 9.92783 50.8555 9.92783 50.2865C9.92783 49.7175 9.47596 49.2482 8.90884 49.2482C8.34171 49.2482 7.88984 49.7175 7.88984 50.2865C7.88984 50.8555 8.34171 51.3247 8.90884 51.3247Z" fill="#46736C" stroke="black" stroke-width="0.4"/>
<path d="M61.1803 51.3226C61.7463 51.3226 62.1973 50.8542 62.1973 50.2864C62.1973 49.7185 61.7463 49.2502 61.1803 49.2502C60.6143 49.2502 60.1633 49.7185 60.1633 50.2864C60.1633 50.8543 60.6143 51.3226 61.1803 51.3226Z" fill="#46736C" stroke="black" stroke-width="0.4"/>
<path d="M15.1323 57.3953L15.0993 57.4248C14.8144 57.6782 14.785 58.119 15.0315 58.4093L15.6303 59.1143C15.8769 59.4046 16.3075 59.4361 16.5923 59.1827L16.6254 59.1532C16.9102 58.8998 16.9397 58.459 16.6931 58.1687L16.0944 57.4637C15.8478 57.1734 15.4172 57.1419 15.1323 57.3953Z" fill="#46736C" stroke="black" stroke-width="0.4"/>
<path d="M54.9695 57.4548L54.9367 57.4251C54.6528 57.169 54.2207 57.1974 53.9714 57.4869L53.3494 58.2089C53.1001 58.4984 53.1267 58.9407 53.4105 59.1968L53.4434 59.2265C53.7272 59.4826 54.1594 59.4542 54.4087 59.1648L55.0307 58.4427C55.28 58.1532 55.2534 57.7109 54.9695 57.4548Z" fill="#46736C" stroke="black" stroke-width="0.4"/>
<path d="M19.237 60.6727L18.5313 60.0426C18.2461 59.788 17.8141 59.8188 17.5663 60.1095L17.5375 60.1433C17.2897 60.434 17.3186 60.8762 17.6037 61.1308L18.3095 61.761C18.5947 62.0156 19.0267 61.9848 19.2744 61.6941L19.3033 61.6603C19.5511 61.3695 19.5222 60.9274 19.237 60.6727Z" fill="#46736C" stroke="black" stroke-width="0.4"/>
<path d="M51.5188 60.0725L50.8118 60.6949C50.524 60.9483 50.4921 61.3915 50.7386 61.6848L50.7697 61.7219C51.0162 62.0152 51.4492 62.0492 51.737 61.7958L52.444 61.1734C52.7319 60.9201 52.7637 60.4768 52.5173 60.1835L52.4861 60.1464C52.2396 59.8531 51.8066 59.8191 51.5188 60.0725Z" fill="#46736C" stroke="black" stroke-width="0.4"/>
<path d="M22.0689 62.7761L21.278 62.2704C20.9547 62.0636 20.532 62.1656 20.3326 62.4923L20.3114 62.5269C20.112 62.8535 20.2077 63.2871 20.531 63.4938L21.3219 63.9996C21.6452 64.2064 22.0679 64.1044 22.2673 63.7777L22.2885 63.7431C22.4879 63.4165 22.3922 62.9829 22.0689 62.7761Z" fill="#46736C" stroke="black" stroke-width="0.4"/>
<path d="M48.7616 62.2934L47.9752 62.8141C47.6562 63.0253 47.5673 63.459 47.7712 63.7817L47.795 63.8193C47.9989 64.1419 48.4219 64.2367 48.7409 64.0255L49.5273 63.5048C49.8463 63.2936 49.9352 62.8598 49.7313 62.5372L49.7075 62.4996C49.5036 62.177 49.0806 62.0821 48.7616 62.2934Z" fill="#46736C" stroke="black" stroke-width="0.4"/>
<path d="M25.1969 64.455L24.3578 64.0672C24.0102 63.9066 23.6063 64.0662 23.4523 64.4151L23.431 64.4634C23.2771 64.8123 23.4273 65.2279 23.7749 65.3886L24.614 65.7763C24.9616 65.937 25.3656 65.7774 25.5195 65.4285L25.5408 65.3802C25.6947 65.0313 25.5445 64.6156 25.1969 64.455Z" fill="#46736C" stroke="black" stroke-width="0.4"/>
<path d="M45.6912 64.0758L44.8505 64.4698C44.5028 64.6327 44.3542 65.0504 44.5104 65.3995L44.532 65.4477C44.6882 65.7969 45.0941 65.9547 45.4419 65.7918L46.2826 65.3978C46.6303 65.2349 46.7788 64.8172 46.6227 64.4681L46.6011 64.4199C46.4449 64.0707 46.039 63.9129 45.6912 64.0758Z" fill="#46736C" stroke="black" stroke-width="0.4"/>
<path d="M28.5367 65.6703L27.6234 65.3934C27.2589 65.2828 26.8824 65.4966 26.7771 65.8605L26.7624 65.9114C26.6571 66.2753 26.859 66.6644 27.2236 66.7749L28.1369 67.0518C28.5014 67.1623 28.8779 66.9486 28.9832 66.5846L28.9979 66.5338C29.1033 66.1699 28.9013 65.7808 28.5367 65.6703Z" fill="#46736C" stroke="black" stroke-width="0.4"/>
<path d="M42.4353 65.4077L41.5087 65.6815C41.1444 65.7891 40.9404 66.1756 41.0429 66.5392L41.0573 66.5901C41.1598 66.9536 41.5337 67.1695 41.898 67.0619L42.8246 66.7881C43.1889 66.6805 43.3929 66.294 43.2904 65.9304L43.276 65.8795C43.1735 65.5159 42.7996 65.3001 42.4353 65.4077Z" fill="#46736C" stroke="black" stroke-width="0.4"/>
<path d="M39.0244 66.2442L38.0916 66.3682C37.7171 66.418 37.4604 66.7668 37.5076 67.1391L37.5148 67.1958C37.562 67.5681 37.8974 67.8382 38.2719 67.7884L39.2046 67.6644C39.5791 67.6146 39.8358 67.2658 39.7886 66.8935L39.7814 66.8369C39.7342 66.4646 39.3989 66.1944 39.0244 66.2442Z" fill="#46736C" stroke="black" stroke-width="0.4"/>
<path d="M31.9655 66.3719L31.0225 66.2346C30.6497 66.1803 30.3122 66.4454 30.2607 66.816L30.2528 66.8725C30.2013 67.2431 30.4531 67.5941 30.8259 67.6484L31.7689 67.7857C32.1416 67.84 32.4791 67.5749 32.5307 67.2043L32.5385 67.1478C32.5901 66.7772 32.3382 66.4262 31.9655 66.3719Z" fill="#46736C" stroke="black" stroke-width="0.4"/>
<path d="M35.4793 66.5529L34.5667 66.5414C34.1834 66.5367 33.8767 66.8496 33.8722 67.2304L33.8715 67.2875C33.867 67.6684 34.166 67.9889 34.5494 67.9937L35.4619 68.0051C35.8452 68.0099 36.1519 67.697 36.1564 67.3161L36.1571 67.259C36.1617 66.8782 35.8626 66.5577 35.4793 66.5529Z" fill="#46736C" stroke="black" stroke-width="0.4"/>
</svg>
