<svg width="68" height="65" viewBox="0 0 68 65" fill="none" xmlns="http://www.w3.org/2000/svg">
<path d="M22.5389 56.6828C22.5379 56.6691 22.5314 56.6562 22.5209 56.6468C22.5103 56.6374 22.4964 56.6322 22.4819 56.6322C16.3067 56.6463 10.3032 56.6468 4.47148 56.6338C4.34181 56.6333 4.201 56.6299 4.04908 56.6237C2.72353 56.5687 1.65517 56.0426 0.843999 55.0455C0.0284862 54.0424 0 52.9234 0 51.6394C0.00271295 38.3698 0.00325527 25.1237 0.0016275 11.9013C0.0016275 11.6406 0.109061 11.4577 0.305207 11.2663C0.766951 10.816 1.26586 10.3379 1.80194 9.83208C4.3163 7.45913 7.50755 4.40682 11.3757 0.675155C11.6432 0.417316 11.8626 0.232107 12.0341 0.119529C12.1453 0.0463798 12.2772 0.00980534 12.4297 0.00980534C21.8675 0.0238127 31.2893 0.0206997 40.6951 0.00046688C41.4807 -0.00108949 42.1861 0.00124538 42.8112 0.00747087C43.6761 0.0162903 44.2181 0.0378203 44.4373 0.0720605C45.3917 0.219916 46.2154 0.666076 46.9083 1.41054C47.6481 2.20585 47.9313 3.08053 47.9395 4.12564C47.9563 6.28122 47.9606 8.44846 47.9525 10.6274C47.9519 10.7363 48.0089 10.7908 48.1234 10.7908C52.7609 10.7918 57.3539 10.783 61.9025 10.7643C62.5926 10.7618 63.2513 10.783 63.8786 10.8282C65.5853 10.9519 67.0299 12.1363 67.5142 13.6779C67.6981 14.2623 67.6884 15.0055 67.6884 15.6444C67.6895 30.2935 67.69 45.022 67.69 59.8298C67.69 60.5317 67.6835 61.3177 67.4865 61.9504C67.1016 63.1815 65.7717 64.4203 64.4166 64.6406C64.0183 64.7054 63.6119 64.7381 63.1974 64.7386C51.3228 64.7407 39.3617 64.7407 27.314 64.7386C26.7825 64.7378 26.2201 64.709 25.7066 64.6024C24.1911 64.2888 22.8718 62.8935 22.6472 61.4539C22.5902 61.0881 22.5715 60.692 22.5698 60.3115C22.5639 59.2195 22.5585 58.1279 22.5536 57.0369C22.553 56.9098 22.5481 56.7918 22.5389 56.6828ZM13.9378 12.7658C13.8493 12.9936 13.6562 13.1918 13.3583 13.3604C13.2281 13.434 13.065 13.473 12.8692 13.4771C12.7129 13.4807 12.5534 13.4831 12.3906 13.4841C9.02381 13.509 5.85617 13.5098 2.88766 13.4864C2.88243 13.4863 2.87722 13.4872 2.87234 13.489C2.86746 13.4909 2.863 13.4936 2.85922 13.4971C2.85544 13.5005 2.85242 13.5047 2.85032 13.5093C2.84821 13.5139 2.84708 13.5188 2.84697 13.5238C2.83937 13.8403 2.83503 14.1461 2.83395 14.4413C2.80248 24.6584 2.79841 36.0386 2.82174 48.5819C2.82418 49.9157 2.79407 51.2449 2.84616 52.5794C2.85511 52.8067 2.88848 53.0954 3.0187 53.2845C3.24415 53.6098 3.599 53.8588 4.04419 53.9063C4.29216 53.9327 4.53524 53.9459 4.77344 53.9459C10.6057 53.9506 16.508 53.9493 22.4803 53.9421C22.5308 53.9421 22.556 53.9182 22.556 53.8705C22.5717 51.6967 22.5707 49.5217 22.5528 47.3454C22.5522 47.3298 22.5519 47.3168 22.5519 47.3065C22.5511 47.2753 22.5375 47.2457 22.514 47.224C22.4906 47.2023 22.4592 47.1903 22.4266 47.1905C20.0419 47.203 17.82 47.2481 15.5167 47.1866C15.2541 47.1793 15.055 47.15 14.9193 47.0987C14.4058 46.9026 14.0965 46.3547 14.1111 45.8528C14.1323 45.1688 14.6784 44.5408 15.4231 44.5283C17.5181 44.493 19.603 44.4873 21.6778 44.5112C21.9375 44.5143 22.1963 44.4847 22.46 44.4925C22.4731 44.4928 22.4863 44.4906 22.4985 44.4861C22.5108 44.4815 22.522 44.4746 22.5315 44.4658C22.5409 44.4571 22.5485 44.4466 22.5537 44.435C22.5589 44.4234 22.5616 44.411 22.5617 44.3984C22.5693 41.4506 22.5677 38.5067 22.5568 35.5667C22.5563 35.4189 22.5519 35.2663 22.5438 35.1091C22.543 35.0936 22.5359 35.0789 22.5241 35.0682C22.5123 35.0575 22.4966 35.0515 22.4803 35.0516L17.6686 35.064C17.6581 35.0642 17.6478 35.067 17.6389 35.0724C17.6299 35.0777 17.6227 35.0852 17.6179 35.0942C17.6131 35.1032 17.611 35.1132 17.6118 35.1233C17.6125 35.1333 17.6162 35.143 17.6222 35.1512C17.68 35.2274 17.7167 35.3091 17.7891 35.3737C18.2432 35.7851 18.7001 36.2022 19.1597 36.6251C19.6081 37.0367 19.8368 37.485 19.696 38.081C19.5487 38.7005 18.979 39.1207 18.3311 39.1402C17.8037 39.1557 17.2999 38.7254 16.9557 38.3915C15.7506 37.2227 14.552 36.0757 13.3599 34.9504C13.1434 34.746 12.9709 34.5395 12.8423 34.331C12.6055 33.945 12.6527 33.4143 12.9164 33.0283C13.0395 32.8477 13.1801 32.683 13.3379 32.5341C14.5506 31.3881 15.7012 30.2834 16.7896 29.2198C17.0495 28.9661 17.329 28.7345 17.6279 28.5249C18.1448 28.1638 18.8878 28.2992 19.3167 28.7047C19.7758 29.1389 19.8954 29.8354 19.5406 30.3762C19.4044 30.5843 19.2519 30.7619 19.0832 30.9093C18.5647 31.3622 18.0544 31.8112 17.5897 32.2937C17.5833 32.3003 17.5791 32.3085 17.5776 32.3173C17.5761 32.3262 17.5773 32.3353 17.5811 32.3434C17.5849 32.3516 17.5911 32.3586 17.599 32.3634C17.6069 32.3683 17.6161 32.3708 17.6255 32.3707L22.4673 32.3622C22.4799 32.3622 22.4924 32.3598 22.504 32.3552C22.5157 32.3505 22.5263 32.3438 22.5352 32.3353C22.5441 32.3267 22.5512 32.3166 22.556 32.3055C22.5609 32.2943 22.5633 32.2824 22.5633 32.2703C22.5628 29.5166 22.5644 26.7683 22.5682 24.0254C22.5682 23.8418 22.6257 23.6887 22.7408 23.5663C23.0007 23.2882 23.2109 23.0748 23.3715 22.9259C23.9516 22.3889 24.629 21.7487 25.4038 21.0053C28.8872 17.6658 32.3788 14.3235 35.8785 10.9784C35.9474 10.9125 36.0266 10.8686 36.1161 10.8468C36.2154 10.823 36.3172 10.81 36.4214 10.8079C36.9916 10.797 37.5277 10.7895 38.0296 10.7854C40.3351 10.7672 42.685 10.7618 45.0795 10.769C45.0961 10.769 45.112 10.7628 45.1238 10.7517C45.1355 10.7406 45.1421 10.7256 45.1421 10.7099C45.147 8.51279 45.1429 6.38757 45.1299 4.33419C45.1267 3.85872 45.0974 3.55678 44.7791 3.1817C44.5458 2.90674 44.2545 2.75784 43.905 2.73502C43.5925 2.71426 43.3038 2.70389 43.0391 2.70389C33.3272 2.71375 23.7106 2.7153 14.1893 2.70856C14.1653 2.70856 14.1423 2.71766 14.1254 2.73386C14.1084 2.75006 14.0989 2.77203 14.0989 2.79494C14.1092 5.73493 14.1082 8.74936 14.0957 11.8382C14.094 12.191 14.0414 12.5002 13.9378 12.7658ZM11.1868 4.69293C10.9899 4.86414 10.832 5.06491 10.6432 5.24623C9.16028 6.66564 7.67602 8.0822 6.19041 9.4959C5.803 9.86477 5.40827 10.2048 5.029 10.5698C4.97908 10.6181 4.9373 10.6692 4.90366 10.7231C4.89844 10.7313 4.89565 10.7406 4.89556 10.7502C4.89547 10.7598 4.8981 10.7692 4.90316 10.7776C4.90822 10.7859 4.91554 10.7928 4.92435 10.7976C4.93317 10.8024 4.94316 10.8049 4.9533 10.8048C6.93322 10.7815 8.95735 10.7729 11.0257 10.7791C11.068 10.7797 11.1095 10.7856 11.1502 10.797C11.1996 10.8116 11.237 10.7986 11.2625 10.7581C11.2875 10.7192 11.2975 10.6756 11.2927 10.6274C11.2625 10.3332 11.2853 10.0367 11.287 9.73481C11.2927 8.43368 11.2959 7.14811 11.2829 5.86099C11.2785 5.47709 11.2872 5.10615 11.3089 4.74819C11.3154 4.63509 11.2747 4.61667 11.1868 4.69293ZM38.0035 24.592C37.9515 24.9429 37.7805 25.1826 37.4916 25.4145C37.3538 25.525 37.1992 25.5865 37.0277 25.5989C36.6826 25.6233 36.3508 25.6355 36.0323 25.6355C32.5451 25.6371 29.0375 25.6376 25.5096 25.6371C25.4787 25.6371 25.4491 25.6489 25.4273 25.6699C25.4055 25.6909 25.3932 25.7194 25.3932 25.7491L25.3859 32.289C25.3859 32.3025 25.3912 32.3155 25.4009 32.3254C25.4106 32.3352 25.4239 32.3411 25.438 32.3419C25.9193 32.372 26.3984 32.3855 26.8753 32.3824C29.1965 32.3694 31.3484 32.366 33.331 32.3723C33.5833 32.3733 33.8403 32.386 34.1018 32.4104C34.6349 32.4602 35.0247 32.8127 35.1875 33.2882C35.4471 34.0493 34.9531 34.9885 34.0383 35.0492C33.8598 35.0606 33.6916 35.0666 33.5337 35.0671C30.8424 35.0708 28.1414 35.0705 25.4307 35.0663C25.4186 35.0663 25.407 35.0709 25.3984 35.0791C25.3899 35.0873 25.3851 35.0984 25.3851 35.1099L25.3908 44.4155C25.3907 44.43 25.3966 44.444 25.407 44.4546C25.4175 44.4652 25.4317 44.4715 25.4469 44.4723C25.7285 44.4899 25.9998 44.4985 26.2608 44.498C27.9803 44.4975 29.6816 44.4946 31.3647 44.4894C31.4949 44.4889 31.6224 44.478 31.7472 44.4567C31.7749 44.4515 31.7806 44.4381 31.7643 44.4163C31.71 44.3436 31.6498 44.2772 31.5836 44.2171C31.1664 43.8399 30.7415 43.457 30.3091 43.0684C29.8785 42.6809 29.4911 42.1338 29.6393 41.551C29.7744 41.0179 30.248 40.5253 30.834 40.4592C31.2646 40.4102 31.604 40.544 31.9279 40.8031C32.1807 41.006 32.4208 41.2177 32.6482 41.4381C33.792 42.5478 34.9401 43.6435 36.0925 44.7252C36.2814 44.9026 36.433 45.0938 36.5475 45.2987C36.8853 45.9065 36.5101 46.6076 36.0527 47.0356C34.8796 48.1329 33.5657 49.3847 32.111 50.7912C31.6976 51.1904 31.1702 51.3982 30.5996 51.1966C30.1721 51.0456 29.8788 50.7738 29.7198 50.3811C29.4252 49.6535 29.8623 49.0722 30.3815 48.5765C30.8188 48.1593 31.2882 47.7275 31.7895 47.2808C31.8861 47.1947 31.8685 47.1576 31.7366 47.1695C31.6482 47.1773 31.5549 47.1814 31.4567 47.1819C29.6661 47.1954 27.8756 47.2009 26.085 47.1983C25.8571 47.1978 25.6355 47.203 25.4201 47.2139C25.3973 47.2149 25.3859 47.2263 25.3859 47.2481C25.3946 51.6651 25.3946 56.0193 25.3859 60.3107C25.3843 60.9123 25.46 61.4376 26.0134 61.8095C26.3039 62.0048 26.741 62.022 27.091 62.0266C27.9021 62.037 28.7131 62.0422 29.5237 62.0422C40.6191 62.0422 51.5523 62.043 62.3232 62.0445C62.7497 62.0445 63.1306 62.0375 63.4659 62.0235C63.7399 62.0116 63.9567 61.9672 64.1162 61.8905C64.4475 61.7309 64.7966 61.3457 64.8243 60.9629C64.8645 60.4124 64.8845 59.8106 64.8845 59.1575C64.8873 45.0334 64.8843 30.9093 64.8756 16.7852C64.8756 16.1787 64.8726 15.5502 64.8666 14.8996C64.8618 14.3518 64.6434 13.9539 64.2115 13.7059C64.0237 13.598 63.7462 13.5334 63.3789 13.5121C62.6048 13.467 61.8243 13.4942 61.0617 13.4942C55.3054 13.4942 49.2826 13.5018 42.9935 13.5168C41.373 13.5207 39.7331 13.4958 38.1354 13.5152C38.0963 13.5152 38.0768 13.5339 38.0768 13.5713C38.0714 16.7271 38.0711 19.893 38.076 23.069C38.0771 23.7492 38.0529 24.2568 38.0035 24.592ZM27.5761 22.7251C27.5381 22.7697 27.5147 22.8084 27.5061 22.841C27.4876 22.9121 27.5166 22.9469 27.5931 22.9453C29.9181 22.9126 32.2437 22.9051 34.5698 22.9227C34.7835 22.9248 34.9811 22.9321 35.1623 22.9445C35.1745 22.9454 35.1867 22.9439 35.1982 22.94C35.2098 22.9362 35.2203 22.9301 35.2293 22.9222C35.2382 22.9143 35.2453 22.9048 35.2502 22.8942C35.2551 22.8835 35.2575 22.8721 35.2575 22.8605C35.2586 20.6193 35.2613 18.4713 35.2656 16.4163C35.2662 16.1128 35.2754 15.7977 35.2933 15.4708C35.2938 15.4612 35.2914 15.4517 35.2864 15.4434C35.2814 15.435 35.2741 15.4282 35.2652 15.4237C35.2563 15.4192 35.2463 15.4173 35.2363 15.418C35.2263 15.4188 35.2167 15.4223 35.2087 15.428C35.0581 15.537 34.9564 15.6942 34.8286 15.8202C33.7486 16.8972 32.4927 18.0311 31.3403 19.1563C30.1515 20.3179 28.9268 21.4761 27.6664 22.6309C27.6344 22.6605 27.6043 22.6919 27.5761 22.7251Z" fill="#46736C"/>
<path d="M27.5754 22.7252C27.6036 22.692 27.6337 22.6606 27.6657 22.631C28.9261 21.4762 30.1508 20.318 31.3396 19.1564C32.4921 18.0312 33.7479 16.8973 34.8279 15.8203C34.9557 15.6943 35.0574 15.5371 35.208 15.4281C35.216 15.4224 35.2256 15.4189 35.2356 15.4181C35.2456 15.4174 35.2556 15.4193 35.2645 15.4238C35.2734 15.4283 35.2808 15.4351 35.2857 15.4435C35.2907 15.4518 35.2931 15.4613 35.2926 15.4709C35.2747 15.7978 35.2655 16.1129 35.265 16.4164C35.2606 18.4714 35.2579 20.6194 35.2568 22.8606C35.2569 22.8722 35.2544 22.8836 35.2495 22.8943C35.2447 22.9049 35.2375 22.9144 35.2286 22.9223C35.2197 22.9302 35.2091 22.9363 35.1976 22.9401C35.186 22.944 35.1738 22.9455 35.1616 22.9446C34.9804 22.9322 34.7829 22.9249 34.5691 22.9228C32.243 22.9052 29.9175 22.9127 27.5925 22.9454C27.516 22.947 27.4869 22.9122 27.5054 22.8411C27.5141 22.8085 27.5374 22.7698 27.5754 22.7252Z" fill="white"/>
</svg>
