<svg width="540" height="561" viewBox="0 0 540 561" fill="none" xmlns="http://www.w3.org/2000/svg">
<path d="M439.999 299.028L454.174 299.341L461.368 299.466C463.772 299.519 466.188 299.508 468.598 299.528L469.078 299.531L469.08 299.028L469.138 286.472L469.141 285.909L468.598 285.911L454.299 285.982C449.533 285.988 444.766 286.109 440 286.166L439.702 286.169L439.705 286.472C439.726 288.603 439.798 290.721 439.847 292.816L439.999 299.028ZM439.999 299.028L440.152 292.684C440.201 290.594 440.273 288.527 440.294 286.472L439.999 286.779C444.765 286.836 449.532 286.957 454.298 286.963L468.597 287.033L468.058 286.474L468.117 299.029L468.598 298.528C466.242 298.549 463.892 298.537 461.529 298.59L454.423 298.716L439.999 299.028Z" fill="#EBEBEB"/>
<path d="M455.952 314.859L470.127 315.172L477.321 315.298C479.725 315.35 482.141 315.339 484.552 315.359L485.031 315.364L485.033 314.86L485.092 302.305L485.094 301.742L484.552 301.744L470.252 301.815C465.486 301.82 460.719 301.94 455.953 301.999L455.655 302.002L455.658 302.305C455.679 304.436 455.751 306.554 455.8 308.649L455.952 314.859ZM455.952 314.859L456.105 308.515C456.154 306.425 456.226 304.358 456.247 302.304L455.952 302.61C460.718 302.667 465.485 302.789 470.251 302.794L484.551 302.865L484.012 302.305L484.07 314.86L484.552 314.36C482.195 314.38 479.845 314.369 477.482 314.421L470.377 314.547L455.952 314.859Z" fill="#EBEBEB"/>
<path d="M234.817 210.478L248.992 210.791L256.186 210.917C258.59 210.97 261.006 210.96 263.417 210.979L263.896 210.982L263.899 210.478L263.957 197.923L263.959 197.36L263.417 197.362L249.118 197.433C244.352 197.438 239.584 197.558 234.818 197.617L234.52 197.62L234.524 197.923C234.544 200.054 234.616 202.172 234.665 204.267L234.817 210.478ZM234.817 210.478L234.971 204.135C235.019 202.044 235.092 199.977 235.112 197.923L234.817 198.229C239.583 198.287 244.351 198.408 249.117 198.413L263.416 198.484L262.877 197.924L262.935 210.479L263.417 209.98C261.06 210 258.71 209.989 256.347 210.042L249.242 210.168L234.817 210.478Z" fill="#EBEBEB"/>
<path d="M250.772 226.309L264.947 226.622L272.141 226.748C274.545 226.8 276.961 226.79 279.372 226.809L279.851 226.813L279.854 226.309L279.912 213.754L279.914 213.19L279.372 213.193L265.073 213.263C260.307 213.269 255.54 213.389 250.773 213.447L250.475 213.451L250.479 213.754C250.499 215.884 250.572 218.003 250.62 220.097L250.772 226.309ZM250.772 226.309L250.926 219.965C250.974 217.875 251.047 215.808 251.067 213.754L250.772 214.06C255.538 214.117 260.306 214.238 265.072 214.244L279.371 214.315L278.832 213.755L278.89 226.31L279.372 225.81C277.015 225.829 274.665 225.819 272.302 225.871L265.197 225.997L250.772 226.309Z" fill="#EBEBEB"/>
<path d="M266.663 210.478L280.838 210.791L288.032 210.917C290.436 210.97 292.852 210.96 295.263 210.979L295.742 210.982L295.744 210.478L295.803 197.923L295.805 197.36L295.263 197.362L280.963 197.433C276.197 197.438 271.43 197.558 266.664 197.617L266.366 197.62L266.369 197.923C266.39 200.054 266.462 202.172 266.511 204.267L266.663 210.478ZM266.663 210.478L266.816 204.135C266.865 202.044 266.937 199.977 266.958 197.923L266.663 198.229C271.429 198.287 276.196 198.408 280.962 198.413L295.261 198.484L294.723 197.924L294.781 210.479L295.263 209.98C292.906 210 290.556 209.989 288.193 210.042L281.088 210.168L266.663 210.478Z" fill="#EBEBEB"/>
<path d="M55.4482 314.859L69.6232 315.172L76.8171 315.298C79.2212 315.35 81.6371 315.339 84.0477 315.359L84.5272 315.364L84.5294 314.86L84.5877 302.305L84.5898 301.742L84.0477 301.744L69.7485 301.815C64.9824 301.82 60.2153 301.94 55.4493 301.999L55.1512 302.002L55.1544 302.305C55.175 304.436 55.2473 306.554 55.2959 308.649L55.4482 314.859ZM55.4482 314.859L55.6016 308.515C55.6502 306.425 55.7225 304.358 55.7431 302.304L55.4482 302.61C60.2142 302.667 64.9813 302.789 69.7474 302.794L84.0466 302.865L83.5077 302.305L83.566 314.86L84.0477 314.36C81.6911 314.38 79.341 314.369 76.978 314.421L69.8727 314.547L55.4482 314.859Z" fill="#EBEBEB"/>
<path d="M71.4013 63.86L85.5763 64.173L92.7702 64.2987C95.1743 64.3514 97.5902 64.3402 100.001 64.3604L100.48 64.3649L100.482 63.8611L100.541 51.3059L100.543 50.7427L100.001 50.7449L85.7016 50.8156C80.9356 50.8212 76.1685 50.9413 71.4024 50.9996L71.1043 51.003L71.1076 51.3059C71.1281 53.4366 71.2004 55.5549 71.249 57.6497L71.4013 63.86ZM71.4013 63.86L71.5547 57.5162C71.6033 55.4259 71.6756 53.3592 71.6961 51.3048L71.4013 51.6111C76.1674 51.6683 80.9345 51.7895 85.7005 51.7951L99.9997 51.8658L99.4608 51.3059L99.5191 63.8611L100.001 63.3607C97.6442 63.3809 95.2942 63.3697 92.9311 63.4224L85.8258 63.5481L71.4013 63.86Z" fill="#EBEBEB"/>
<path d="M55.4482 79.6901L69.6232 80.0031L76.8171 80.1288C79.2212 80.1815 81.6371 80.1703 84.0477 80.1905L84.5272 80.195L84.5294 79.6912L84.5877 67.136L84.5898 66.5728L84.0477 66.575L69.7485 66.6457C64.9824 66.6513 60.2153 66.7713 55.4493 66.8297L55.1512 66.8331L55.1544 67.136C55.175 69.2667 55.2473 71.385 55.2959 73.4798L55.4482 79.6901ZM55.4482 79.6901L55.6016 73.3463C55.6502 71.256 55.7225 69.1893 55.7431 67.1349L55.4482 67.4412C60.2142 67.4984 64.9813 67.6196 69.7474 67.6252L84.0466 67.6959L83.5077 67.136L83.566 79.6912L84.0477 79.1908C81.6911 79.211 79.341 79.1997 76.978 79.2525L69.8727 79.3781L55.4482 79.6901Z" fill="#EBEBEB"/>
<path d="M439.999 63.86L454.174 64.173L461.368 64.2987C463.772 64.3514 466.188 64.3402 468.598 64.3604L469.078 64.3649L469.08 63.8611L469.138 51.3059L469.141 50.7427L468.598 50.7449L454.299 50.8156C449.533 50.8212 444.766 50.9413 440 50.9996L439.702 51.003L439.705 51.3059C439.726 53.4366 439.798 55.5549 439.847 57.6497L439.999 63.86ZM439.999 63.86L440.152 57.5162C440.201 55.4259 440.273 53.3592 440.294 51.3048L439.999 51.6111C444.765 51.6683 449.532 51.7895 454.298 51.7951L468.597 51.8658L468.058 51.3059L468.117 63.8611L468.598 63.3607C466.242 63.3809 463.892 63.3697 461.529 63.4224L454.423 63.5481L439.999 63.86Z" fill="#EBEBEB"/>
<path d="M287.882 106.972H352.477V188.372H287.882V106.972Z" fill="#DBDBDB"/>
<path d="M295.262 114.4H345.096V180.942H295.262V114.4Z" fill="white"/>
<path d="M343.151 114.4H345.096V180.942H343.151V114.4Z" fill="#C7C7C7"/>
<path d="M285.937 106.972H287.881V188.372H285.937V106.972Z" fill="#C7C7C7"/>
<path d="M316.646 129.788H328.396V166.156H316.646V129.788Z" fill="#DBDBDB"/>
<path d="M302.192 123.575H333.523V141.394H302.192V123.575Z" stroke="#EBEBEB" stroke-miterlimit="10"/>
<path d="M383.366 73.7012H447.961V155.101H383.366V73.7012Z" fill="#DBDBDB"/>
<path d="M390.747 81.1299H440.58V147.671H390.747V81.1299Z" fill="white"/>
<path d="M438.636 81.1299H440.58V147.671H438.636V81.1299Z" fill="#C7C7C7"/>
<path d="M381.42 73.7012H383.365V155.101H381.42V73.7012Z" fill="#C7C7C7"/>
<path d="M410.422 98.3315H420.488V124.774H410.422V98.3315Z" fill="#EBEBEB"/>
<path d="M399.821 114.4H426.863V132.628H399.821V114.4Z" stroke="#DBDBDB" stroke-miterlimit="10"/>
<path d="M43.1613 53.7856H213.49V289.773H43.1613V53.7856Z" fill="#DBDBDB"/>
<path d="M131.767 63.2388H205.418V168.204H131.767V63.2388Z" fill="white"/>
<path d="M51.2342 63.2388H124.885V168.204H51.2342V63.2388Z" fill="white"/>
<path d="M131.767 175.354H205.418V280.32H131.767V175.354Z" fill="white"/>
<path d="M51.2342 175.354H124.885V280.32H51.2342V175.354Z" fill="white"/>
<path d="M178.402 53.7856H213.49V351.379H178.402V53.7856Z" fill="#EBEBEB"/>
<path d="M185.055 69.8369L184.784 106.341L184.686 142.845L184.5 215.854L184.685 288.863L184.783 301.353L185.055 321.847L185.327 301.353L185.426 288.863L185.611 215.854L185.424 142.845L185.326 106.341L185.055 69.8369Z" fill="white"/>
<path d="M201.168 78.3013L200.896 110.896L200.741 143.492L200.611 208.682L200.739 273.873L200.894 290.458L201.168 315.049L201.44 290.458L201.595 273.873L201.723 208.682L201.593 143.492L201.438 110.896L201.168 78.3013Z" fill="white"/>
<path d="M193.112 85.9971L192.842 124.164L192.743 162.33L192.557 238.663L192.741 298.987L192.84 313.139L193.112 351.305L193.385 313.139L193.482 298.987L193.668 238.663L193.481 162.33L193.383 124.164L193.112 85.9971Z" fill="white"/>
<path d="M207.16 71.7612L206.889 111.707L206.79 151.653L206.604 231.545L206.789 295.429L206.886 327.37L207.16 351.305L207.432 327.37L207.53 295.429L207.715 231.545L207.529 151.653L207.43 111.707L207.16 71.7612Z" fill="white"/>
<path d="M78.2483 351.379H43.1602L43.1602 53.7852H78.2483L78.2483 351.379Z" fill="#EBEBEB"/>
<path d="M71.5961 69.8369L71.325 106.341L71.2268 142.845L71.041 215.854L71.2257 288.863L71.324 301.353L71.5961 321.847L71.8683 301.353L71.9666 288.863L72.1523 215.854L71.9655 142.845L71.8672 106.341L71.5961 69.8369Z" fill="white"/>
<path d="M55.4848 78.3013L55.2137 110.896L55.0582 143.492L54.9275 208.682L55.056 273.873L55.2116 290.458L55.4848 315.049L55.757 290.458L55.9125 273.873L56.041 208.682L55.9103 143.492L55.7548 110.896L55.4848 78.3013Z" fill="white"/>
<path d="M63.5406 85.9971L63.2695 124.164L63.1712 162.33L62.9844 238.663L63.1701 298.987L63.2684 313.139L63.5406 351.305L63.8128 313.139L63.911 298.987L64.0957 238.663L63.9099 162.33L63.8117 124.164L63.5406 85.9971Z" fill="white"/>
<path d="M49.4926 71.7612L49.2226 111.707L49.1243 151.653L48.9375 231.545L49.1233 295.429L49.2205 327.37L49.4926 351.305L49.7659 327.37L49.8631 295.429L50.0488 231.545L49.862 151.653L49.7637 111.707L49.4926 71.7612Z" fill="white"/>
<path d="M388.162 386.554H435.97L463.334 244.834L419.559 223.94L388.162 386.554Z" fill="#37474F"/>
<path d="M259.114 386.554H388.161L419.559 223.94H290.512L259.114 386.554Z" fill="#455A64"/>
<path d="M412.706 310.517H485.977V466.702H412.706V310.517Z" fill="#37474F"/>
<path d="M235.003 466.702H243.967L273.795 310.517H235.003V466.702Z" fill="#37474F"/>
<path d="M372.448 310.517H412.707V466.702H372.448V310.517Z" fill="#455A64"/>
<path d="M194.745 310.517H235.004V466.702H194.745V310.517Z" fill="#455A64"/>
<path d="M235.003 386.554H372.447V466.703H235.003V386.554Z" fill="#455A64"/>
<path d="M235.003 351.904H372.447V386.879H235.003V351.904Z" fill="#455A64"/>
<path d="M402.842 310.517L387.645 310.235L372.448 310.039L371.992 310.033L371.987 310.518L371.817 328.795L371.754 347.074C371.706 359.259 371.671 371.445 371.737 383.63C371.773 395.815 371.792 408 371.938 420.186C372.036 432.371 372.199 444.557 372.447 456.741C372.696 444.555 372.859 432.371 372.957 420.186C373.103 408 373.121 395.815 373.158 383.63C373.225 371.445 373.189 359.259 373.141 347.074L373.078 328.795L372.907 310.518L372.446 310.997L387.643 310.801L402.842 310.517Z" fill="#263238"/>
<path d="M235.004 310.517C234.69 322.748 234.543 334.977 234.423 347.208L234.245 383.9L234.42 420.592L234.632 438.937L235.004 457.283L235.376 438.937L235.588 420.592L235.762 383.9L235.585 347.208C235.464 334.977 235.317 322.746 235.004 310.517Z" fill="#263238"/>
<path d="M235.002 386.554C248.027 386.879 249.996 387.032 263.02 387.157L302.092 387.341L333.373 387.161L352.909 386.941L372.445 386.554L352.909 386.167L333.373 385.947L302.092 385.766L263.02 385.95C249.996 386.076 248.026 386.228 235.002 386.554Z" fill="#263238"/>
<path d="M235.002 351.904C248.027 352.229 249.996 352.382 263.02 352.509L302.092 352.693L333.373 352.512L352.909 352.292L372.445 351.905L352.909 351.519L333.373 351.299L302.092 351.119L263.02 351.303C249.996 351.426 248.026 351.579 235.002 351.904Z" fill="#263238"/>
<path d="M458.132 466.7L459.123 479.353L461.437 508.59H472.047L474.36 479.353L475.352 466.7H458.132Z" fill="#C7C7C7"/>
<path d="M475.352 466.7H458.132L459.123 479.353H474.36L475.352 466.7Z" fill="#A6A6A6"/>
<path d="M383.968 466.7L384.959 479.353L387.273 508.59H397.883L400.196 479.353L401.188 466.7H383.968Z" fill="#C7C7C7"/>
<path d="M401.188 466.7H383.968L384.959 479.353H400.196L401.188 466.7Z" fill="#A6A6A6"/>
<path d="M279.801 466.7L280.793 479.353L283.106 508.59H293.715L296.028 479.353L297.02 466.7H279.801Z" fill="#C7C7C7"/>
<path d="M297.02 466.7H279.801L280.793 479.353H296.028L297.02 466.7Z" fill="#A6A6A6"/>
<path d="M205.618 466.7L206.61 479.353L208.923 508.59H219.533L221.846 479.353L222.838 466.7H205.618Z" fill="#C7C7C7"/>
<path d="M205.618 466.7L206.61 479.353H221.846L222.838 466.7H205.618Z" fill="#A6A6A6"/>
<path d="M485.977 508.633L431.983 508.36L377.988 508.262L270 508.073L162.012 508.261L108.018 508.358L54.0241 508.633L108.018 508.908L162.012 509.007L270 509.193L377.988 509.006L431.983 508.906L485.977 508.633Z" fill="#263238"/>
<path d="M257.731 507.51C260.698 507.092 335.33 468.403 337.223 465.145C337.455 464.768 334.242 457.689 329.67 448.057C319.352 426.256 298.708 389.394 298.708 389.394L253.776 415.629L278.516 464.299C278.516 464.299 270.212 474.74 263.475 483.602C263.468 483.619 263.457 483.625 263.462 483.636C259.315 489.087 255.753 493.94 255.098 495.391C253.395 499.183 254.77 507.94 257.731 507.51Z" fill="#D3766A"/>
<path d="M257.733 507.507C260.703 507.09 335.329 468.404 337.222 465.149C337.461 464.771 334.239 457.688 329.677 448.052C326.055 440.409 321.167 430.917 316.354 421.814L269.09 445.747L278.515 464.303C278.515 464.303 270.218 474.745 263.475 483.6C263.475 483.626 263.462 483.626 263.462 483.64C259.314 489.082 255.754 493.939 255.102 495.398C253.396 499.187 254.775 507.938 257.733 507.507Z" fill="#EBEBEB"/>
<path d="M256.881 509.485C259.958 508.996 335.121 468.862 337.057 465.449C337.951 463.874 330.404 446.91 322.076 429.196L273.108 455.157L277.864 464.199C277.864 464.199 255.702 492.937 253.967 496.917C252.245 500.889 253.803 509.975 256.881 509.485Z" fill="#46736C"/>
<path d="M256.412 505.786C268.853 498.738 319.67 471.526 332.483 465.54C332.587 465.492 332.623 465.564 332.523 465.623C320.34 472.889 269.311 499.673 256.517 506.002C256.248 506.135 256.15 505.936 256.412 505.786Z" fill="#263238"/>
<path d="M274.648 462.24C279.131 458.632 285.586 456.184 291.19 457.831C291.407 457.895 291.316 458.215 291.13 458.247C285.446 459.258 280.368 460.668 274.99 462.88C274.61 463.036 274.327 462.498 274.648 462.24Z" fill="#263238"/>
<path d="M272.179 466.392C276.661 462.783 283.116 460.336 288.721 461.982C288.938 462.046 288.848 462.366 288.661 462.4C282.977 463.409 277.9 464.821 272.52 467.032C272.141 467.188 271.858 466.65 272.179 466.392Z" fill="#263238"/>
<path d="M269.709 470.543C274.191 466.934 280.646 464.487 286.251 466.134C286.468 466.198 286.377 466.517 286.191 466.55C280.507 467.56 275.43 468.971 270.051 471.183C269.671 471.34 269.387 470.802 269.709 470.543Z" fill="#263238"/>
<path d="M267.238 474.694C271.721 471.086 278.176 468.639 283.78 470.285C283.997 470.349 283.906 470.668 283.719 470.701C278.035 471.712 272.958 473.123 267.58 475.334C267.2 475.491 266.917 474.954 267.238 474.694Z" fill="#263238"/>
<path d="M259.599 455.218C260.168 451.39 264.417 450.706 267.38 451.409C272.18 452.545 277.375 455.549 280.853 459.13C280.939 459.219 280.903 459.32 280.828 459.378C281.008 459.778 280.875 460.373 280.369 460.437C275.496 461.048 270.359 462.329 265.45 461.368C262.585 460.807 259.061 458.839 259.599 455.218ZM272.799 459.793C275.203 459.553 277.58 459.192 279.993 459.045C277.361 457.546 274.804 455.937 272.029 454.715C270.703 454.132 269.333 453.558 267.942 453.169C265.778 452.562 258.469 452.714 262.139 457.898C264.162 460.756 269.933 460.08 272.799 459.793Z" fill="#263238"/>
<path d="M292.79 451.056C289.598 455.048 284.855 457.464 280.726 460.222C280.298 460.508 279.83 460.137 279.723 459.71C279.629 459.714 279.539 459.661 279.551 459.535C280.033 454.472 282.19 448.717 285.19 444.661C287.042 442.157 290.734 439.869 293.522 442.44C296.159 444.876 294.653 448.726 292.79 451.056ZM293.211 446.189C292.855 439.763 287.133 444.489 285.839 446.391C285.007 447.613 284.302 448.963 283.64 450.29C282.252 453.07 281.27 456.003 280.162 458.901C282.111 457.417 284.164 456.12 286.164 454.713C288.545 453.033 293.406 449.731 293.211 446.189Z" fill="#263238"/>
<path d="M267.275 455.732L321.466 427.297C321.466 427.297 281.979 350.588 283.023 349.18C286.665 344.298 330.643 346.521 349.637 326.905C369.75 306.139 353.979 273.77 353.979 273.77H301.435C301.435 273.77 302.323 291.391 300.06 293.327C298.569 294.619 221.313 302.361 218.289 323.538C213.056 360.204 267.275 455.732 267.275 455.732Z" fill="#263238"/>
<path d="M265.142 446.949C271.403 443.016 277.818 439.4 284.258 435.793C290.691 432.189 297.173 428.672 303.722 425.302C307.415 423.403 311.189 421.68 314.887 419.792C315.004 419.733 315.101 419.913 314.984 419.977C311.742 421.787 308.592 423.771 305.358 425.596C302.172 427.396 298.98 429.184 295.776 430.948C289.317 434.505 282.82 437.982 276.343 441.502C272.691 443.485 268.994 445.359 265.273 447.199C265.114 447.278 264.99 447.044 265.142 446.949Z" fill="#37474F"/>
<path d="M262.328 340.202C263.617 337.43 267.049 337.021 269.604 336.358C276.589 334.545 283.575 332.733 290.562 330.935C302.942 327.75 315.702 324.743 326.794 317.931C332.093 314.677 337.237 310.561 339.884 304.624C342.476 298.812 342.526 292.356 342.568 286.083C342.577 284.532 342.488 282.983 342.392 281.436C342.383 281.3 342.586 281.306 342.595 281.442C342.981 287.618 343.589 293.799 342.257 299.912C341.615 302.858 340.537 305.717 338.925 308.241C337.298 310.786 335.189 312.956 332.882 314.836C323.071 322.83 310.766 326.657 298.869 329.814C292.142 331.599 285.393 333.295 278.651 335.01C275.181 335.893 271.711 336.776 268.241 337.659C266.779 338.031 265.123 338.334 263.965 339.413C262.892 340.414 262.584 341.889 262.679 343.333C262.776 344.813 263.23 346.258 263.736 347.635C264.358 349.332 265.019 351.013 265.676 352.696C266.958 355.982 268.276 359.251 269.627 362.506C272.348 369.066 275.178 375.581 278.109 382.043C283.952 394.929 290.193 407.617 296.561 420.23C297.353 421.8 298.123 423.385 298.901 424.963C298.949 425.06 298.81 425.139 298.759 425.045C291.943 412.575 285.571 399.822 279.507 386.94C273.49 374.155 267.76 361.165 262.89 347.856C262.031 345.504 261.208 342.611 262.328 340.202Z" fill="#37474F"/>
<path d="M237.692 396.333L290.271 365.472C285.771 356.215 282.726 349.587 283.026 349.183C286.661 344.3 330.641 346.527 349.643 326.904C369.747 306.135 353.979 273.765 353.979 273.765H301.438C301.438 273.765 302.328 291.395 300.059 293.322C298.567 294.624 221.31 302.359 218.289 323.544C215.884 340.381 226.011 369.626 237.692 396.333Z" fill="#37474F"/>
<path d="M140.955 507.342C143.799 508.313 227.203 507.394 230.275 505.324C230.643 505.091 230.671 486.525 230.671 486.525C235.178 462.305 239.85 422.977 239.85 422.977L184.149 422.903L177.827 477.912C177.827 477.912 165.967 483.532 156.18 488.445C156.167 488.457 156.155 488.457 156.154 488.47C150.13 491.49 144.885 494.239 143.686 495.245C140.558 497.884 138.111 506.383 140.955 507.342Z" fill="#D3766A"/>
<path d="M140.961 507.341C143.794 508.317 227.206 507.392 230.276 505.322C230.64 505.088 230.665 486.52 230.665 486.52C232.295 477.795 233.936 467.118 235.377 457.027H180.229L177.823 477.913C177.823 477.913 165.965 483.537 156.177 488.447C156.164 488.461 156.152 488.461 156.152 488.473C150.124 491.494 144.885 494.241 143.682 495.244C140.561 497.887 138.116 506.39 140.961 507.341Z" fill="#EBEBEB"/>
<path d="M139.798 508.096C142.756 509.103 227.264 508.581 230.476 506.445C231.471 505.785 232.087 497.177 232.468 485.636C232.656 479.958 234.257 473.572 234.348 467.072L177.903 467.247L178.212 477.546C178.212 477.546 145.943 492.781 142.664 495.516C139.402 498.252 136.84 507.088 139.798 508.096Z" fill="#46736C"/>
<path d="M140.99 504.576C155.154 504.127 212.323 503.704 226.357 504.379C226.472 504.384 226.472 504.465 226.357 504.472C212.328 505.235 155.157 505.176 140.991 504.817C140.692 504.809 140.691 504.586 140.99 504.576Z" fill="#263238"/>
<path d="M176.197 474.288C181.765 473.172 188.588 474.02 192.871 478.119C193.037 478.279 192.818 478.521 192.636 478.463C187.126 476.695 181.983 475.571 176.223 475.019C175.816 474.98 175.798 474.368 176.197 474.288Z" fill="#263238"/>
<path d="M172.189 476.833C177.757 475.717 184.58 476.564 188.863 480.664C189.029 480.824 188.809 481.066 188.628 481.008C183.117 479.24 177.976 478.116 172.214 477.564C171.809 477.525 171.789 476.912 172.189 476.833Z" fill="#263238"/>
<path d="M168.177 479.376C173.746 478.26 180.569 479.106 184.851 483.206C185.018 483.366 184.797 483.608 184.617 483.55C179.107 481.782 173.964 480.658 168.203 480.106C167.798 480.069 167.779 479.457 168.177 479.376Z" fill="#263238"/>
<path d="M164.168 481.92C169.737 480.805 176.56 481.652 180.843 485.752C181.01 485.911 180.789 486.154 180.609 486.095C175.099 484.329 169.957 483.204 164.195 482.652C163.789 482.613 163.77 482 164.168 481.92Z" fill="#263238"/>
<path d="M165.824 460.958C167.997 457.811 172.084 459.194 174.422 461.213C178.21 464.479 181.538 469.598 183.084 474.426C183.122 474.545 183.045 474.618 182.954 474.635C182.94 475.076 182.562 475.544 182.084 475.365C177.471 473.622 172.33 472.353 168.37 469.193C166.058 467.346 163.77 463.936 165.824 460.958ZM175.61 471.236C177.859 472.15 180.138 472.943 182.354 473.944C180.657 471.372 179.077 468.737 177.132 466.343C176.204 465.201 175.23 464.046 174.159 463.045C172.491 461.488 165.906 458.191 166.925 464.54C167.487 468.04 172.93 470.146 175.61 471.236Z" fill="#263238"/>
<path d="M197.244 472.826C192.662 474.889 187.378 474.818 182.496 475.34C181.989 475.394 181.733 474.843 181.823 474.413C181.737 474.373 181.681 474.283 181.746 474.177C184.378 469.886 188.806 465.764 193.245 463.555C195.987 462.19 200.276 461.883 201.644 465.486C202.938 468.894 199.919 471.622 197.244 472.826ZM199.737 468.681C202.214 462.782 195.054 464.312 193.072 465.4C191.799 466.099 190.583 466.973 189.415 467.846C186.968 469.675 184.817 471.83 182.568 473.896C184.952 473.487 187.348 473.294 189.743 472.976C192.598 472.598 198.372 471.933 199.737 468.681Z" fill="#263238"/>
<path d="M175.971 464.166L238.93 463.687C238.93 463.687 251.059 367.019 256.168 361.337C258.754 358.457 341.846 358.082 362.22 337.909C382.753 317.578 362.22 273.771 362.22 273.771H308.607C308.607 273.771 307.277 290.96 311.379 301.484C311.379 301.484 236.41 302.741 215.974 319.427C188.566 341.807 175.971 464.166 175.971 464.166Z" fill="#263238"/>
<path d="M181.108 453.737C188.405 453.183 195.701 452.983 203.016 452.802C210.322 452.622 217.634 452.542 224.943 452.624C229.063 452.671 233.179 452.915 237.299 452.974C237.429 452.976 237.437 453.183 237.306 453.185C233.626 453.27 229.953 453.554 226.273 453.657C222.648 453.759 219.022 453.849 215.397 453.912C208.088 454.038 200.779 454.076 193.471 454.16C189.35 454.207 185.237 454.135 181.117 454.022C180.94 454.018 180.931 453.75 181.108 453.737Z" fill="#37474F"/>
<path d="M334.92 281.896C334.997 282.155 335.096 282.403 335.22 282.641C335.247 282.697 335.224 282.743 335.189 282.77C335.896 285.048 336.188 287.476 336.868 289.76C337.608 292.243 338.868 294.304 340.942 295.8C345.097 298.797 350.1 300.156 354.936 301.403C355.092 301.443 355.041 301.678 354.892 301.682C352.144 301.764 349.26 301.189 346.637 300.369C344.21 299.61 341.697 298.523 339.678 296.903C337.659 295.282 336.341 293.222 335.689 290.658C335.354 289.343 335.186 287.984 334.993 286.641C334.773 285.11 334.497 283.494 334.508 281.943C334.511 281.695 334.861 281.66 334.92 281.896Z" fill="#37474F"/>
<path d="M301.578 297.657C304.885 298.489 308.101 300.086 311.216 301.482C311.267 301.504 311.317 301.529 311.368 301.551C311.293 301.358 311.254 301.145 311.223 300.944C311.186 300.703 311.148 300.463 311.111 300.223C311.072 299.972 311.055 299.717 311.031 299.464C311.019 299.336 311.007 299.208 310.994 299.08C310.993 299.066 310.991 299.051 310.99 299.036C310.238 298.993 309.484 298.639 308.92 297.934C308.204 297.038 307.913 295.885 307.632 294.783C307.269 293.359 306.937 291.925 306.636 290.486C306.301 288.885 306.019 287.272 305.774 285.653C305.534 284.074 305.247 282.461 305.245 280.858C305.245 280.6 305.614 280.562 305.675 280.809C306.036 282.283 306.198 283.81 306.468 285.305C306.738 286.806 307.048 288.298 307.375 289.787C307.702 291.277 308.063 292.758 308.457 294.231C308.806 295.536 309.163 297.439 310.623 297.871C313.631 298.76 312.281 291.741 312.149 290.369C311.843 287.191 311.655 283.948 311.119 280.801C311.096 280.668 311.287 280.616 311.317 280.749C311.969 283.643 312.719 286.486 313.213 289.42C313.455 290.855 313.631 292.307 313.78 293.755C313.906 294.981 314.062 296.344 313.505 297.487C313.063 298.393 312.317 298.891 311.516 299.014C311.547 299.124 311.579 299.233 311.611 299.342C311.679 299.574 311.753 299.805 311.808 300.042C311.862 300.279 311.916 300.514 311.969 300.751C312.029 301.013 312.147 301.355 312.067 301.617C312.043 301.699 311.984 301.759 311.918 301.806C313.205 302.385 314.49 302.964 315.762 303.576C317.292 304.313 318.983 304.936 320.386 305.911C320.557 305.994 320.42 306.244 320.257 306.207C318.602 305.839 316.991 305.015 315.411 304.386C313.802 303.747 312.211 303.065 310.619 302.379C307.55 301.059 304.271 299.788 301.453 297.944C301.304 297.845 301.412 297.615 301.578 297.657Z" fill="#37474F"/>
<path d="M363.361 299.936C362.794 294.447 361.679 289.019 360.092 283.747C359.681 282.384 359.244 281.027 358.783 279.681C358.737 279.55 358.536 279.61 358.58 279.744C360.273 285.034 361.453 290.509 362.158 296.031C362.839 301.37 363.267 306.855 362.646 312.222C362.074 317.161 360.533 321.838 357.702 325.895C355.152 329.547 351.79 332.563 348.107 334.957C339.427 340.602 329.114 342.651 319.188 344.656C308.271 346.861 297.308 348.837 286.319 350.618C273.963 352.622 249.716 354.006 248.643 356.272C246.578 360.638 243.316 380.999 241.212 393.475C239.12 405.884 237.685 415.726 236.395 428.25C235.663 435.359 235.021 442.479 234.627 449.617C234.601 450.078 235.276 450.044 235.317 449.599C236.473 436.974 237.426 427.009 239.126 414.447C240.808 402.018 242.845 389.638 245.244 377.337C246.578 370.498 249.095 358.403 249.893 357.268C251.131 355.507 271.914 353.961 283.033 352.18C294.277 350.379 305.491 348.37 316.666 346.148C326.879 344.119 337.511 342.298 346.694 336.985C354.618 332.4 361.072 325.193 363.011 315.862C364.096 310.641 363.906 305.213 363.361 299.936Z" fill="#37474F"/>
<path d="M286.386 357.8C284.217 357.741 259.084 360.164 254.801 361.052C254.497 361.115 246.866 405.309 246.125 413.454C246.027 414.53 246.425 415.519 246.727 413.453C247.309 409.448 256.107 362.207 256.12 362.18C260.412 361.669 284.32 358.496 286.435 358.111C286.611 358.078 286.549 357.805 286.386 357.8Z" fill="#37474F"/>
<path d="M309.285 301.373C295.119 301.585 279.269 303.126 265.226 304.997C258.709 305.864 252.191 306.857 245.727 308.087C239.968 309.183 234.22 310.545 228.721 312.663C225.709 313.823 222.781 315.189 220.019 316.9C217.247 318.619 214.787 320.773 212.42 323.04C212.319 323.136 212.471 323.279 212.573 323.19C216.945 319.387 222.419 316.673 227.72 314.576C233.109 312.444 238.731 311.005 244.387 309.88C250.705 308.623 257.086 307.71 263.457 306.8C270.35 305.816 277.253 304.959 284.172 304.203C291.974 303.352 301.49 302.662 309.296 301.852C309.589 301.823 309.587 301.368 309.285 301.373Z" fill="#37474F"/>
<path d="M301.133 160.267C301.133 160.267 311.314 151.829 322.355 156.519C333.396 161.209 340.75 176.274 341.222 189.921C341.695 203.569 353.607 210.532 356.362 220.247C359.117 229.961 353.601 235.653 352.35 241.227C350.916 247.608 364.022 267.064 340.28 276.305C310.589 287.86 295.638 270.324 296.115 253.554C296.349 245.34 299.727 238.937 298.596 232.525C297.465 226.112 292.255 221.762 293.203 213.212C294.152 204.661 297.353 205.234 296.506 192.22C295.659 179.207 290.621 164.362 301.133 160.267Z" fill="#263238"/>
<path d="M320.183 156.589C327.567 159.916 333.562 165.345 337.664 172.166C339.741 175.622 341.273 179.387 342.164 183.317C343.332 188.475 343.363 193.492 346.058 198.223C350.376 205.8 357.464 211.506 358.657 220.582C359.207 224.769 358.612 229.079 356.893 233.012C354.907 237.559 351.655 241.444 350.151 246.204C350.088 246.4 349.792 246.29 349.848 246.096C351.063 241.886 353.58 238.391 355.508 234.477C357.816 229.791 358.697 224.549 357.723 219.485C356.083 210.946 349.104 205.391 345.068 198.057C343.241 194.737 342.6 191.32 342.105 187.592C341.517 183.183 340.364 178.964 338.4 174.965C334.527 167.08 328.003 160.83 320.116 156.712C320.043 156.675 320.109 156.556 320.183 156.589Z" fill="#263238"/>
<path d="M349.044 251.768C349.082 251.761 349.092 251.819 349.054 251.825C349.015 251.832 349.006 251.775 349.044 251.768Z" fill="#263238"/>
<path d="M295.851 251.238C295.996 247.267 297.358 243.446 297.502 239.489C297.676 234.721 295.807 230.334 294.223 225.964C291.962 219.73 291.102 213.617 292.849 207.061C293.977 202.823 295.536 198.769 296.175 194.406C296.866 189.682 296.899 184.846 296.251 180.136C296.237 180.033 296.394 180.006 296.412 180.109C297.59 187.012 297.416 193.777 295.539 200.601C294.461 204.523 292.934 208.295 292.612 212.378C292.225 217.287 293.419 221.75 294.982 226.328C296.023 229.377 297.182 232.452 297.681 235.658C298.2 238.994 297.672 242.123 297.047 245.433C295.429 254.007 296.825 262.252 301.163 269.738C301.237 269.867 301.017 270.007 300.937 269.88C297.444 264.313 295.608 257.877 295.851 251.238Z" fill="#263238"/>
<path d="M357 218.955C355.571 211.936 350.045 207.973 346.165 202.354C343.234 198.108 340.948 193.427 340.833 188.199C340.831 188.114 340.979 188.108 340.988 188.192C341.827 195.642 345.905 201.809 350.85 207.296C354.138 210.945 356.948 214.514 357.782 219.458C358.598 224.299 357.401 228.712 355.401 233.191C353.975 236.384 352.548 239.378 352.299 242.899C352.052 246.398 352.808 249.899 353.523 253.283C353.561 253.46 353.281 253.505 353.238 253.333C351.921 248.119 351.007 242.997 352.78 237.71C354.959 231.214 358.452 226.088 357 218.955Z" fill="#263238"/>
<path d="M293.852 246.431C294.481 243.823 295.558 241.357 296.643 238.895C298.595 234.462 298.501 231.16 296.863 226.595C296.825 226.49 296.975 226.418 297.027 226.519C298.911 230.184 299.735 233.362 298.103 237.333C295.825 242.875 293.538 247.962 293.876 254.039C294.477 264.822 301.848 273.677 312.052 277.387C312.197 277.439 312.112 277.651 311.965 277.607C303.481 274.982 296.806 268.706 294.265 260.361C292.901 255.882 292.743 251.034 293.852 246.431Z" fill="#263238"/>
<path d="M321.184 222.6C318.488 243.97 310.022 277.666 299.465 278.711C289.827 279.664 258.836 270.743 249.228 265.976C239.56 261.18 256.719 233.667 262.722 235.671C271.78 238.694 292.163 246.457 294.111 245.551C296.538 244.422 299.05 237.622 311.372 216.999C316.41 208.562 322.331 213.503 321.184 222.6Z" fill="#D3766A"/>
<path d="M250.305 266.175C246.716 265.614 230.486 261.541 226.214 259.357C221.941 257.174 210.085 249.965 211.362 246.396C212.64 242.827 216.273 244.649 216.273 244.649C216.273 244.649 211.731 240.782 213.331 237.311C214.933 233.841 220.496 236.868 220.496 236.868C220.496 236.868 216.109 232.543 217.945 229.199C219.78 225.856 224.883 229.873 224.883 229.873C224.883 229.873 220.695 226.112 223.322 224.02C226.482 221.501 233.45 229.34 238.341 231.384C239.451 231.848 261.496 239.121 261.496 239.121L250.305 266.175Z" fill="#D3766A"/>
<path d="M224.436 229.537C229.573 235.289 232.778 236.883 239.963 238.866C240.104 238.904 240.08 239.131 239.93 239.104C232.724 237.826 228.426 236.43 224.155 229.78C223.947 229.456 224.192 229.264 224.436 229.537Z" fill="#263238"/>
<path d="M220.093 236.402C225.931 241.892 229.392 243.653 236.771 246.306C236.875 246.345 236.825 246.532 236.717 246.503C229.269 244.529 225.012 243.034 219.873 236.753C219.641 236.468 219.827 236.151 220.093 236.402Z" fill="#263238"/>
<path d="M216.652 244.771C222.673 249.662 226.389 251.762 233.87 253.383C234.046 253.421 234.009 253.692 233.829 253.671C226.045 252.789 221.39 250.205 216.529 244.976C216.197 244.62 216.274 244.464 216.652 244.771Z" fill="#263238"/>
<path d="M266.012 240.048C266.012 240.048 260.215 232.276 256.944 229.446C253.673 226.615 237.745 220.728 236.326 224.23C234.493 228.75 243.043 234.032 247.557 236.049C247.557 236.049 243.308 246.504 248.655 251.673C254.002 256.841 266.012 240.048 266.012 240.048Z" fill="#D3766A"/>
<path d="M236.215 225.643C237.407 231.018 243.496 233.27 247.733 235.567C248.054 235.742 248.033 236.073 247.856 236.302C246.357 240.806 245.505 247.616 248.357 251.682C248.44 251.801 248.289 251.94 248.189 251.832C244.561 247.902 244.872 241.142 246.818 236.316C242.437 234.031 236.426 231.494 236.164 225.65C236.164 225.619 236.208 225.609 236.215 225.643Z" fill="#263238"/>
<path d="M266.663 236.177L252.954 272.047C252.954 272.047 292.55 283.36 301.001 279.442C309.451 275.524 319.893 247.899 322.891 224.372C325.889 200.845 313.3 211.179 308.805 218.862C304.311 226.546 294.668 244.22 294.023 244.077C293.378 243.933 266.663 236.177 266.663 236.177Z" fill="#46736C"/>
<path d="M288.511 270.852C288.854 270.817 289.098 270.725 289.341 270.565C289.805 270.243 290.082 269.727 290.059 269.164C290.07 268.291 290.633 267.464 291.397 267.188C291.75 267.039 292.193 267.061 292.514 267.119C292.856 267.188 293.188 267.223 293.52 267.326C293.189 267.429 292.857 267.464 292.514 267.532C292.149 267.578 291.916 267.659 291.663 267.808C291.187 268.107 290.888 268.635 290.9 269.164C290.911 270.014 290.381 270.875 289.64 271.173C289.275 271.346 288.844 271.346 288.512 271.276C288.181 271.207 287.838 271.162 287.506 271.07C287.836 270.967 288.18 270.933 288.511 270.852ZM257.105 269.853C257.447 269.818 257.702 269.726 257.945 269.565C258.409 269.232 258.675 268.727 258.663 268.153C258.674 267.291 259.238 266.464 259.99 266.2C260.365 266.04 260.808 266.051 261.106 266.12C261.449 266.188 261.78 266.234 262.124 266.326C261.781 266.429 261.45 266.464 261.106 266.533C260.764 266.579 260.509 266.647 260.266 266.809C259.802 267.096 259.493 267.635 259.504 268.175C259.514 269.002 258.984 269.864 258.232 270.162C257.878 270.335 257.447 270.346 257.105 270.277C256.773 270.208 256.442 270.162 256.099 270.07C256.442 269.968 256.773 269.933 257.105 269.853ZM267.44 242.658C267.783 242.612 268.038 242.52 268.281 242.359C268.734 242.037 269.011 241.521 268.988 240.958C268.999 240.085 269.563 239.258 270.325 238.994C270.69 238.834 271.132 238.856 271.442 238.913C271.784 238.982 272.116 239.028 272.459 239.132C272.117 239.224 271.785 239.259 271.442 239.327C271.089 239.373 270.845 239.454 270.602 239.603C270.126 239.902 269.816 240.43 269.827 240.97C269.849 241.808 269.319 242.67 268.567 242.968C268.202 243.141 267.771 243.141 267.439 243.072C267.108 243.003 266.765 242.968 266.434 242.865C266.767 242.761 267.109 242.726 267.44 242.658ZM311.173 261.618C311.515 261.572 311.77 261.48 312.002 261.32C312.467 260.998 312.743 260.482 312.721 259.918C312.731 259.045 313.295 258.219 314.059 257.955C314.213 257.886 314.368 257.852 314.534 257.84C314.434 258.105 314.335 258.369 314.236 258.633C313.816 258.931 313.55 259.425 313.562 259.931C313.562 260.15 313.528 260.367 313.473 260.574C313.462 260.596 313.462 260.608 313.451 260.631C313.406 260.734 313.362 260.837 313.329 260.941C313.318 260.952 313.318 260.964 313.307 260.975C313.086 261.412 312.732 261.756 312.3 261.929C311.935 262.102 311.504 262.102 311.173 262.032C310.841 261.964 310.499 261.929 310.167 261.826C310.499 261.721 310.841 261.688 311.173 261.618ZM274.129 256.726C274.195 256.371 274.239 256.026 274.339 255.681C274.428 256.025 274.472 256.369 274.538 256.726C274.572 257.106 274.648 257.347 274.792 257.61C275.079 258.104 275.588 258.415 276.107 258.403C276.914 258.391 277.744 258.931 278.031 259.712C278.185 260.091 278.197 260.539 278.141 260.883C278.075 261.228 278.031 261.583 277.932 261.928C277.843 261.583 277.799 261.228 277.733 260.883C277.689 260.528 277.6 260.274 277.446 260.022C277.136 259.539 276.639 259.252 276.097 259.275C275.256 259.264 274.471 258.679 274.207 257.885C274.051 257.518 274.074 257.047 274.129 256.726ZM313.793 237.983C313.859 237.639 313.903 237.283 313.992 236.939C314.091 237.283 314.135 237.639 314.202 237.983C314.236 238.363 314.312 238.604 314.456 238.867C314.743 239.361 315.252 239.671 315.772 239.66C316.567 239.66 317.408 240.199 317.695 240.98C317.849 241.348 317.861 241.796 317.805 242.14C317.727 242.485 317.695 242.84 317.596 243.186C317.507 242.842 317.463 242.486 317.397 242.14C317.353 241.796 317.264 241.532 317.11 241.279C316.8 240.796 316.303 240.509 315.75 240.532C314.92 240.521 314.136 239.936 313.871 239.155C313.715 238.775 313.726 238.305 313.793 237.983ZM310.653 216.151C310.841 216.278 311.018 216.415 311.206 216.542C311.472 216.761 311.715 216.886 311.992 216.944C312.544 217.058 313.075 216.898 313.451 216.472C314.048 215.875 315.009 215.703 315.728 216.071C316.093 216.22 316.402 216.564 316.579 216.84C316.767 217.128 316.977 217.415 317.143 217.724C316.845 217.552 316.579 217.334 316.292 217.128C316.016 216.898 315.795 216.783 315.507 216.702C314.977 216.564 314.402 216.714 314.037 217.104C313.484 217.701 312.511 217.931 311.782 217.586C311.417 217.437 311.096 217.126 310.908 216.84C310.786 216.656 310.665 216.473 310.555 216.289C310.477 216.175 310.411 216.072 310.345 215.945C310.455 216.013 310.554 216.083 310.653 216.151ZM290.976 248.871C291.241 249.09 291.484 249.204 291.761 249.273C292.314 249.387 292.855 249.216 293.22 248.814C293.817 248.205 294.778 248.033 295.509 248.389C295.863 248.549 296.172 248.894 296.349 249.17C296.537 249.468 296.746 249.744 296.923 250.065C296.613 249.87 296.349 249.663 296.062 249.468C295.785 249.227 295.553 249.1 295.276 249.032C294.746 248.894 294.17 249.043 293.806 249.433C293.254 250.03 292.292 250.26 291.551 249.916C291.186 249.767 290.866 249.456 290.678 249.17C290.501 248.871 290.291 248.595 290.114 248.274C290.424 248.457 290.678 248.664 290.976 248.871Z" fill="white"/>
<path opacity="0.1" d="M271.619 276.732C283.109 279.293 296.495 281.528 300.995 279.438C309.449 275.523 319.893 247.904 322.893 224.369C324.371 212.819 322.079 209.424 318.835 209.895L271.619 276.732Z" fill="black"/>
<path d="M262.881 266.363C263.289 265.138 263.708 263.917 264.13 262.697C264.976 260.256 270.076 245.753 272.307 241.216C272.366 241.094 272.542 241.184 272.512 241.309C271.283 246.268 265.866 260.587 264.96 262.948C264.496 264.156 264.03 265.363 263.552 266.566C263.072 267.777 262.457 268.924 261.983 270.135C261.937 270.254 261.752 270.204 261.795 270.078C262.206 268.859 262.474 267.587 262.881 266.363Z" fill="#263238"/>
<path d="M297.261 290.387L370.266 292.465C370.266 292.465 351.705 230.46 336.689 213.723C329.856 206.107 323.16 207.254 317.478 212.131C316.06 213.35 298.468 236.448 296.966 244.508C295.639 251.631 301.197 259.553 301.197 259.553L297.261 290.387Z" fill="#46736C"/>
<path d="M343.828 282.75C344.094 282.98 344.337 283.094 344.613 283.152C345.166 283.266 345.707 283.094 346.083 282.692C346.68 282.083 347.631 281.911 348.361 282.279C348.714 282.439 349.024 282.772 349.201 283.048C349.389 283.347 349.6 283.623 349.776 283.944C349.466 283.76 349.201 283.542 348.914 283.347C348.637 283.117 348.405 282.979 348.14 282.91C347.597 282.772 347.023 282.933 346.658 283.312C346.105 283.909 345.144 284.139 344.403 283.794C344.038 283.645 343.729 283.334 343.541 283.06C343.353 282.75 343.143 282.474 342.966 282.164C343.276 282.337 343.541 282.555 343.828 282.75ZM306.132 277.019C306.408 277.249 306.641 277.363 306.917 277.432C307.47 277.546 308.011 277.374 308.399 276.973C308.984 276.352 309.936 276.192 310.665 276.547C311.03 276.708 311.328 277.052 311.505 277.328C311.693 277.627 311.914 277.903 312.079 278.212C311.771 278.028 311.505 277.822 311.228 277.627C310.941 277.386 310.72 277.259 310.443 277.179C309.901 277.052 309.338 277.202 308.961 277.592C308.408 278.189 307.458 278.408 306.717 278.074C306.341 277.925 306.043 277.616 305.843 277.328C305.656 277.03 305.446 276.743 305.28 276.433C305.58 276.617 305.856 276.823 306.132 277.019ZM333.062 253.419C333.327 253.636 333.56 253.752 333.847 253.82C334.389 253.935 334.941 253.763 335.317 253.361C335.914 252.741 336.864 252.58 337.594 252.936C337.948 253.097 338.258 253.441 338.435 253.717C338.623 254.015 338.832 254.291 339.009 254.601C338.699 254.417 338.435 254.211 338.147 254.015C337.86 253.774 337.639 253.647 337.362 253.579C336.82 253.441 336.256 253.601 335.892 253.981C335.339 254.578 334.378 254.796 333.637 254.463C333.272 254.314 332.963 254.004 332.775 253.717C332.588 253.419 332.366 253.143 332.201 252.822C332.509 253.006 332.774 253.212 333.062 253.419ZM314.357 215.956C314.811 215.829 315.308 215.853 315.728 216.071C316.093 216.22 316.402 216.564 316.579 216.84C316.767 217.127 316.976 217.415 317.142 217.724C316.844 217.552 316.579 217.334 316.291 217.127C316.015 216.897 315.795 216.783 315.506 216.702C314.976 216.564 314.401 216.713 314.036 217.104C313.783 217.38 313.439 217.575 313.074 217.667C313.528 217.058 313.959 216.485 314.357 215.956ZM327.8 270.186C327.878 269.83 327.91 269.486 327.999 269.129C328.098 269.484 328.142 269.829 328.209 270.186C328.253 270.553 328.319 270.806 328.463 271.07C328.75 271.564 329.259 271.873 329.778 271.862C330.585 271.851 331.415 272.39 331.702 273.171C331.868 273.551 331.879 273.998 331.801 274.343C331.735 274.687 331.691 275.043 331.603 275.388C331.503 275.044 331.47 274.688 331.392 274.343C331.358 273.987 331.282 273.722 331.126 273.481C330.806 272.999 330.308 272.711 329.767 272.735C328.926 272.724 328.141 272.138 327.877 271.346C327.722 270.978 327.733 270.508 327.8 270.186ZM347.764 237.983C347.841 237.639 347.874 237.283 347.973 236.939C348.062 237.283 348.106 237.639 348.172 237.983C348.216 238.362 348.282 238.615 348.438 238.879C348.725 239.361 349.223 239.671 349.742 239.659C350.549 239.659 351.389 240.199 351.666 240.98C351.832 241.348 351.832 241.796 351.776 242.14C351.71 242.496 351.666 242.84 351.577 243.186C351.478 242.841 351.434 242.497 351.367 242.14C351.322 241.796 351.234 241.532 351.09 241.291C350.78 240.797 350.283 240.521 349.73 240.532C348.901 240.521 348.105 239.935 347.84 239.155C347.687 238.775 347.709 238.316 347.764 237.983ZM313.793 237.983C313.859 237.639 313.904 237.283 313.992 236.939C314.091 237.283 314.136 237.639 314.203 237.983C314.236 238.362 314.313 238.604 314.456 238.867C314.744 239.361 315.252 239.671 315.772 239.659C316.568 239.659 317.408 240.199 317.695 240.98C317.85 241.348 317.862 241.796 317.806 242.14C317.728 242.485 317.695 242.84 317.596 243.186C317.507 242.841 317.463 242.486 317.397 242.14C317.353 241.796 317.264 241.532 317.11 241.278C316.8 240.796 316.303 240.509 315.75 240.532C314.921 240.521 314.137 239.935 313.871 239.155C313.716 238.775 313.726 238.305 313.793 237.983ZM349.566 266.143C349.909 266.097 350.163 266.005 350.406 265.845C350.871 265.523 351.137 265.018 351.125 264.432C351.125 263.57 351.688 262.756 352.451 262.48C352.816 262.319 353.258 262.331 353.578 262.399C353.91 262.469 354.242 262.513 354.584 262.605C354.242 262.709 353.91 262.755 353.578 262.823C353.224 262.858 352.97 262.938 352.727 263.087C352.252 263.385 351.953 263.914 351.953 264.453C351.976 265.28 351.455 266.153 350.693 266.452C350.339 266.612 349.897 266.624 349.565 266.566C349.234 266.485 348.902 266.452 348.559 266.347C348.903 266.259 349.235 266.213 349.566 266.143ZM311.173 261.618C311.516 261.572 311.771 261.48 312.003 261.32C312.467 260.998 312.744 260.482 312.721 259.918C312.732 259.045 313.295 258.218 314.059 257.955C314.424 257.794 314.866 257.817 315.176 257.874C315.518 257.942 315.85 257.988 316.193 258.092C315.851 258.184 315.519 258.218 315.176 258.287C314.823 258.333 314.579 258.414 314.325 258.563C313.86 258.861 313.551 259.39 313.562 259.93C313.573 260.768 313.054 261.629 312.302 261.928C311.937 262.101 311.506 262.101 311.174 262.031C310.843 261.963 310.5 261.928 310.169 261.825C310.499 261.721 310.842 261.688 311.173 261.618ZM325.036 289.721C325.401 289.56 325.843 289.572 326.153 289.64C326.495 289.709 326.827 289.754 327.17 289.847C326.828 289.95 326.496 289.985 326.153 290.053C325.799 290.099 325.556 290.167 325.302 290.329C324.992 290.524 324.749 290.823 324.628 291.167L323.788 291.144C323.952 290.491 324.428 289.927 325.036 289.721ZM362.488 292.03C362.953 291.708 363.229 291.192 363.218 290.617C363.218 289.756 363.782 288.941 364.545 288.665C364.91 288.505 365.351 288.516 365.672 288.584C366.004 288.653 366.335 288.699 366.678 288.791C366.335 288.894 366.004 288.94 365.672 289.008C365.307 289.043 365.064 289.123 364.81 289.272C364.346 289.57 364.048 290.099 364.048 290.639C364.059 291.236 363.782 291.867 363.341 292.27L362.059 292.235C362.224 292.19 362.357 292.122 362.488 292.03ZM333.537 230.611C333.879 230.576 334.122 230.484 334.366 230.323C334.831 230.001 335.096 229.485 335.096 228.911C335.096 228.049 335.66 227.234 336.423 226.958C336.776 226.798 337.219 226.809 337.539 226.879C337.871 226.947 338.213 226.993 338.545 227.085C338.213 227.188 337.871 227.234 337.539 227.304C337.185 227.35 336.931 227.418 336.688 227.568C336.213 227.866 335.914 228.395 335.926 228.934C335.937 229.761 335.417 230.634 334.665 230.921C334.312 231.094 333.859 231.105 333.538 231.036C333.196 230.967 332.864 230.921 332.532 230.829C332.862 230.725 333.194 230.679 333.537 230.611Z" fill="white"/>
<path d="M310.529 256.314C313.663 256.678 316.807 257.154 319.859 257.996C321.378 258.415 322.867 258.904 324.354 259.428C325.096 259.689 325.84 259.924 326.591 260.155C327.361 260.392 328.187 260.615 328.994 260.649C329.066 260.652 329.064 260.764 328.992 260.765C328.206 260.781 327.456 260.793 326.674 260.699C325.931 260.611 325.192 260.439 324.467 260.246C322.923 259.836 321.399 259.352 319.859 258.926C316.753 258.067 313.648 257.209 310.489 256.584C310.342 256.554 310.381 256.296 310.529 256.314Z" fill="#263238"/>
<path d="M302.726 259.14C305.309 258.889 307.942 258.765 310.535 258.821C311.839 258.849 313.132 258.956 314.43 259.098C315.05 259.166 315.668 259.246 316.285 259.333C316.964 259.429 317.631 259.62 318.311 259.705C318.382 259.714 318.381 259.83 318.307 259.822C317.664 259.761 317.008 259.811 316.362 259.789C315.713 259.768 315.064 259.74 314.415 259.717C313.115 259.673 311.817 259.643 310.516 259.585C307.915 259.469 305.324 259.383 302.721 259.361C302.579 259.361 302.592 259.152 302.726 259.14Z" fill="#263238"/>
<path d="M328.443 209.746C328.482 211.118 324.687 221.139 318.933 222.428C317.058 222.844 314.413 212.314 314.413 212.314L314.047 211.584L308.927 201.348L319.137 189.757L320.638 188.182C320.638 188.182 321.86 191.079 323.349 194.701C323.419 194.868 323.488 195.036 323.56 195.217C323.65 195.42 323.736 195.61 323.811 195.803C324.04 196.34 324.271 196.891 324.491 197.445C324.66 197.866 324.826 198.273 324.988 198.722C325.162 199.168 325.321 199.603 325.495 200.048C327.115 204.476 328.419 209.165 328.443 209.746Z" fill="#D3766A"/>
<path d="M323.35 194.7C322.559 204.186 316.802 209.551 314.048 211.583L308.928 201.347L319.138 189.756L320.639 188.181C320.639 188.181 321.861 191.078 323.35 194.7Z" fill="#263238"/>
<path d="M289.805 188.652C292.903 208.639 304.776 208.968 308.924 208.269C312.689 207.634 325.433 204.977 324.338 184.765C323.244 164.552 313.32 159.731 304.634 160.709C295.948 161.686 286.705 168.665 289.805 188.652Z" fill="#D3766A"/>
<path d="M293.866 186.111C294.285 185.931 294.642 185.695 295.04 185.474C295.487 185.224 295.869 185.073 296.118 184.586C296.252 184.325 296.123 183.912 295.892 183.754C295.352 183.385 294.731 183.548 294.18 183.827C293.582 184.128 293.196 184.519 292.916 185.144C292.643 185.75 293.313 186.347 293.866 186.111Z" fill="#263238"/>
<path d="M306.364 183.296C305.917 183.37 305.493 183.361 305.043 183.387C304.536 183.416 304.135 183.493 303.678 183.212C303.434 183.061 303.336 182.64 303.455 182.379C303.73 181.772 304.343 181.577 304.953 181.515C305.614 181.449 306.141 181.575 306.691 181.956C307.226 182.327 306.955 183.198 306.364 183.296Z" fill="#263238"/>
<path d="M304.805 187.839C304.803 187.786 304.919 187.875 304.931 187.929C305.214 189.254 305.753 190.721 307.006 190.853C307.045 190.857 307.057 190.923 307.014 190.929C305.566 191.096 304.869 189.142 304.805 187.839Z" fill="#263238"/>
<path d="M305.597 186.167C307.592 185.466 308.795 189.662 306.947 190.312C305.129 190.95 303.925 186.754 305.597 186.167Z" fill="#263238"/>
<path d="M306.455 186.144C306.876 186.271 307.341 186.584 307.779 186.496C308.285 186.394 308.532 185.839 308.731 185.318C308.753 185.264 308.797 185.29 308.815 185.345C309.056 186.145 308.995 187.061 308.2 187.438C307.474 187.782 306.727 187.239 306.302 186.489C306.224 186.351 306.285 186.092 306.455 186.144Z" fill="#263238"/>
<path d="M297.331 189.64C297.308 189.593 297.25 189.731 297.266 189.784C297.663 191.076 297.908 192.626 296.891 193.395C296.86 193.419 296.881 193.483 296.921 193.465C298.253 192.852 297.907 190.798 297.331 189.64Z" fill="#263238"/>
<path d="M295.836 188.61C293.773 189.049 294.768 193.302 296.68 192.897C298.56 192.497 297.565 188.242 295.836 188.61Z" fill="#263238"/>
<path d="M295.048 189.105C294.777 189.412 294.552 189.902 294.172 190.027C293.732 190.171 293.293 189.794 292.903 189.426C292.863 189.387 292.838 189.431 292.85 189.487C293.019 190.306 293.476 191.087 294.264 191.054C294.983 191.023 295.324 190.198 295.32 189.34C295.321 189.182 295.157 188.981 295.048 189.105Z" fill="#263238"/>
<path d="M307.39 197.545C307.196 197.952 307.039 198.471 306.605 198.672C306.188 198.865 305.618 198.845 305.172 198.829C305.128 198.827 305.103 198.884 305.141 198.914C305.626 199.29 306.402 199.355 306.939 199.044C307.463 198.741 307.572 198.14 307.529 197.561C307.522 197.48 307.418 197.487 307.39 197.545Z" fill="#263238"/>
<path d="M305.706 195.144C305.23 196.422 304.323 197.258 303.254 197.72C302.777 197.93 302.258 198.059 301.736 198.121C301.635 198.14 301.532 198.15 301.437 198.149C301.343 198.157 301.259 198.163 301.154 198.163C301.004 198.172 300.899 198.065 300.845 197.927L300.844 197.918C300.836 197.869 300.829 197.831 300.829 197.782C300.829 197.782 300.829 197.782 300.827 197.773L300.806 197.659C300.582 196.663 300.374 195.122 300.374 195.122C300.059 195.38 298.432 196.603 298.356 196.073C297.747 191.693 297.071 186.822 297.356 182.33C297.358 182.181 297.574 182.169 297.59 182.314C298.335 186.5 298.367 190.793 299.05 195.009C299.579 194.662 300.43 194.043 300.935 193.946C301.08 193.957 301.285 196.933 301.421 197.371C301.421 197.371 301.424 197.39 301.438 197.417C303.099 197.286 304.218 196.517 305.565 195.053C305.645 194.958 305.762 195.024 305.706 195.144Z" fill="#263238"/>
<path d="M324.841 186.849C320.612 187.685 318.475 177.576 318.475 177.576C318.475 177.576 311.077 177.678 307.149 173.209C307.149 173.209 309.966 177.201 313.109 178.427C313.637 178.634 298.859 180.144 295.256 168.773C295.256 168.773 295.333 180.729 289.179 184.475C288.885 184.653 288.135 173.791 289.791 170.884C291.445 167.977 293.218 166.263 293.218 166.263C293.218 166.263 298.461 159.443 307.618 158.934C316.776 158.424 324.48 167.02 325.93 170.907C328.777 178.553 326.849 186.453 324.841 186.849Z" fill="#263238"/>
<path d="M312.696 178.776C304.729 180.075 297.426 176.101 295.141 167.761C295.083 167.553 294.776 167.623 294.79 167.834C295.37 176.658 305.431 181.101 312.796 178.909C312.975 178.856 312.884 178.746 312.696 178.776Z" fill="#263238"/>
<path d="M324.733 186.384C320.01 184.975 318.464 180.6 317.262 176.08C317.227 175.947 317.006 175.988 317.031 176.129C317.827 180.642 319.665 185.992 324.651 186.795C324.907 186.835 324.98 186.457 324.733 186.384Z" fill="#263238"/>
<path d="M294.849 167.036C294.833 166.986 294.766 167.004 294.766 167.054C294.717 172.008 296.059 180.069 290.495 182.49C290.349 182.554 290.423 182.786 290.575 182.736C296.114 180.91 296.405 171.822 294.849 167.036Z" fill="#263238"/>
<path d="M308.811 194.251C311.378 193.45 313.204 190.915 313.084 188.007C312.943 184.568 310.136 181.89 306.826 182.037C303.515 182.183 300.939 185.099 301.079 188.538C301.22 191.976 304.027 194.654 307.338 194.508C307.848 194.486 308.342 194.398 308.811 194.251ZM305.584 183.094C305.99 182.967 306.417 182.891 306.859 182.871C309.727 182.744 312.158 185.064 312.282 188.042C312.403 191.02 310.169 193.55 307.303 193.674C304.436 193.801 302.005 191.481 301.88 188.502C301.779 185.984 303.359 183.788 305.584 183.094Z" fill="#46736C"/>
<path d="M295.221 196.67C297.422 195.982 298.742 193.017 298.198 189.81C297.922 188.192 297.219 186.747 296.216 185.743C295.18 184.703 293.948 184.252 292.747 184.473C291.541 184.692 290.537 185.556 289.907 186.902C289.298 188.204 289.113 189.81 289.389 191.428C289.966 194.817 292.411 197.211 294.839 196.765C294.969 196.741 295.096 196.709 295.221 196.67ZM292.589 185.368C292.687 185.338 292.786 185.313 292.886 185.295C293.827 185.123 294.811 185.495 295.659 186.343C296.539 187.227 297.16 188.51 297.407 189.955C297.906 192.891 296.699 195.578 294.699 195.943C292.707 196.309 290.68 194.217 290.179 191.283C289.933 189.837 290.092 188.411 290.629 187.267C291.089 186.285 291.777 185.622 292.589 185.368Z" fill="#46736C"/>
<path d="M301.399 189.214L301.801 188.491C300.77 187.874 298.517 187.202 297.346 189.073L298.019 189.528C299.065 187.849 301.304 189.159 301.399 189.214Z" fill="#46736C"/>
<path d="M326.897 186.394L327.535 185.888C327.307 185.579 325.262 182.867 323.445 182.894C321.747 182.923 312.452 185.464 312.009 185.59L312.223 186.395C315.211 185.538 322.145 183.747 323.456 183.729C324.656 183.71 326.346 185.645 326.897 186.394Z" fill="#46736C"/>
<path d="M325.517 192.127C325.233 192.331 324.964 192.48 324.698 192.59C324.39 192.735 324.093 192.812 323.813 192.847C323.378 192.916 322.982 192.872 322.635 192.765C322.318 192.679 322.026 192.534 321.783 192.379C321.151 191.971 320.799 191.464 320.799 191.464L320.576 185.946C320.576 185.946 323.223 178.74 326.263 179.573C329.316 180.402 328.367 190.094 325.517 192.127Z" fill="#D3766A"/>
<path d="M325.928 182.338C325.978 182.32 326.005 182.391 325.966 182.421C323.987 183.924 323.34 186.349 323.061 188.763C323.511 187.744 324.291 187.047 325.579 187.572C325.646 187.599 325.615 187.708 325.549 187.71C324.597 187.745 323.986 188.078 323.557 188.988C323.254 189.632 323.122 190.382 322.961 191.076C322.908 191.308 322.525 191.291 322.543 191.036C322.544 191.017 322.548 190.997 322.549 190.978C321.787 188.074 322.983 183.42 325.928 182.338Z" fill="#263238"/>
<path d="M325.054 191.368C325.077 191.885 324.693 192.324 324.195 192.349C323.697 192.373 323.275 191.973 323.251 191.457C323.227 190.94 323.613 190.501 324.11 190.476C324.608 190.451 325.03 190.851 325.054 191.368Z" fill="white"/>
<path d="M326.521 189.526C326.537 189.892 326.265 190.202 325.913 190.219C325.561 190.236 325.262 189.955 325.245 189.589C325.229 189.223 325.5 188.912 325.852 188.895C326.204 188.877 326.504 189.16 326.521 189.526Z" fill="white"/>
<path d="M340.087 223.86C344.433 244.701 342.781 287.764 333.841 295.486C323.49 304.424 276.92 307.948 266.437 305.168C262.265 304.06 271.093 275.288 275.695 275.146C294.985 274.554 311.157 271.631 312.728 269.201C315.143 265.468 320.896 239.629 324.866 223.432C329.856 203.081 338.137 214.508 340.087 223.86Z" fill="#D3766A"/>
<path d="M203.024 246.625L220.213 223.729L251.451 263.378L233.52 283.719L203.024 246.625Z" fill="#37474F"/>
<path d="M205.792 245.562L220.474 226.314L221.733 227.454L246.648 259.402C246.648 259.402 244.767 263.061 243.843 266.126C242.918 269.192 240.496 278.873 234.824 281.317L205.792 245.562Z" fill="white"/>
<path d="M207.42 247.612C207.42 247.612 211.682 243.573 213.389 240.177C215.095 236.781 216.626 233.142 218.281 231.224C219.935 229.307 221.588 227.322 221.588 227.322L220.475 226.313L205.794 245.561L207.42 247.612Z" fill="#EBEBEB"/>
<path d="M266.232 274.262L231.695 285.51L203.023 246.625L238.203 232.163L266.232 274.262Z" fill="#455A64"/>
<path d="M267.728 305.308C265.629 305.394 249.299 301.141 243.843 298.221C240.362 296.359 234.359 293.131 228.069 286.623C220.811 279.114 216.478 273.21 216.229 269.857C215.941 265.964 216.023 265.277 230.589 276.689C238.831 283.146 243.915 282.136 247.974 280.348C264.61 273.021 279.621 274.972 279.621 274.972C279.621 274.972 275.799 304.976 267.728 305.308Z" fill="#D3766A"/>
<path d="M256.321 269.715C259.367 269.371 262.413 269.17 265.461 269.633C268.295 270.064 270.861 271.314 273.317 272.799C273.422 272.863 273.346 273.045 273.237 272.982C268.065 270.008 262.079 269.934 256.333 269.855C256.247 269.853 256.232 269.724 256.321 269.715Z" fill="#263238"/>
<path d="M245.905 281.13C250.153 279.432 232.982 276.263 230.843 271.357C228.703 266.451 233.994 266.066 238.778 267.344C255.38 271.778 264.868 267.262 274.986 273.9C285.103 280.538 245.905 281.13 245.905 281.13Z" fill="#D3766A"/>
<path d="M311.359 268.371C308.433 270.667 283.035 273.7 283.035 273.7L282.67 311.364C282.67 311.364 326.234 304.366 334.239 297.139C342.244 289.913 344.027 251.042 341.33 230.015C338.795 210.245 328.401 200.991 323.265 224.712C323.265 224.712 312.888 267.172 311.359 268.371Z" fill="#46736C"/>
<path d="M282.706 308.268C283.149 307.935 283.403 307.441 283.38 306.891C283.391 306.029 283.955 305.202 284.717 304.927C285.072 304.778 285.513 304.789 285.834 304.859C286.166 304.927 286.508 304.962 286.841 305.065C286.509 305.168 286.167 305.203 285.834 305.271C285.469 305.317 285.237 305.386 284.983 305.535C284.508 305.834 284.209 306.373 284.221 306.902C284.231 307.74 283.701 308.602 282.96 308.9C282.872 308.946 282.783 308.968 282.694 308.992L282.706 308.268ZM333.535 230.61C333.878 230.575 334.121 230.483 334.365 230.323C334.829 230.001 335.095 229.485 335.095 228.91C335.095 228.049 335.659 227.234 336.421 226.958C336.774 226.798 337.217 226.809 337.538 226.878C337.87 226.947 338.212 226.993 338.543 227.085C338.212 227.188 337.87 227.234 337.538 227.304C337.184 227.35 336.93 227.418 336.687 227.567C336.212 227.866 335.913 228.394 335.924 228.934C335.935 229.761 335.416 230.634 334.664 230.921C334.311 231.094 333.857 231.105 333.537 231.035C333.194 230.967 332.863 230.921 332.531 230.829C332.86 230.725 333.193 230.679 333.535 230.61ZM322.149 293.373C322.491 293.327 322.746 293.246 322.978 293.085C323.443 292.752 323.719 292.247 323.697 291.673C323.707 290.811 324.271 289.984 325.035 289.721C325.4 289.56 325.842 289.571 326.152 289.64C326.494 289.708 326.825 289.754 327.169 289.846C326.827 289.949 326.495 289.984 326.152 290.053C325.797 290.099 325.554 290.167 325.3 290.329C324.836 290.616 324.526 291.156 324.538 291.695C324.549 292.522 324.029 293.384 323.278 293.682C322.913 293.855 322.482 293.866 322.15 293.797C321.819 293.716 321.476 293.682 321.145 293.59C321.475 293.488 321.817 293.442 322.149 293.373ZM314.765 257.829C314.92 257.829 315.052 257.851 315.174 257.875C315.517 257.943 315.848 257.989 316.192 258.093C315.849 258.185 315.518 258.219 315.174 258.288C314.953 258.323 314.765 258.356 314.6 258.426C314.654 258.231 314.709 258.035 314.765 257.829ZM295.22 290.743C295.286 290.387 295.32 290.043 295.419 289.686C295.508 290.041 295.552 290.386 295.618 290.743C295.662 291.098 295.728 291.363 295.883 291.616C296.171 292.109 296.669 292.419 297.188 292.408C298.006 292.408 298.835 292.947 299.122 293.728C299.277 294.096 299.289 294.544 299.222 294.9C299.156 295.244 299.112 295.6 299.023 295.944C298.924 295.6 298.879 295.244 298.812 294.9C298.779 294.544 298.69 294.279 298.536 294.027C298.226 293.544 297.729 293.268 297.187 293.281C296.347 293.269 295.551 292.684 295.285 291.903C295.143 291.524 295.153 291.053 295.22 290.743ZM327.798 270.185C327.876 269.83 327.909 269.485 327.997 269.128C328.097 269.484 328.141 269.829 328.208 270.185C328.252 270.552 328.318 270.806 328.462 271.07C328.749 271.563 329.258 271.873 329.777 271.862C330.584 271.85 331.413 272.39 331.701 273.171C331.867 273.55 331.878 273.998 331.8 274.342C331.734 274.687 331.69 275.043 331.601 275.388C331.502 275.044 331.468 274.688 331.391 274.342C331.357 273.987 331.28 273.722 331.125 273.481C330.804 272.998 330.306 272.711 329.765 272.735C328.925 272.723 328.14 272.138 327.875 271.346C327.721 270.978 327.732 270.507 327.798 270.185ZM333.06 253.418C333.326 253.636 333.558 253.751 333.845 253.82C334.388 253.934 334.939 253.763 335.315 253.361C335.913 252.741 336.863 252.58 337.593 252.936C337.946 253.096 338.256 253.441 338.433 253.717C338.621 254.015 338.831 254.291 339.008 254.601C338.698 254.417 338.433 254.21 338.146 254.015C337.859 253.774 337.637 253.647 337.361 253.579C336.819 253.441 336.255 253.601 335.891 253.98C335.338 254.577 334.377 254.796 333.636 254.463C333.271 254.314 332.962 254.004 332.774 253.717C332.586 253.418 332.365 253.142 332.199 252.821C332.507 253.005 332.773 253.212 333.06 253.418ZM307.944 304.972C308.22 305.19 308.452 305.316 308.729 305.374C309.282 305.488 309.823 305.328 310.211 304.915C310.796 304.305 311.748 304.134 312.477 304.502C312.775 304.64 313.04 304.892 313.206 305.122C312.995 305.179 312.796 305.225 312.597 305.271C312.487 305.214 312.376 305.168 312.255 305.133C311.714 304.995 311.15 305.145 310.773 305.535C310.685 305.627 310.596 305.708 310.497 305.788L310.486 305.799C309.977 305.913 309.48 306.04 308.972 306.154C308.818 306.131 308.674 306.086 308.53 306.028C308.154 305.878 307.856 305.569 307.656 305.269C307.469 304.982 307.259 304.695 307.093 304.385C307.391 304.559 307.667 304.777 307.944 304.972ZM306.13 277.018C306.407 277.248 306.639 277.363 306.916 277.431C307.469 277.546 308.01 277.374 308.397 276.972C308.983 276.352 309.934 276.191 310.663 276.547C311.028 276.708 311.326 277.052 311.503 277.328C311.691 277.627 311.913 277.903 312.078 278.212C311.769 278.028 311.503 277.822 311.227 277.627C310.94 277.385 310.718 277.258 310.442 277.179C309.9 277.052 309.337 277.201 308.96 277.592C308.407 278.189 307.457 278.407 306.716 278.074C306.34 277.925 306.042 277.615 305.842 277.328C305.654 277.03 305.445 276.742 305.278 276.433C305.579 276.617 305.855 276.823 306.13 277.018Z" fill="white"/>
<path d="M304.001 307.273C305.021 307.054 306.053 306.83 307.092 306.59L304.001 307.273Z" fill="#EBEBEB"/>
<path d="M306.49 270C305.559 270.208 304.551 270.422 303.487 270.631L306.49 270Z" fill="#EBEBEB"/>
<path d="M334.347 295.94C340.538 288.541 341.754 262.832 341.956 257.803C342.085 254.583 342.095 251.362 342.081 248.139C342.053 241.689 341.832 235.244 341.503 228.805C341.498 228.695 341.651 228.682 341.666 228.79C342.335 233.588 342.773 238.433 342.996 243.29C343.33 241.31 343.523 239.304 343.632 237.296C343.637 237.201 343.793 237.207 343.794 237.303C343.83 239.645 343.535 241.964 343.037 244.241C343.231 249.131 343.206 254.03 342.955 258.902C342.882 260.307 342.048 291.524 334.294 297.628C331.6 299.75 320.939 303.3 318.538 303.695C318.434 303.713 318.364 303.6 318.469 303.554C321.43 302.233 332.135 298.583 334.347 295.94Z" fill="#263238"/>
<path d="M289.766 303.861C289.718 302.584 289.682 301.309 289.65 300.032C289.584 297.476 289.271 282.268 289.756 277.273C289.769 277.14 289.961 277.156 289.976 277.282C290.556 282.291 290.515 297.449 290.498 299.953C290.488 301.235 290.476 302.516 290.452 303.797C290.429 305.088 290.259 306.369 290.241 307.657C290.239 307.783 290.053 307.806 290.049 307.675C290.005 306.404 289.813 305.137 289.766 303.861Z" fill="#263238"/>
<path d="M283.048 273.756C284.977 273.051 303.701 270.036 307.822 269.343C308.796 269.179 309.906 269.112 310.772 268.575C311.695 268.004 312.01 266.887 312.343 265.896C313.004 263.924 319.28 239.945 319.903 238.635C320.138 238.141 320.402 237.954 320.28 238.679C320.069 239.923 314.073 263.516 313.443 265.437C312.858 267.225 312.364 269.05 310.487 269.742C309.661 270.046 284.49 274.307 283.164 274.289C282.884 274.285 282.745 273.867 283.048 273.756Z" fill="#263238"/>
<path d="M54.0367 331.192H185.951V340.636H54.0367V331.192Z" fill="#455A64"/>
<path d="M63.9309 340.636H176.059V358.819H63.9309V340.636Z" fill="#455A64"/>
<path d="M63.9309 344.227L176.059 345.988V340.636H63.9309V344.227Z" fill="#263238"/>
<path d="M82.8689 344.444H157.121V355.011H82.8689V344.444Z" stroke="#37474F" stroke-miterlimit="10"/>
<path d="M111.169 348.203H128.82V351.253H111.169V348.203Z" fill="#37474F"/>
<path d="M177.048 508.633H181.096L169.313 358.819H158.981L177.048 508.633Z" fill="#455A64"/>
<path d="M158.982 358.822L160.192 368.846H170.098L169.313 358.822H158.982Z" fill="#263238"/>
<path d="M62.9405 508.633H58.8927L70.6744 358.819H81.0078L62.9405 508.633Z" fill="#455A64"/>
<path d="M81.0039 358.822L79.7943 368.846H69.8896L70.6748 358.822H81.0039Z" fill="#263238"/>
<path d="M124.518 292.208H100.161L93.5453 331.192H117.9L124.518 292.208Z" fill="#46736C"/>
<path opacity="0.2" d="M124.518 292.208H100.161L93.5453 331.192H117.9L124.518 292.208Z" fill="black"/>
<path d="M100.288 292.208H124.643L131.26 331.192H106.905L100.288 292.208Z" fill="#46736C"/>
<path opacity="0.1" d="M100.288 292.208H124.643L131.26 331.192H106.905L100.288 292.208Z" fill="black"/>
<path d="M100.86 287.607L107.124 324.516C107.296 325.535 108.226 326.365 109.184 326.365H126.446C127.404 326.365 128.052 325.534 127.878 324.516L121.614 287.607C121.441 286.588 120.511 285.758 119.553 285.758H102.292C101.335 285.757 100.687 286.588 100.86 287.607Z" fill="#263238"/>
<path d="M103.27 285.76H120.527C121.491 285.76 122.413 286.586 122.587 287.607L128.851 324.514C129.024 325.533 128.382 326.362 127.419 326.362H110.161C109.198 326.362 108.274 325.534 108.1 324.514L101.836 287.607C101.662 286.586 102.307 285.76 103.27 285.76ZM108.998 323.373C109.163 324.345 109.997 325.13 110.86 325.13H126.299C127.165 325.13 127.731 324.345 127.567 323.373L121.734 289.006C121.398 287.027 120.681 286.93 119.816 286.93H116.722C116.543 286.93 116.432 287.143 116.476 287.405L116.496 287.518C116.6 288.134 116.276 288.137 115.878 288.137H108.726C108.324 288.137 108 288.134 107.897 287.518L107.877 287.405C107.833 287.143 107.651 286.93 107.469 286.93H104.377C103.513 286.93 102.857 287.193 103.165 289.006L108.998 323.373Z" fill="#37474F"/>
<path d="M103.17 289.036L109.003 323.403C109.168 324.375 110.002 325.16 110.865 325.16H126.303C127.168 325.16 127.735 324.375 127.571 323.403L121.738 289.036C121.402 287.057 120.685 286.96 119.82 286.96H116.727C116.548 286.96 116.437 287.173 116.481 287.435L116.5 287.548C116.605 288.164 116.28 288.167 115.882 288.167H108.731C108.329 288.167 108.006 288.164 107.901 287.548L107.882 287.435C107.838 287.173 107.656 286.96 107.474 286.96H104.382C103.518 286.96 102.862 287.224 103.17 289.036Z" fill="#263238"/>
<g opacity="0.5">
<path d="M104.765 298.421L105.948 305.445L127.379 322.277L126.184 315.242L104.765 298.421Z" fill="#37474F"/>
<path d="M109.678 288.167L123.424 298.959L122.229 291.935L116.483 287.428V287.439L116.493 287.545C116.606 288.165 116.28 288.165 115.885 288.165H109.678V288.167Z" fill="#37474F"/>
<path d="M108.279 319.188L108.876 322.699L112.02 325.158H115.896L108.279 319.188Z" fill="#37474F"/>
<path d="M103.166 289.033L103.537 291.209L124.969 308.043L124.372 304.531L103.11 287.85C103.075 288.143 103.075 288.53 103.166 289.033Z" fill="#37474F"/>
<path d="M104.19 295.074L104.403 296.315L125.824 313.136L125.621 311.895L104.19 295.074Z" fill="#37474F"/>
<path d="M107.784 316.238L107.998 317.479L117.768 325.158H119.143L107.784 316.238Z" fill="#37474F"/>
</g>
<path d="M111.196 287.368H113.147C113.214 287.368 113.258 287.311 113.246 287.242C113.234 287.172 113.171 287.116 113.105 287.116H111.154C111.087 287.116 111.043 287.172 111.055 287.242C111.066 287.311 111.129 287.368 111.196 287.368Z" fill="#263238"/>
<path d="M106.993 331.192H132.477L131.606 326.365H106.121L106.993 331.192Z" fill="#46736C"/>
<path opacity="0.6" d="M159.821 302.626C159.821 302.626 143.662 294.885 143.665 284.517C143.669 274.148 164.63 267.481 164.633 259.378C164.636 251.274 155.496 246.504 155.496 246.504C155.496 246.504 169.931 251.634 169.928 261.883C169.924 272.131 156.106 279.072 154.782 285.593C152.945 294.651 159.821 302.626 159.821 302.626Z" fill="#EBEBEB"/>
<path opacity="0.6" d="M159.023 302.626C159.023 302.626 175.186 296.55 175.189 288.398C175.192 280.245 154.234 274.991 154.236 268.619C154.239 262.247 163.38 258.502 163.38 258.502C163.38 258.502 148.941 262.527 148.939 270.585C148.936 278.643 164.801 284.189 165.934 290.736C167.043 297.158 159.023 302.626 159.023 302.626Z" fill="#EBEBEB"/>
<path d="M151.955 328.696H167.328V331.189H151.955V328.696Z" fill="#46736C"/>
<path opacity="0.1" d="M151.955 328.696H167.328V330.341H151.955V328.696Z" fill="black"/>
<path d="M185.578 322.005C183.759 324.658 180.541 326.558 176.921 325.848C176.407 325.747 175.89 325.596 175.361 325.382C174.645 325.094 173.923 324.707 173.188 324.194L175.142 321.186C175.539 321.473 175.924 321.695 176.295 321.867C179.956 323.593 182.274 320.595 182.73 319.91C184.838 316.835 185.595 309.808 183.461 307.104C183.32 306.904 182.703 306.586 180.228 307.133C179.771 307.239 179.252 307.359 178.666 307.527C178.016 307.719 177.629 307.827 177.261 307.841L177.198 306.034L177.029 304.232C177.187 304.202 177.438 304.128 177.763 304.033C178.697 303.774 179.956 303.418 181.258 303.281C183.079 303.086 184.989 303.312 186.16 304.808C189.628 309.223 188.219 318.149 185.578 322.005Z" fill="#46736C"/>
<path opacity="0.1" d="M175.143 321.187C175.541 321.474 175.925 321.696 176.297 321.868L175.363 325.383C174.647 325.095 173.924 324.708 173.19 324.195L175.143 321.187Z" fill="black"/>
<path opacity="0.1" d="M181.26 303.281L180.228 307.133C179.772 307.24 179.253 307.36 178.667 307.527C178.017 307.719 177.63 307.828 177.262 307.841L177.199 306.035L177.029 304.233C177.188 304.202 177.439 304.128 177.764 304.033C178.698 303.774 179.957 303.419 181.26 303.281Z" fill="black"/>
<path d="M139.203 298.557C139.203 298.557 141.042 314.833 144.226 321.691C147.409 328.536 151.854 329.304 154.617 329.306C157.378 329.307 157.127 329.307 159.637 329.308C162.157 329.309 161.895 329.309 164.667 329.309C167.43 329.31 171.875 328.545 175.063 321.702C178.252 314.847 180.102 298.572 180.102 298.572L139.203 298.557Z" fill="#46736C"/>
<g opacity="0.1">
<path d="M141.384 312.077C141.701 313.575 142.048 315.056 142.431 316.454L176.857 316.466C177.242 315.068 177.59 313.587 177.908 312.089L141.384 312.077Z" fill="black"/>
<path d="M142.904 318.112C143.14 318.888 143.383 319.625 143.642 320.301L175.645 320.313C175.904 319.637 176.148 318.9 176.385 318.125L142.904 318.112Z" fill="black"/>
<path d="M140.593 307.96C140.719 308.675 140.851 309.404 140.999 310.149L178.294 310.163C178.442 309.418 178.576 308.689 178.701 307.975L140.593 307.96Z" fill="black"/>
</g>
<path d="M87.6797 450.97C87.6797 450.97 79.4425 420.254 72.8643 409.822C66.286 399.39 54.0237 387.932 54.0237 387.932C54.0237 387.932 54.3109 435.289 87.6797 450.97Z" fill="#46736C"/>
<path d="M87.0904 450.445C84.2683 445.679 81.8707 440.652 79.5811 435.563C78.5681 430.112 77.3347 424.624 75.4901 419.41C75.4555 419.312 75.3227 419.366 75.3443 419.464C76.4372 424.318 77.7084 429.127 78.864 433.965C75.5387 426.49 72.3786 418.919 68.4171 411.853C67.6169 408.427 66.1016 405.132 64.5993 402.024C64.5561 401.934 64.4125 401.982 64.4535 402.078C65.5109 404.483 66.2712 406.963 67.0229 409.45C65.1502 406.322 63.0981 403.307 60.7643 400.469C60.6195 400.294 60.3312 400.488 60.4737 400.676C65.769 407.698 69.4248 415.684 72.9056 423.773C69.1429 419.594 65.7215 415.022 62.57 410.351C62.5376 410.303 62.4674 410.354 62.4977 410.403C65.7517 415.777 69.4993 420.599 73.5655 425.31C76.1013 431.235 78.594 437.184 81.6158 442.821C75.5765 437.517 70.9303 430.655 66.3317 424.033C66.228 423.884 66.0066 424.041 66.1049 424.196C70.7057 431.461 75.4663 438.304 82.0856 443.684C83.4389 446.148 84.8882 448.554 86.5082 450.861C86.7772 451.242 87.328 450.847 87.0904 450.445Z" fill="#263238"/>
<path d="M90.2328 453.737C90.2328 453.737 75.426 425.414 79.7276 397.954C84.0292 370.495 88.6344 360.716 88.6344 360.716C88.6344 360.716 111.908 403.426 90.2328 453.737Z" fill="#46736C"/>
<path d="M96.3116 409.21C95.13 417.141 93.0575 424.564 90.5962 432.08C90.5552 422.002 90.3694 411.925 90.1102 401.849C91.8155 395.723 92.6709 389.452 92.9042 383.081C92.9107 382.895 92.6439 382.906 92.6288 383.087C92.1903 388.568 91.2636 393.916 90.0357 399.237C89.811 390.923 89.5454 382.611 89.2549 374.303C89.2505 374.162 89.0453 374.166 89.0453 374.306C89.0572 387.291 89.0507 400.278 89.1296 413.265C87.2191 408.263 86.0203 403.116 84.8614 397.838C84.8506 397.788 84.7718 397.8 84.775 397.851C85.22 403.916 86.9944 409.779 89.1447 415.407C89.2019 423.709 89.2883 432.009 89.4665 440.308C86.962 431.483 84.2869 422.936 83.5622 413.611C83.5525 413.487 83.3721 413.489 83.3753 413.614C83.5719 423.899 86.1228 434.338 89.3877 444.008C89.4244 444.116 89.4849 444.191 89.5529 444.252C89.6275 447.286 89.7095 450.318 89.8078 453.352C89.8218 453.787 90.4493 453.774 90.458 453.34C90.5735 447.134 90.6135 440.926 90.6038 434.72C93.9302 426.744 95.7003 417.848 96.4412 409.227C96.4476 409.15 96.3224 409.134 96.3116 409.21Z" fill="#263238"/>
<path d="M95.2969 404.83C94.8282 407.262 94.3886 409.833 94.2633 412.313C94.259 412.398 94.3843 412.409 94.4037 412.331C95.0161 409.928 95.3509 407.339 95.622 404.87C95.6436 404.679 95.3336 404.643 95.2969 404.83Z" fill="#263238"/>
<path d="M86.6385 384.127C86.6245 384.042 86.4992 384.069 86.4981 384.15C86.4776 385.852 86.8081 387.675 87.2401 389.311C87.2768 389.448 87.4669 389.385 87.4409 389.249C87.1191 387.547 86.9193 385.834 86.6385 384.127Z" fill="#263238"/>
<path d="M95.6337 455.905C95.6337 455.905 95.03 426.34 103.194 411.644C111.357 396.948 124.898 389.461 124.898 389.461C124.898 389.461 119.438 441.577 95.6337 455.905Z" fill="#46736C"/>
<path d="M110.512 430.621C107.079 435.755 103.67 440.703 99.4644 445.17C101.094 439.124 102.986 433.184 105.115 427.339C109.692 423.169 114.231 418.85 117.039 413.144C117.085 413.052 116.958 412.975 116.905 413.064C113.887 418.116 109.85 422.158 105.601 426.047C108.861 417.265 112.654 408.698 116.965 400.337C117.075 400.124 116.776 399.942 116.653 400.147C114.038 404.505 111.666 409.014 109.527 413.64C110.291 410.48 110.904 407.248 111.688 404.111C111.709 404.022 111.588 403.992 111.558 404.074C110.111 408.025 108.67 412.393 108.206 416.614C105.35 423.166 102.944 429.934 101.018 436.845C101.228 432.414 101.496 428 101.936 423.581C101.945 423.497 101.809 423.478 101.794 423.561C100.908 428.469 100.445 433.46 100.557 438.452C99.3801 442.858 98.3897 447.316 97.5959 451.808C97.5743 451.929 97.7461 451.982 97.7752 451.86C98.218 449.977 98.6997 448.11 99.1911 446.247C99.2224 446.232 99.2548 446.239 99.284 446.209C103.663 441.652 107.821 436.456 110.556 430.646C110.57 430.617 110.53 430.593 110.512 430.621Z" fill="#263238"/>
<path d="M119.97 406.565C119.059 407.586 118.225 408.659 117.346 409.71C116.57 410.639 115.621 411.515 114.996 412.562C114.972 412.603 115.021 412.654 115.06 412.628C116.113 411.934 116.957 410.812 117.775 409.845C118.637 408.825 119.412 407.819 120.099 406.668C120.149 406.588 120.034 406.493 119.97 406.565Z" fill="#263238"/>
<path d="M71.3803 452.295L72.4096 466.3L75.5113 508.634H102.555L105.656 466.3L106.686 452.295C105.536 452.295 89.0373 452.295 89.0373 452.295C89.0373 452.295 72.5295 452.295 71.3803 452.295Z" fill="#455A64"/>
<path d="M71.3803 452.295L72.4096 466.3H105.656L106.686 452.295C105.536 452.295 89.0373 452.295 89.0373 452.295C89.0373 452.295 72.5295 452.295 71.3803 452.295Z" fill="#37474F"/>
<path d="M109.089 456.16H68.9785V445.423H109.089V456.16Z" fill="#455A64"/>
<path d="M90.3375 203.755C76.008 216.423 74.2757 238.772 86.4689 253.658C91.3969 259.675 97.8456 263.55 104.743 265.196L112.315 281.273L119.65 265.309C124.972 264.126 130.087 261.582 134.505 257.676C148.835 245.009 150.567 222.66 138.374 207.773C126.179 192.888 104.667 191.088 90.3375 203.755Z" fill="#46736C"/>
<path d="M102.474 223.375C102.392 218.414 105.877 214.724 111.863 214.724C117.439 214.724 121.334 217.881 121.334 223.416C121.334 228.951 117.357 231.657 111.904 231.657L111.74 234.814H106.697L106.492 227.844H108.337C112.601 227.844 115.799 227.065 115.758 223.375C115.758 220.997 114.282 219.521 111.863 219.521C109.362 219.521 107.886 220.956 107.886 223.375H102.474ZM112.683 241.251C112.683 243.137 111.207 244.613 109.198 244.613C107.107 244.613 105.631 243.137 105.631 241.251C105.631 239.365 107.107 237.889 109.198 237.889C111.207 237.889 112.683 239.365 112.683 241.251Z" fill="white"/>
</svg>
