<svg width="72" height="70" viewBox="0 0 72 70" fill="none" xmlns="http://www.w3.org/2000/svg">
<path d="M14.4224 53.9272C17.2379 56.3377 17.9303 59.987 16.8001 63.5723C16.5384 64.403 16.1314 65.1426 15.5791 65.7912C14.391 67.1868 13.0161 68.125 11.4543 68.6057C5.2127 70.5291 -0.401073 64.4719 1.05852 58.0089C1.56385 55.7727 2.87157 54.0529 4.98167 52.8493C6.94042 51.7326 9.1233 51.5318 11.5303 52.2469C11.5525 52.2538 11.5762 52.2526 11.5978 52.2435C11.6194 52.2344 11.6375 52.2179 11.6493 52.1967C17.3817 41.447 23.1059 30.7152 28.8218 20.0013C29.3217 19.0612 30.4399 18.9108 31.298 19.3129C32.1245 19.6982 31.9526 20.9944 31.5969 21.6581C25.8289 32.4292 20.0949 43.1355 14.3949 53.777C14.3638 53.8349 14.3729 53.885 14.4224 53.9272ZM4.3038 58.2005C3.33758 60.6715 4.22199 63.6077 6.3636 65.0992C8.78461 66.7844 11.6571 65.6576 13.27 63.336C14.2348 61.9476 14.5218 60.4647 14.1309 58.8872C13.852 57.7618 13.1504 56.6722 12.2717 55.974C10.6897 54.7162 8.98955 54.4602 7.17121 55.2059C5.93237 55.7124 4.81365 56.898 4.3038 58.2005Z" fill="#46736C"/>
<path d="M71.8493 60.4586L71.8586 61.1281C71.6731 64.4932 70.194 66.9735 67.4213 68.5689C67.1532 68.7232 66.7731 68.891 66.2811 69.0725L61.0099 69.1458C60.7912 69.0569 60.5726 68.9674 60.354 68.8774C57.8044 67.837 56.1278 65.4811 55.6059 62.6873C55.5983 62.6477 55.5756 62.6282 55.5378 62.6287C44.2067 62.7863 32.9759 62.9426 21.8453 63.0975C19.7951 63.126 19.7216 59.8821 21.8465 59.8526C33.1715 59.6939 44.3829 59.538 55.4807 59.3846C55.5395 59.3838 55.5734 59.353 55.5826 59.2922C55.9602 56.7619 57.4679 54.6159 59.5484 53.3291C62.0515 51.7793 65.2185 51.8277 67.6635 53.304C70.2066 54.8401 71.6019 57.225 71.8493 60.4586ZM60.6876 56.1943C59.1765 57.1689 58.3865 58.6494 58.3174 60.6359C58.2549 62.4497 58.8568 63.9307 60.1232 65.0789C61.185 66.0412 62.7142 66.514 64.1057 66.3378C67.3262 65.9291 69.4062 62.776 68.5863 59.4249C68.2299 57.9651 67.461 56.8748 66.2793 56.1541C64.6351 55.1529 62.2767 55.17 60.6876 56.1943Z" fill="#46736C"/>
<path d="M33.1918 0.526179L38.4914 0.452441C40.9837 1.35092 43.1132 3.36954 43.8131 6.04636C44.6645 9.29822 43.6565 12.7485 41.4674 15.1534C41.4301 15.1936 41.4252 15.2376 41.4528 15.2853C47.4531 25.7975 53.5247 36.4169 59.6676 47.1436C59.776 47.3334 59.8346 47.5678 59.8435 47.8469C59.8723 48.8471 59.1304 49.7043 58.1218 49.5599C57.2481 49.4356 56.9372 48.8048 56.5203 48.075C50.5977 37.705 44.673 27.3277 38.7463 16.9431C38.737 16.9267 38.7228 16.9141 38.7059 16.9072C38.689 16.9003 38.6704 16.8996 38.653 16.9052C36.3789 17.6447 34.2064 17.4459 32.1356 16.3089C30.5822 15.4575 29.4189 14.2995 28.6457 12.835C28.0701 11.7441 27.7627 10.5026 27.7234 9.11049C27.648 6.48509 28.5118 4.24813 30.3147 2.39959C31.1405 1.55375 32.0996 0.929277 33.1918 0.526179ZM41.1608 9.02233C41.3296 6.74903 39.9005 4.55128 37.9114 3.69913C36.0105 2.8839 34.275 3.16892 32.7049 4.55417C31.973 5.2011 31.4507 5.9643 31.1379 6.84378C30.4585 8.75406 30.741 10.4978 31.9854 12.0749C32.7447 13.0378 33.6793 13.6741 34.7894 13.9838C37.8855 14.8488 40.9216 12.2564 41.1608 9.02233Z" fill="#46736C"/>
</svg>
