<svg width="66" height="73" viewBox="0 0 66 73" fill="none" xmlns="http://www.w3.org/2000/svg">
<g clip-path="url(#clip0_8733_9728)">
<path d="M5.18977 0.75H60.8231C63.6655 0.994385 65.7705 3.31115 66 6.38481V66.6347C65.7177 69.7433 63.6604 72.0252 60.7767 72.25H5.1859C2.91199 71.9958 1.32473 70.7739 0.424102 68.5842C0.198945 68.0359 0.0575781 67.3819 0 66.6222V6.35688C0.23332 3.26228 2.33707 1.04047 5.18977 0.75ZM28.6223 5.51899C30.2285 5.51899 31.515 6.75768 31.8308 8.41251C31.897 8.75884 31.9232 9.21409 31.9095 9.77827C31.8957 10.3108 31.8936 10.8694 31.903 11.4541C31.9146 12.1383 32.3748 12.662 33.0129 12.662C43.4363 12.662 53.6817 12.6639 63.7493 12.6676C63.7633 12.6676 63.7768 12.6614 63.7867 12.6504C63.7966 12.6394 63.8022 12.6245 63.8022 12.6089C63.8056 10.6269 63.8047 8.67039 63.7996 6.73952C63.797 5.87091 63.5486 5.10796 63.0545 4.45068C62.3558 3.52342 61.4109 3.12961 60.3191 3.12961C43.7022 3.13333 25.4581 3.13194 5.5868 3.12542C4.15207 3.12542 2.97258 4.01358 2.42086 5.44498C2.41766 5.45283 2.41636 5.46141 2.41709 5.46996C2.41781 5.47851 2.42053 5.48675 2.42501 5.49395C2.42948 5.50116 2.43557 5.50709 2.44272 5.51121C2.44987 5.51534 2.45786 5.51754 2.46598 5.5176C11.1336 5.51853 19.8524 5.51899 28.6223 5.51899ZM33.0645 15.0542C31.5872 15.0542 30.3432 14.0948 29.865 12.5824C29.7438 12.1998 29.6871 11.7143 29.6948 11.1259C29.7026 10.5291 29.7064 9.90954 29.7064 9.26716C29.7077 8.51864 29.3184 7.90279 28.5759 7.90279C19.6496 7.90279 10.8775 7.90279 2.25973 7.90279C2.21762 7.90279 2.19656 7.9256 2.19656 7.97122V17.3696C2.19656 17.378 2.19813 17.3864 2.20117 17.3941C2.20422 17.4019 2.20868 17.409 2.21431 17.415C2.21993 17.4209 2.22661 17.4257 2.23396 17.4289C2.24131 17.4321 2.24919 17.4338 2.25715 17.4338H63.7429C63.7586 17.4338 63.7737 17.427 63.7848 17.415C63.7959 17.4029 63.8022 17.3866 63.8022 17.3696L63.8034 15.1003C63.8034 15.0873 63.7987 15.0749 63.7902 15.0657C63.7818 15.0565 63.7703 15.0514 63.7583 15.0514C53.5206 15.0523 43.2893 15.0533 33.0645 15.0542ZM2.34996 67.386C2.84625 68.8929 4.06313 69.8704 5.54168 69.8704C23.5052 69.8685 41.696 69.8695 60.1141 69.8732C61.1596 69.8732 61.9833 69.6763 62.7412 68.9054C63.2569 68.3813 63.5843 67.7673 63.7235 67.0635C63.7837 66.7572 63.8133 66.0985 63.8125 65.0874C63.7987 49.998 63.797 34.9397 63.8073 19.9126C63.8073 19.887 63.7979 19.8625 63.7813 19.8444C63.7646 19.8264 63.7419 19.8162 63.7184 19.8162L2.2275 19.8176C2.22276 19.8176 2.21807 19.8186 2.21369 19.8206C2.20931 19.8225 2.20533 19.8254 2.20198 19.8291C2.19863 19.8327 2.19597 19.837 2.19415 19.8417C2.19234 19.8465 2.19141 19.8516 2.19141 19.8567C2.2043 34.8652 2.20258 49.909 2.18625 64.9883C2.18453 66.2488 2.2391 67.0481 2.34996 67.386Z" fill="#46736C"/>
<path d="M49.5 9.08691C50.1051 9.08691 50.5957 8.55547 50.5957 7.8999C50.5957 7.24433 50.1051 6.71289 49.5 6.71289C48.8949 6.71289 48.4043 7.24433 48.4043 7.8999C48.4043 8.55547 48.8949 9.08691 49.5 9.08691Z" fill="#46736C"/>
<path d="M53.9004 9.08691C54.5055 9.08691 54.9961 8.55547 54.9961 7.8999C54.9961 7.24433 54.5055 6.71289 53.9004 6.71289C53.2953 6.71289 52.8047 7.24433 52.8047 7.8999C52.8047 8.55547 53.2953 9.08691 53.9004 9.08691Z" fill="#46736C"/>
<path d="M58.2988 9.08691C58.904 9.08691 59.3945 8.55547 59.3945 7.8999C59.3945 7.24433 58.904 6.71289 58.2988 6.71289C57.6937 6.71289 57.2031 7.24433 57.2031 7.8999C57.2031 8.55547 57.6937 9.08691 58.2988 9.08691Z" fill="#46736C"/>
<path d="M25.3705 10.9138C25.4521 10.8179 25.5359 10.7257 25.6219 10.6373C26.764 9.4712 28.3379 11.3453 26.9161 12.5909C26.8645 12.6356 26.8637 12.6822 26.9135 12.7306C27.0115 12.8265 27.1039 12.928 27.1906 13.035C27.7011 13.669 27.5168 14.6131 26.8091 14.9329C26.2161 15.201 25.7624 14.9063 25.3615 14.4134C25.3245 14.3677 25.2858 14.3663 25.2455 14.4092C25.074 14.5935 24.9116 14.8114 24.6912 14.9245C23.5104 15.5292 22.5294 13.9497 23.464 12.9708C23.5396 12.8917 23.6144 12.8125 23.6883 12.7334C23.6968 12.7242 23.7036 12.7132 23.7081 12.7011C23.7127 12.689 23.7149 12.676 23.7146 12.663C23.7144 12.6499 23.7117 12.637 23.7067 12.6251C23.7018 12.6132 23.6946 12.6026 23.6857 12.5937C23.4859 12.394 23.2783 12.1888 23.1881 11.9039C22.9548 11.1665 23.3712 10.3915 24.0969 10.3105C24.5777 10.256 24.9296 10.5255 25.23 10.911C25.2755 10.9687 25.3224 10.9696 25.3705 10.9138Z" fill="#46736C"/>
<path d="M18.7059 11.4624L6.59129 11.4853C5.99398 11.4864 5.51061 12.0119 5.51165 12.659L5.51172 12.6981C5.51276 13.3451 5.99782 13.8688 6.59513 13.8677L18.7097 13.8448C19.307 13.8436 19.7904 13.3181 19.7893 12.6711L19.7893 12.632C19.7882 11.9849 19.3032 11.4612 18.7059 11.4624Z" fill="#46736C"/>
<path d="M57.2031 41.3458C57.1876 42.0762 57.2637 42.854 57.1129 43.5411C56.6862 45.5045 54.8132 46.4905 53.109 45.7936C52.7885 45.6623 52.3803 45.3621 51.8844 44.8929C50.5292 43.6118 49.2457 42.4179 48.034 41.3109C48.0023 41.282 47.9622 41.2662 47.9206 41.2662C39.6156 41.2709 31.3136 41.2699 23.0146 41.2634C21.6082 41.262 20.4004 40.1881 19.9518 38.7819C19.8358 38.4178 19.7803 37.6838 19.7855 36.5796C19.8035 32.865 19.8065 29.3207 19.7945 25.9468C19.7902 24.6927 20.2117 23.7008 21.0591 22.9709C21.6658 22.4477 22.4315 22.1865 23.3562 22.1874C34.0777 22.1986 45.571 22.1981 57.836 22.186C58.4969 22.1851 58.9992 22.2498 59.3429 22.3802C60.7274 22.9024 61.5949 24.2431 61.5949 25.842C61.5949 29.3165 61.5988 32.9785 61.6065 36.8282C61.6091 37.7061 61.5627 38.3252 61.4673 38.6855C61.2808 39.3903 60.9177 39.981 60.3781 40.4576C59.4512 41.2774 58.4432 41.3249 57.292 41.2564C57.2345 41.2536 57.2048 41.2834 57.2031 41.3458ZM50.6083 38.8866C51.6408 38.888 52.1087 40.3641 51.2347 41.0107C51.184 41.0488 51.1823 41.0893 51.2296 41.1322C52.0073 41.849 52.8044 42.5915 53.6208 43.3595C54.0036 43.7198 54.509 43.7673 54.8364 43.3037C54.9636 43.124 55.0211 42.8596 55.0091 42.5105C54.9962 42.1064 54.9954 41.7238 55.0065 41.3626C55.0083 41.2955 54.9782 41.2597 54.9163 41.255C53.4983 41.1321 53.5847 38.8629 55.129 38.8754C56.1817 38.8829 57.2242 38.8843 58.2563 38.8796C59.0568 38.8754 59.4035 38.2582 59.4022 37.4636C59.3971 33.7797 59.3954 29.8905 59.3971 25.796C59.3984 25.3742 59.2011 24.965 58.8505 24.7458C58.6795 24.6387 58.4226 24.5852 58.0797 24.5852C46.3879 24.5815 34.7377 24.5838 23.1293 24.5922C22.4654 24.5936 22.0014 25.1131 22.0014 25.8071C22.0022 29.7713 22.0022 33.7168 22.0014 37.6437C22.0014 38.3364 22.4654 38.8796 23.1138 38.8796C32.0307 38.8778 41.1955 38.8801 50.6083 38.8866Z" fill="#46736C"/>
<path d="M55.006 28.1572H26.3939C25.7924 28.1572 25.3047 28.6855 25.3047 29.3373V29.3568C25.3047 30.0085 25.7924 30.5368 26.3939 30.5368H55.006C55.6076 30.5368 56.0952 30.0085 56.0952 29.3568V29.3373C56.0952 28.6855 55.6076 28.1572 55.006 28.1572Z" fill="#46736C"/>
<path d="M41.8054 32.9263H26.3907C25.792 32.9263 25.3066 33.4521 25.3066 34.1007V34.1342C25.3066 34.7829 25.792 35.3087 26.3907 35.3087H41.8054C42.4041 35.3087 42.8895 34.7829 42.8895 34.1342V34.1007C42.8895 33.4521 42.4041 32.9263 41.8054 32.9263Z" fill="#46736C"/>
<path d="M49.5374 32.9351L46.1678 32.9287C45.5876 32.9276 45.1164 33.4363 45.1154 34.0649L45.1152 34.1599C45.1142 34.7884 45.5837 35.2989 46.164 35.3L49.5336 35.3063C50.1138 35.3074 50.585 34.7988 50.586 34.1702L50.5861 34.0752C50.5871 33.4467 50.1176 32.9362 49.5374 32.9351Z" fill="#46736C"/>
<path d="M8.69552 62.7065C8.33458 62.7288 7.98095 62.7316 7.63462 62.7148C5.79126 62.6241 4.39907 61.1019 4.40036 59.0882C4.40294 55.4042 4.40165 51.5579 4.39649 47.549C4.39563 46.9234 4.45751 46.4221 4.58212 46.045C5.05391 44.6164 6.28884 43.6528 7.70294 43.6528C19.4927 43.6528 31.2498 43.6528 42.9743 43.6528C44.8395 43.6528 46.2047 45.397 46.2034 47.3228C46.2016 51.4229 46.2029 55.3214 46.2072 59.0183C46.2098 60.6453 45.283 62.1409 43.8122 62.5724C43.4779 62.6702 43.0881 62.719 42.643 62.719C34.0183 62.72 25.8293 62.719 18.076 62.7162C18.0339 62.7162 17.9965 62.7311 17.9639 62.7609C16.5296 64.0894 15.1262 65.3914 13.7538 66.6669C11.9697 68.3259 9.23434 67.2841 8.84892 64.7928C8.75095 64.156 8.81282 63.4676 8.79606 62.807C8.79434 62.7363 8.76083 62.7027 8.69552 62.7065ZM11.0352 60.3422C12.3668 60.3562 12.4841 62.5654 11.079 62.7051C11.018 62.7107 10.9888 62.747 10.9913 62.814C11.0034 63.1892 11.0025 63.5737 10.9888 63.9675C10.981 64.203 11.0107 64.4097 11.0777 64.5875C11.284 65.135 11.9053 65.2425 12.3165 64.8626C13.1183 64.1197 13.9368 63.3605 14.7722 62.585C14.81 62.5496 14.8095 62.5147 14.7709 62.4802C14.2931 62.0483 14.1805 61.5446 14.4331 60.9692C14.6149 60.5573 15.0145 60.3408 15.427 60.3408C24.545 60.3343 33.6479 60.3343 42.7358 60.3408C43.4203 60.3422 43.9978 59.9219 43.9978 59.1161C43.9986 55.4033 43.9974 51.4671 43.9939 47.3074C43.9939 46.5226 43.5105 46.0283 42.8222 46.0283C31.2885 46.0292 19.6066 46.0306 7.77642 46.0324C7.03263 46.0338 6.59563 46.5715 6.59821 47.3605C6.60681 51.2558 6.60638 55.1305 6.59692 58.9848C6.59434 59.7892 7.03391 60.3464 7.8022 60.3394C8.85579 60.3301 9.93345 60.331 11.0352 60.3422Z" fill="#46736C"/>
<path d="M39.6004 49.6089H10.9961C10.3931 49.6089 9.9043 50.1385 9.9043 50.7917V50.8113C9.9043 51.4645 10.3931 51.9941 10.9961 51.9941H39.6004C40.2034 51.9941 40.6923 51.4645 40.6923 50.8113V50.7917C40.6923 50.1385 40.2034 49.6089 39.6004 49.6089Z" fill="#46736C"/>
<path d="M26.4069 54.375H10.9871C10.3891 54.375 9.9043 54.9002 9.9043 55.548V55.5816C9.9043 56.2294 10.3891 56.7546 10.9871 56.7546H26.4069C27.0049 56.7546 27.4897 56.2294 27.4897 55.5816V55.548C27.4897 54.9002 27.0049 54.375 26.4069 54.375Z" fill="#46736C"/>
<path d="M34.1357 54.3824L30.7661 54.376C30.1866 54.3749 29.716 54.883 29.715 55.5108L29.7148 55.6085C29.7138 56.2363 30.1828 56.7461 30.7623 56.7472L34.1319 56.7536C34.7114 56.7547 35.182 56.2467 35.183 55.6189L35.1832 55.5211C35.1842 54.8933 34.7152 54.3835 34.1357 54.3824Z" fill="#46736C"/>
</g>
<defs>
<clipPath id="clip0_8733_9728">
<rect width="66" height="71.5" fill="white" transform="translate(0 0.75)"/>
</clipPath>
</defs>
</svg>
