<svg width="66" height="62" viewBox="0 0 66 62" fill="none" xmlns="http://www.w3.org/2000/svg">
<path d="M7.2123 10.5812C7.23035 8.81891 7.22949 7.21886 7.20973 5.78107C7.19684 4.81555 7.26043 4.1233 7.40051 3.70432C7.83621 2.4074 9.01055 1.33451 10.4427 1.0681C10.8535 0.991412 11.3523 0.954277 11.9393 0.956698C18.8779 0.98011 25.8397 0.979303 32.8247 0.954277C33.9883 0.95024 34.8068 1.01603 35.2803 1.15166C36.9896 1.63967 38.1446 3.16545 38.1511 4.87166C38.1588 6.79301 38.1597 8.67723 38.1537 10.5243C38.1535 10.5411 38.1569 10.5578 38.1636 10.5733C38.1703 10.5889 38.1803 10.6031 38.1929 10.615C38.2054 10.6269 38.2204 10.6364 38.2369 10.6429C38.2534 10.6493 38.2711 10.6527 38.289 10.6527C45.0386 10.6632 51.7786 10.6599 58.5093 10.643C59.7536 10.6398 60.5997 10.6922 61.0474 10.8004C62.9514 11.2606 64.5189 12.7149 64.8643 14.5713C64.9382 14.9725 64.9752 15.452 64.9752 16.0099C64.9675 25.6522 64.9657 35.1774 64.97 44.5856C64.9713 46.741 63.369 48.6676 61.1815 49.2235C60.6633 49.3542 59.8404 49.4184 58.7129 49.416C52.3226 49.4015 46.1686 49.3999 40.251 49.4112C40.2424 49.4112 40.2342 49.4143 40.2282 49.42C40.2221 49.4257 40.2187 49.4334 40.2187 49.4414V53.1614C40.2187 53.1912 40.231 53.2198 40.2529 53.2411C40.2749 53.2623 40.3047 53.2746 40.3361 53.2753C41.2448 53.3007 42.2568 53.2038 43.1088 53.3673C45.0205 53.7342 46.3637 55.2685 46.3972 57.1236C46.4144 58.0577 46.414 59.0276 46.3959 60.0335C46.3843 60.6729 45.9177 61.0313 45.2822 61.0313C36.9394 61.0321 28.7439 61.0321 20.6959 61.0313C19.9959 61.0313 19.5705 60.5663 19.586 59.9427C19.6066 59.1144 19.6062 58.3002 19.5847 57.5002C19.5701 56.9448 19.6333 56.4556 19.7742 56.0326C20.2976 54.4583 21.8251 53.3213 23.5666 53.2886C24.261 53.2757 24.9855 53.274 25.74 53.2837C25.7454 53.2839 25.7507 53.283 25.7557 53.2812C25.7607 53.2794 25.7652 53.2767 25.7691 53.2732C25.7729 53.2697 25.776 53.2655 25.7781 53.2608C25.7802 53.2562 25.7812 53.2512 25.7812 53.2462V49.5214C25.7812 49.4912 25.7685 49.4622 25.7458 49.4409C25.723 49.4195 25.6922 49.4075 25.6601 49.4075C19.598 49.4035 13.3925 49.4051 7.04344 49.4124C6.02422 49.414 5.29676 49.3567 4.86105 49.2404C2.55879 48.6265 1.03125 46.7544 1.03125 44.4887C1.03125 34.9998 1.03168 25.3874 1.03254 15.6514C1.03254 13.9077 1.76516 12.5385 3.23039 11.5439C4.3957 10.752 5.68863 10.603 7.12465 10.6612C7.18309 10.6628 7.2123 10.6361 7.2123 10.5812ZM36.0937 4.8535C36.0937 4.33707 35.8754 3.84179 35.4866 3.47663C35.0979 3.11146 34.5707 2.90631 34.0209 2.90631H11.3541C10.8043 2.90631 10.2771 3.11146 9.88836 3.47663C9.49963 3.84179 9.28125 4.33707 9.28125 4.8535V33.8966C9.28125 34.4131 9.49963 34.9083 9.88836 35.2735C10.2771 35.6387 10.8043 35.8438 11.3541 35.8438H34.0209C34.5707 35.8438 35.0979 35.6387 35.4866 35.2735C35.8754 34.9083 36.0937 34.4131 36.0937 33.8966V4.8535ZM11.3644 37.7789C9.51973 37.7789 7.95867 36.6733 7.39664 35.0397C7.26773 34.666 7.20457 33.9289 7.20715 32.8286C7.2209 26.1684 7.22476 19.4485 7.21875 12.6689C7.21875 12.6196 7.19254 12.5946 7.14012 12.5938C6.73535 12.5857 6.34476 12.591 5.96836 12.6095C4.75535 12.6689 3.68156 13.4512 3.26906 14.5325C3.15047 14.8417 3.0916 15.2357 3.09246 15.7144C3.09418 23.7348 3.09418 31.6947 3.09246 39.5941C3.09246 39.6409 3.11437 39.6764 3.1582 39.7006C3.18141 39.7128 3.20676 39.7188 3.23426 39.7188C23.0772 39.7188 42.9271 39.7188 62.7838 39.7188C62.8163 39.7188 62.8474 39.7067 62.8704 39.6851C62.8933 39.6635 62.9062 39.6343 62.9062 39.6038C62.9071 31.4751 62.9071 23.4507 62.9062 15.5303C62.905 14.2576 62.0709 13.1496 60.787 12.7415C60.4768 12.6439 59.9238 12.595 59.128 12.595C52.1585 12.5934 45.1855 12.593 38.2091 12.5938C38.1961 12.5938 38.1836 12.5988 38.1745 12.6076C38.1653 12.6165 38.1601 12.6285 38.1601 12.641C38.1515 18.8717 38.1528 25.6768 38.164 33.0562C38.1657 34.0105 38.1107 34.6527 37.999 34.9828C37.4305 36.66 35.9494 37.7135 34.0905 37.7825C34.0751 37.7833 26.4997 37.7821 11.3644 37.7789ZM3.27937 45.5434C3.72023 46.6647 4.86105 47.4737 6.16559 47.4737C23.7639 47.4632 41.4889 47.464 59.3407 47.4761C59.8761 47.4761 60.2804 47.4454 60.5537 47.384C62.0013 47.0583 62.9088 45.8449 62.9075 44.4512C62.9067 43.5542 62.9062 42.6541 62.9062 41.7508C62.9062 41.7257 62.8956 41.7017 62.8768 41.684C62.8579 41.6663 62.8324 41.6563 62.8057 41.6563H3.15176C3.14335 41.6563 3.13503 41.6579 3.12728 41.6609C3.11954 41.6639 3.11251 41.6682 3.10663 41.6738C3.10075 41.6793 3.09612 41.6858 3.09303 41.693C3.08993 41.7002 3.08842 41.7079 3.08859 41.7156C3.10234 42.5827 3.10105 43.3948 3.08473 44.1521C3.0727 44.7188 3.13758 45.1826 3.27937 45.5434ZM38.1562 49.5129C38.1562 49.4846 38.1443 49.4575 38.123 49.4375C38.1017 49.4175 38.0729 49.4063 38.0428 49.4063H27.9572C27.9271 49.4063 27.8982 49.4175 27.877 49.4375C27.8557 49.4575 27.8437 49.4846 27.8437 49.5129V53.1747C27.8437 53.203 27.8557 53.2301 27.877 53.2501C27.8982 53.2701 27.9271 53.2813 27.9572 53.2813H38.0428C38.0729 53.2813 38.1017 53.2701 38.123 53.2501C38.1443 53.2301 38.1562 53.203 38.1562 53.1747V49.5129ZM21.7581 59.095H44.2393C44.2708 59.095 44.3009 59.0833 44.3232 59.0624C44.3454 59.0415 44.3579 59.0132 44.3579 58.9836V57.2726C44.3579 57.0014 44.3003 56.7329 44.1885 56.4825C44.0766 56.232 43.9126 56.0044 43.7059 55.8126C43.4992 55.6209 43.2537 55.4688 42.9836 55.3651C42.7136 55.2613 42.4241 55.2079 42.1317 55.2079H23.8657C23.2753 55.2079 22.709 55.4254 22.2915 55.8126C21.874 56.1998 21.6395 56.725 21.6395 57.2726V58.9836C21.6395 59.0132 21.652 59.0415 21.6742 59.0624C21.6965 59.0833 21.7266 59.095 21.7581 59.095Z" fill="#46736C"/>
<path d="M34.0312 29.0516C34.0312 29.1803 34.0043 29.3076 33.9519 29.4265C33.8995 29.5454 33.8226 29.6533 33.7258 29.7443C33.629 29.8353 33.514 29.9074 33.3875 29.9567C33.261 30.0059 33.1253 30.0312 32.9884 30.0312H12.3866C12.11 30.0312 11.8448 29.928 11.6492 29.7443C11.4536 29.5606 11.3438 29.3114 11.3438 29.0516V5.8234C11.3438 5.56358 11.4536 5.3144 11.6492 5.13068C11.8448 4.94696 12.11 4.84375 12.3866 4.84375H32.9884C33.1253 4.84375 33.261 4.86909 33.3875 4.91832C33.514 4.96755 33.629 5.03971 33.7258 5.13068C33.8226 5.22165 33.8995 5.32965 33.9519 5.4485C34.0043 5.56736 34.0312 5.69475 34.0312 5.8234V29.0516ZM31.9688 6.87449C31.9688 6.86225 31.9662 6.85012 31.9612 6.83881C31.9562 6.8275 31.9489 6.81722 31.9397 6.80856C31.9305 6.7999 31.9195 6.79303 31.9075 6.78835C31.8954 6.78366 31.8825 6.78125 31.8695 6.78125H13.5055C13.4925 6.78125 13.4796 6.78366 13.4675 6.78835C13.4555 6.79303 13.4445 6.7999 13.4353 6.80856C13.4261 6.81722 13.4188 6.8275 13.4138 6.83881C13.4088 6.85012 13.4062 6.86225 13.4062 6.87449V28.0005C13.4062 28.0252 13.4167 28.049 13.4353 28.0664C13.4539 28.0839 13.4792 28.0938 13.5055 28.0938H31.8695C31.8958 28.0938 31.9211 28.0839 31.9397 28.0664C31.9583 28.049 31.9688 28.0252 31.9688 28.0005V6.87449Z" fill="#46736C"/>
<path d="M18.0043 12.6981L28.2988 17.5334C28.4714 17.6144 28.6166 17.739 28.7181 17.8932C28.8196 18.0474 28.8734 18.2252 28.8734 18.4065C28.8734 18.5878 28.8196 18.7655 28.7181 18.9197C28.6166 19.0739 28.4714 19.1985 28.2988 19.2795L18.0043 24.1148C17.8459 24.1894 17.6698 24.2246 17.4928 24.2172C17.3157 24.2098 17.1436 24.16 16.9929 24.0725C16.8421 23.985 16.7177 23.8627 16.6314 23.7173C16.5452 23.5719 16.4999 23.4082 16.5 23.2417V13.5712C16.4999 13.4047 16.5452 13.241 16.6314 13.0956C16.7177 12.9502 16.8421 12.8279 16.9929 12.7404C17.1436 12.6529 17.3157 12.6031 17.4928 12.5957C17.6698 12.5883 17.8459 12.6235 18.0043 12.6981ZM18.6218 15.1539C18.6156 15.151 18.6087 15.1497 18.6018 15.15C18.5949 15.1503 18.5882 15.1522 18.5823 15.1556C18.5764 15.159 18.5715 15.1637 18.568 15.1693C18.5646 15.1749 18.5627 15.1813 18.5625 15.1878V21.6251C18.5627 21.6316 18.5646 21.638 18.568 21.6436C18.5715 21.6492 18.5764 21.6539 18.5823 21.6573C18.5882 21.6607 18.5949 21.6626 18.6018 21.6629C18.6087 21.6632 18.6156 21.6619 18.6218 21.659L25.4654 18.4416C25.4725 18.4385 25.4786 18.4335 25.4828 18.4273C25.487 18.4211 25.4892 18.4138 25.4892 18.4065C25.4892 18.3991 25.487 18.3919 25.4828 18.3856C25.4786 18.3794 25.4725 18.3745 25.4654 18.3713L18.6218 15.1539Z" fill="#46736C"/>
<path d="M56.7188 17.4423V34.8702C56.7188 35.6422 56.3923 36.3827 55.8111 36.9286C55.2299 37.4745 54.4417 37.7812 53.6198 37.7812H45.3802C44.5583 37.7812 43.7701 37.4745 43.1889 36.9286C42.6077 36.3827 42.2813 35.6422 42.2813 34.8702V17.4423C42.2813 16.6703 42.6077 15.9298 43.1889 15.3839C43.7701 14.838 44.5583 14.5312 45.3802 14.5312H53.6198C54.4417 14.5312 55.2299 14.838 55.8111 15.3839C56.3923 15.9298 56.7188 16.6703 56.7188 17.4423ZM54.6614 17.4944C54.6614 16.9495 54.2425 16.4736 53.6289 16.4712C51.1152 16.4639 48.363 16.4639 45.3724 16.4712C44.7601 16.4736 44.345 16.9204 44.345 17.5126C44.3442 22.3257 44.3438 27.1016 44.3438 31.8404C44.3438 31.8744 44.358 31.9071 44.3834 31.9312C44.4088 31.9552 44.4432 31.9688 44.4791 31.9688H54.5325C54.5663 31.9688 54.5988 31.9561 54.6227 31.9336C54.6467 31.9112 54.6601 31.8807 54.6601 31.8489C54.6541 27.1698 54.6545 22.385 54.6614 17.4944ZM54.597 33.905H44.403C44.3853 33.905 44.3682 33.9117 44.3556 33.9235C44.3431 33.9353 44.336 33.9513 44.336 33.968V34.8157C44.336 34.9515 44.3657 35.0859 44.4232 35.2114C44.4808 35.3369 44.5653 35.4509 44.6717 35.5469C44.7781 35.6429 44.9044 35.7191 45.0434 35.7711C45.1825 35.8231 45.3315 35.8498 45.482 35.8498H53.518C53.6685 35.8498 53.8175 35.8231 53.9566 35.7711C54.0956 35.7191 54.2219 35.6429 54.3283 35.5469C54.4347 35.4509 54.5192 35.3369 54.5768 35.2114C54.6343 35.0859 54.664 34.9515 54.664 34.8157V33.968C54.664 33.9513 54.6569 33.9353 54.6444 33.9235C54.6318 33.9117 54.6147 33.905 54.597 33.905Z" fill="#46736C"/>
<path d="M51.4916 18.4062H47.5084C47.4692 18.4062 47.4375 18.4361 47.4375 18.4729V20.2771C47.4375 20.3139 47.4692 20.3438 47.5084 20.3438H51.4916C51.5308 20.3438 51.5625 20.3139 51.5625 20.2771V18.4729C51.5625 18.4361 51.5308 18.4062 51.4916 18.4062Z" fill="#46736C"/>
<path d="M25.7013 31.9688H19.6737C19.6295 31.9688 19.5938 32.0024 19.5938 32.0438V33.8312C19.5938 33.8726 19.6295 33.9062 19.6737 33.9062H25.7013C25.7455 33.9062 25.7812 33.8726 25.7812 33.8312V32.0438C25.7812 32.0024 25.7455 31.9688 25.7013 31.9688Z" fill="#46736C"/>
<path d="M38.0776 43.5938H27.9224C27.879 43.5938 27.8438 43.6268 27.8438 43.6676V45.4574C27.8438 45.4982 27.879 45.5312 27.9224 45.5312H38.0776C38.121 45.5312 38.1562 45.4982 38.1562 45.4574V43.6676C38.1562 43.6268 38.121 43.5938 38.0776 43.5938Z" fill="#46736C"/>
</svg>
