<svg width="32" height="36" viewBox="0 0 32 36" fill="none" xmlns="http://www.w3.org/2000/svg">
<path d="M8.45799 0H23.5995C24.2104 0.0684375 24.6848 0.292734 25.0228 0.672891C25.4059 1.1032 25.4806 1.53562 25.4568 2.06086C25.4551 2.09508 25.4743 2.11195 25.5142 2.11148C26.1749 2.1068 26.8328 2.1068 27.488 2.11148C28.7339 2.12039 29.7965 2.49797 30.6759 3.24422C31.5597 3.99469 32.0011 4.94344 32 6.09047C31.9907 14.7103 31.9809 23.1605 31.9705 31.4409C31.9694 32.1122 31.9439 32.5702 31.8942 32.8148C31.5316 34.5966 29.7768 35.8798 27.666 36H4.31351C2.23388 35.8847 0.488144 34.6359 0.0951897 32.8838C0.0306543 32.5964 -0.00106647 32.1504 2.73455e-05 31.5457C0.0213568 22.8766 0.0336621 14.3995 0.0369435 6.11438C0.0369435 4.96172 0.482402 4.005 1.37332 3.24422C2.24126 2.50312 3.30254 2.12602 4.55715 2.11289C5.17079 2.10633 5.83009 2.10562 6.53505 2.11078C6.57388 2.11125 6.5933 2.09484 6.5933 2.06156C6.59248 1.85766 6.57525 1.62352 6.62858 1.42875C6.85062 0.616875 7.46043 0.140625 8.45799 0ZM22.999 2.13258C22.999 2.12642 22.9961 2.12052 22.991 2.11617C22.986 2.11182 22.9791 2.10938 22.9719 2.10938H9.07983C9.07265 2.10938 9.06576 2.11182 9.06068 2.11617C9.05561 2.12052 9.05275 2.12642 9.05275 2.13258V4.19555C9.05275 4.2017 9.05561 4.2076 9.06068 4.21195C9.06576 4.21631 9.07265 4.21875 9.07983 4.21875H22.9719C22.9791 4.21875 22.986 4.21631 22.991 4.21195C22.9961 4.2076 22.999 4.2017 22.999 4.19555V2.13258ZM8.63027 6.32812C7.50637 6.32883 6.59576 5.52445 6.59166 4.56891C6.59111 4.46438 6.59193 4.36172 6.59412 4.26094C6.59423 4.25506 6.59295 4.24923 6.59036 4.24377C6.58777 4.23832 6.58392 4.23335 6.57904 4.22916C6.57415 4.22498 6.56833 4.22165 6.5619 4.21938C6.55548 4.21711 6.54858 4.21594 6.54162 4.21594C5.97502 4.22203 5.39639 4.22156 4.80572 4.21453C4.2003 4.2075 3.70151 4.29891 3.25852 4.6132C2.74989 4.97414 2.4953 5.45039 2.49476 6.04195C2.49257 14.7837 2.48136 23.4338 2.46112 31.9922C2.45948 32.5371 2.61781 32.9808 3.06327 33.3696C3.45322 33.7095 3.93887 33.8796 4.52024 33.8801C11.4676 33.888 18.9898 33.8916 27.0868 33.8906C27.5594 33.8906 27.8963 33.8613 28.0975 33.8027C28.9614 33.551 29.5135 32.8795 29.5143 32.0934C29.5192 23.415 29.5296 14.7115 29.5455 5.98289C29.5471 5.23195 28.9811 4.55062 28.1558 4.31297C27.9135 4.24359 27.6329 4.21078 27.3141 4.21453C26.6961 4.22203 26.0958 4.22227 25.5134 4.21523C25.4735 4.21477 25.4543 4.23141 25.456 4.26516C25.4614 4.37437 25.4622 4.485 25.4584 4.59703C25.4281 5.60953 24.4978 6.33023 23.3263 6.32953C18.3718 6.32625 13.4732 6.32578 8.63027 6.32812Z" fill="#46736C"/>
<path d="M8.37973 12.5373C9.14157 11.8932 10.0317 11.1294 11.05 10.2458C11.266 10.0588 11.4542 9.9425 11.6144 9.89704C12.9541 9.51805 13.845 10.8589 12.8532 11.6963C11.7085 12.661 10.6281 13.5894 9.61192 14.4814C9.25807 14.7922 8.98406 14.9785 8.78991 15.0404C8.12541 15.2513 7.66519 14.9905 7.21071 14.5827C6.83443 14.2452 6.44312 13.9088 6.03677 13.5737C5.52486 13.1518 5.40508 12.552 5.87433 12.0606C6.32307 11.5902 7.16395 11.5677 7.67175 11.9916C7.87903 12.1646 8.09096 12.3463 8.30754 12.5366C8.33105 12.5577 8.35512 12.5579 8.37973 12.5373Z" fill="#46736C"/>
<path d="M25.1891 11.9551H16.4014C15.7385 11.9551 15.2012 12.4156 15.2012 12.9838V13.0316C15.2012 13.5997 15.7385 14.0602 16.4014 14.0602H25.1891C25.852 14.0602 26.3893 13.5997 26.3893 13.0316V12.9838C26.3893 12.4156 25.852 11.9551 25.1891 11.9551Z" fill="#46736C"/>
<path d="M8.30594 20.1037C8.33219 20.1276 8.35872 20.1278 8.38552 20.1044C9.27753 19.3445 10.1849 18.5662 11.1075 17.7693C11.4931 17.4353 11.9672 17.3052 12.4808 17.4648C13.3241 17.7278 13.5546 18.6587 12.9164 19.2051C11.769 20.1862 10.5773 21.2092 9.34124 22.2742C8.9204 22.6377 8.39372 22.8051 7.84736 22.585C7.6625 22.5109 7.45249 22.368 7.21732 22.1561C6.87714 21.85 6.53149 21.5542 6.18038 21.2687C5.90419 21.0442 5.73164 20.8492 5.66273 20.6837C5.20824 19.5995 6.73248 18.7832 7.69149 19.5728C7.89111 19.7373 8.09593 19.9143 8.30594 20.1037Z" fill="#46736C"/>
<path d="M25.1891 18.9863H16.4014C15.7385 18.9863 15.2012 19.4469 15.2012 20.015V20.0628C15.2012 20.6309 15.7385 21.0915 16.4014 21.0915H25.1891C25.852 21.0915 26.3893 20.6309 26.3893 20.0628V20.015C26.3893 19.4469 25.852 18.9863 25.1891 18.9863Z" fill="#46736C"/>
<path d="M8.31207 27.139C8.33395 27.1582 8.35582 27.1584 8.3777 27.1397C9.25549 26.3939 10.1532 25.6244 11.071 24.8313C11.2602 24.6682 11.4377 24.5583 11.6034 24.5016C12.6075 24.1584 13.5755 25.0127 13.1965 25.8621C13.1254 26.021 12.9964 26.179 12.8093 26.336C11.7658 27.2126 10.704 28.1236 9.62384 29.0691C9.26178 29.3864 8.98696 29.5758 8.79937 29.6372C8.21609 29.8277 7.72633 29.6414 7.31615 29.273C6.92948 28.9266 6.52012 28.5752 6.08806 28.219C5.85344 28.0254 5.70523 27.8412 5.64343 27.6663C5.26031 26.587 6.7583 25.8312 7.69516 26.6081C7.90572 26.783 8.11136 26.9599 8.31207 27.139Z" fill="#46736C"/>
<path d="M25.2178 26.0104L16.4022 26.0236C15.7389 26.0246 15.2021 26.4863 15.2033 27.0548L15.2034 27.1026C15.2045 27.6711 15.7432 28.1311 16.4065 28.1302L25.2221 28.117C25.8854 28.116 26.4222 27.6543 26.421 27.0858L26.4209 27.038C26.4198 26.4695 25.8811 26.0094 25.2178 26.0104Z" fill="#46736C"/>
</svg>
