<svg width="90" height="81" viewBox="0 0 90 81" fill="none" xmlns="http://www.w3.org/2000/svg">
<path d="M45.1471 0H45.5742C53.1914 1.5293 60.8074 3.05754 68.4223 4.58473C69.0492 4.71023 69.4641 5.01978 69.6668 5.51338C69.7594 5.74014 69.8057 6.18258 69.8057 6.8407C69.8068 11.4971 69.8063 16.1779 69.8039 20.8828C69.8016 24.8041 69.1195 28.4977 67.7578 31.9634C64.1068 41.2499 56.1316 48.4513 45.7816 51.8416C45.5133 51.9302 45.2473 51.9323 44.9836 51.8479C35.3473 48.7962 27.6973 42.2023 23.7211 33.7621C21.8344 29.7596 20.8922 25.4844 20.8945 20.9366C20.8957 16.122 20.8963 11.2113 20.8963 6.20473C20.8963 5.62781 21.1277 5.18748 21.5906 4.88373C21.8156 4.73607 22.2943 4.58895 23.0268 4.44234C30.4002 2.96789 37.7736 1.48711 45.1471 0ZM44.6391 48.3437C44.9449 48.4587 45.1682 48.5362 45.3088 48.5763C45.3639 48.5921 45.419 48.5905 45.474 48.5715C50.5389 46.7786 54.7975 44.0817 58.2498 40.481C63.5971 34.9028 66.2783 28.3257 66.2936 20.7499C66.3018 16.315 66.2982 11.8826 66.283 7.45295C66.283 7.41709 66.2631 7.39494 66.2232 7.3865C59.3783 6.01646 52.5486 4.64643 45.7342 3.27639C45.4869 3.22682 45.225 3.22945 44.9484 3.2843C38.1106 4.65855 31.2791 6.03018 24.4541 7.39916C24.4436 7.40131 24.4343 7.4067 24.4276 7.41445C24.4209 7.42221 24.4172 7.43187 24.4172 7.44187C24.4066 11.8832 24.4066 16.4537 24.4172 21.1533C24.4383 29.8608 28.6307 37.9593 35.9783 43.5945C38.526 45.5477 41.4129 47.1308 44.6391 48.3437Z" fill="#46736C"/>
<path d="M59.6531 12.0692C55.1624 11.1685 50.5142 10.2367 45.7083 9.27376C45.4623 9.22419 45.2103 9.22577 44.9525 9.27851C39.7587 10.3279 34.647 11.3536 29.6173 12.3556C28.8755 12.5032 28.2691 12.3229 27.798 11.8145C27.1722 11.1374 27.3164 10.049 28.139 9.55062C28.3781 9.40507 28.6552 9.30171 28.9705 9.24054C33.8958 8.26917 39.1617 7.21343 44.7679 6.07331C45.1546 5.99421 45.5396 5.99316 45.9228 6.07015C51.3474 7.15648 56.6642 8.22329 61.8732 9.2706C62.8927 9.47626 63.3058 10.1882 63.3023 11.0567C63.2953 14.3442 63.2964 17.5831 63.3058 20.7735C63.3269 27.4687 60.8519 33.6291 56.0091 38.6821C53.3091 41.5013 50.0261 43.7351 46.1601 45.3836C45.6152 45.6157 45.0761 45.6167 44.5429 45.3868C38.1644 42.6288 33.4283 38.4063 30.3345 32.7195C28.6365 29.5986 27.6667 26.1456 27.4253 22.3603C27.3796 21.6484 27.5835 21.0425 28.2779 20.6755C29.1603 20.2088 30.3732 20.5125 30.774 21.3573C30.8607 21.5429 30.9205 21.8915 30.9533 22.403C31.4964 30.8796 36.8947 38.3056 45.2953 42.1848C45.3147 42.194 45.3363 42.1989 45.3581 42.1989C45.3799 42.1989 45.4012 42.194 45.4201 42.1848C53.9437 38.2186 59.5248 30.5015 59.7445 21.9063C59.7996 19.7083 59.8054 16.4699 59.7621 12.191C59.7609 12.1235 59.7246 12.0829 59.6531 12.0692Z" fill="#46736C"/>
<path d="M29.1609 17.9942C30.1279 17.9942 30.9117 17.2887 30.9117 16.4185C30.9117 15.5482 30.1279 14.8428 29.1609 14.8428C28.194 14.8428 27.4102 15.5482 27.4102 16.4185C27.4102 17.2887 28.194 17.9942 29.1609 17.9942Z" fill="#46736C"/>
<path d="M41.9419 25.9912C45.7892 22.8566 49.5415 19.8017 53.1989 16.8265C55.0007 15.3631 57.3755 17.6997 55.4911 19.2296C51.4646 22.4959 47.3765 25.8282 43.2269 29.2264C42.7863 29.5871 42.4195 29.7986 42.1265 29.8608C41.2581 30.0443 40.6517 29.6979 40.1226 29.1283C38.6355 27.5284 37.2462 26.0455 35.9548 24.6797C35.0724 23.7463 35.5505 22.3873 36.8671 22.0835C37.7407 21.8826 38.312 22.2797 38.9009 22.9125C39.8419 23.9208 40.8081 24.9444 41.7995 25.9833C41.8441 26.0297 41.8915 26.0323 41.9419 25.9912Z" fill="#46736C"/>
<path d="M38.9705 80.9998H38.5346C37.5162 80.7804 37.0071 80.2135 37.0071 79.2991C37.0106 75.6815 37.0047 72.0692 36.9895 68.4622C36.9813 66.2684 36.2489 64.3141 34.7922 62.5992C32.643 60.069 30.4229 57.437 28.1319 54.7033C27.724 54.216 27.3637 53.8975 27.0508 53.7477C25.4248 52.9741 23.7092 54.2255 23.9781 55.8202C24.025 56.0997 24.2237 56.4403 24.574 56.8422C25.5162 57.9232 26.4479 59.018 27.369 60.1265C27.7311 60.56 27.7996 61.1833 27.5518 61.6658C26.9541 62.8333 25.3422 62.9314 24.4826 61.9221C22.303 59.3645 20.1233 56.8084 17.9436 54.254C16.9487 53.0875 16.4512 51.776 16.4512 50.3195C16.4489 45.9647 16.4477 41.2623 16.4477 36.2125C16.4477 33.4091 12.0356 33.2209 11.7438 35.9515C11.1309 41.7143 10.5215 47.4776 9.91565 53.2415C9.80491 54.2856 9.83127 55.0861 10.494 55.8645C15.5272 61.775 20.6383 67.764 25.8274 73.8316C26.0828 74.1311 26.2071 74.4539 26.2 74.7998C26.1789 75.8556 26.1824 76.9867 26.2106 78.1933C26.2422 79.5617 26.309 80.6502 24.6549 80.9998H24.2031C23.1895 80.772 22.6826 80.1518 22.6826 79.1393C22.6826 77.9001 22.6826 76.6634 22.6826 75.4295C22.6826 75.374 22.6629 75.3207 22.6264 75.2776C17.6307 69.4325 12.6701 63.618 7.74475 57.8341C6.52131 56.3976 6.20491 54.8188 6.40178 52.9963C7.06858 46.8253 7.66975 41.1215 8.2053 35.885C8.32249 34.7407 8.69866 33.7777 9.33381 32.9962C12.2201 29.4446 18.4059 30.4412 19.7436 34.6732C19.9123 35.2068 19.9914 36.1919 19.9809 37.6284C19.9504 41.8208 19.9475 46.048 19.9721 50.31C19.978 51.2655 20.3705 52.0876 21.1498 52.7764C21.192 52.8133 21.2289 52.8096 21.2606 52.7653C23.0114 50.3005 26.6324 49.5854 29.2639 51.2544C29.8323 51.6162 30.4692 52.2205 31.1746 53.0675C33.3297 55.6557 35.4426 58.1632 37.5133 60.59C39.5242 62.9472 40.528 65.6283 40.5244 68.6331C40.5209 71.9754 40.5227 75.5434 40.5297 79.3371C40.5315 80.2072 39.9426 80.8258 38.9705 80.9998Z" fill="#46736C"/>
<path d="M65.9922 80.9999H65.5211C64.4717 80.78 63.9971 80.1314 64.0041 79.1837C64.0135 77.5764 64.017 76.1019 64.0147 74.7604C64.0147 74.4419 64.1213 74.1566 64.3346 73.9045C69.3607 67.9993 74.3934 62.1031 79.4324 56.2158C80.0828 55.4548 80.4572 54.7176 80.3535 53.7478C79.7219 47.85 79.1189 42.0983 78.5447 36.4926C78.4814 35.8767 78.3719 35.4284 78.216 35.1479C77.5814 34.0041 75.959 33.6418 74.7883 34.3695C74.1051 34.7956 73.7629 35.4131 73.7617 36.2221C73.757 40.8775 73.7564 45.5424 73.76 50.2167C73.7611 51.7418 73.2801 53.0686 72.3168 54.1971C70.2086 56.6672 68.0272 59.2264 65.7725 61.8747C65.5873 62.0909 65.3869 62.2607 65.1713 62.3841C64.2977 62.8809 63.1217 62.5534 62.6928 61.7276C62.3846 61.1359 62.4613 60.5659 62.923 60.0174C63.8195 58.9543 64.7418 57.8743 65.6898 56.7774C65.9078 56.5264 66.0613 56.2844 66.1504 56.0513C66.5828 54.9344 65.776 53.732 64.4822 53.5501C63.5805 53.4219 62.8492 53.7905 62.3201 54.4249C60.3068 56.8381 58.273 59.2406 56.2188 61.6327C55.3105 62.6895 54.673 63.5496 54.3063 64.213C53.5645 65.5535 53.1936 67.0095 53.1936 68.581C53.1947 72.1142 53.1959 75.6474 53.1971 79.1806C53.1971 80.1889 52.6762 80.7953 51.6344 80.9999H51.1949C50.1848 80.771 49.6797 80.1604 49.6797 79.1679C49.6809 75.5081 49.6855 71.966 49.6938 68.5414C49.6996 65.6189 50.667 63.0127 52.5959 60.723C54.9654 57.9112 57.3174 55.1284 59.6518 52.3746C62.1109 49.4763 66.7902 49.7754 68.9471 52.767C68.9799 52.8123 69.018 52.816 69.0613 52.778C69.8465 52.082 70.2396 51.2472 70.2408 50.2737C70.242 45.7755 70.2426 41.0921 70.2426 36.2237C70.2426 35.0909 70.5596 34.0916 71.1936 33.2257C73.0252 30.7261 76.8432 30.0332 79.5625 31.824C81.0027 32.7722 81.8119 34.0906 81.99 35.7791C82.5971 41.5599 83.2129 47.4129 83.8375 53.3381C84.018 55.053 83.5457 56.5707 82.4207 57.8912C77.5117 63.654 72.5605 69.4574 67.5672 75.3014C67.5496 75.3225 67.5402 75.3462 67.5391 75.3726C67.5109 76.3292 67.5098 77.28 67.5355 78.225C67.5725 79.5745 67.6129 80.6424 65.9922 80.9999Z" fill="#46736C"/>
</svg>
