<svg width="37" height="32" viewBox="0 0 37 32" fill="none" xmlns="http://www.w3.org/2000/svg">
<path d="M19.2814 4.83661L17.7285 4.83203" stroke="#0A4A7B" stroke-width="2"/>
<path d="M25.8188 27.7397L24.4531 28.4042" stroke="#0A4A7B" stroke-width="2"/>
<path d="M12.5551 28.4024L11.1895 27.7388" stroke="#0A4A7B" stroke-width="2"/>
<path d="M30.1224 17.1902C30.1224 14.4582 28.8978 11.8381 26.7181 9.90626C24.5385 7.97444 21.5822 6.88916 18.4997 6.88916C15.4171 6.88916 12.4608 7.97444 10.2812 9.90626C8.10148 11.8381 6.87695 14.4582 6.87695 17.1902C6.87695 19.9222 8.10148 22.5423 10.2812 24.4741C12.4608 26.4059 15.4171 27.4912 18.4997 27.4912C21.5822 27.4912 24.5385 26.4059 26.7181 24.4741C28.8978 22.5423 30.1224 19.9222 30.1224 17.1902Z" stroke="#89CAFB" stroke-width="2"/>
<path d="M19.293 16.9175C19.289 16.914 19.2858 16.9099 19.2837 16.9053C19.2815 16.9007 19.2804 16.8958 19.2804 16.8908V11.7279C19.2804 11.7181 19.276 11.7087 19.2682 11.7017C19.2604 11.6948 19.2498 11.6909 19.2387 11.6909H17.7702C17.7592 11.6909 17.7486 11.6948 17.7407 11.7017C17.7329 11.7087 17.7285 11.7181 17.7285 11.7279V17.4599C17.7285 17.4649 17.7296 17.4698 17.7318 17.4744C17.7339 17.479 17.7371 17.4831 17.7411 17.4866L24.132 23.1567C24.1398 23.1635 24.1502 23.1672 24.1611 23.1672C24.172 23.1672 24.1824 23.1635 24.1902 23.1567L25.2348 22.2309C25.2424 22.224 25.2467 22.2147 25.2467 22.2051C25.2467 22.1955 25.2424 22.1862 25.2348 22.1793L19.293 16.9175Z" stroke="#808080" stroke-width="2"/>
<path d="M19.2811 4.83545L17.7282 4.83201V1.39949C17.7282 1.3931 17.7254 1.38698 17.7203 1.38247C17.7152 1.37795 17.7083 1.37542 17.7011 1.37542H15.4489C15.436 1.37542 15.4237 1.37089 15.4146 1.36283C15.4055 1.35477 15.4004 1.34383 15.4004 1.33243V0.0429818C15.4004 0.0143273 15.4166 0 15.4489 0H21.5595C21.5918 0 21.608 0.0143273 21.608 0.0429818V1.33243C21.608 1.36109 21.5918 1.37542 21.5595 1.37542H19.3325C19.3002 1.37542 19.284 1.39003 19.284 1.41926L19.2811 4.83545Z" fill="black"/>
<path d="M2.10087 12.1975L2.10038 12.1976L2.0999 12.1975L2.09893 12.1966C1.4383 11.6113 0.912918 10.9175 0.552797 10.1549C0.192676 9.39233 0.00486699 8.57586 9.33486e-05 7.75213C-0.0046803 6.9284 0.173676 6.11355 0.524976 5.35412C0.876276 4.59468 1.39364 3.90554 2.04752 3.32604L2.16391 3.22289C2.81776 2.64336 3.59533 2.18483 4.4522 1.87348C5.30908 1.56213 6.22848 1.40406 7.1579 1.40829C8.08732 1.41252 9.00855 1.57897 9.86899 1.89814C10.7294 2.21731 11.5122 2.68294 12.1726 3.26845L12.1736 3.26931L12.1737 3.26974L12.1736 3.27017L2.10087 12.1975Z" fill="#46736C"/>
<path d="M34.2158 2.73092C37.5746 5.02958 37.984 9.42146 34.9568 12.1637C34.9284 12.1895 34.8999 12.1898 34.8714 12.1646L24.8705 3.30086C24.842 3.27564 24.8427 3.25042 24.8724 3.22521C26.1967 2.11513 27.7143 1.51769 29.4253 1.43287C31.2229 1.34347 32.8197 1.77615 34.2158 2.73092Z" fill="#46736C"/>
<path d="M19.2812 4.83547C29.2317 5.35383 35.3811 14.6035 31.0804 22.5801C29.932 24.7097 28.1784 26.4295 25.8195 27.7396L24.4538 28.4041C20.492 29.9635 16.5259 29.9629 12.5557 28.4024L11.19 27.7387C10.7302 27.4757 10.4069 27.282 10.2201 27.1576C7.16962 25.1186 5.12112 22.1468 4.65556 18.7744C4.09397 14.7075 5.72733 10.7747 9.12598 8.02214C11.5081 6.09254 14.3756 5.02917 17.7283 4.83203L19.2812 4.83547ZM30.1231 17.1901C30.1231 14.4581 28.8985 11.838 26.7189 9.90623C24.5392 7.97442 21.5829 6.88914 18.5004 6.88914C15.4178 6.88914 12.4616 7.97442 10.2819 9.90623C8.1022 11.838 6.87767 14.4581 6.87767 17.1901C6.87767 19.9221 8.1022 22.5422 10.2819 24.4741C12.4616 26.4059 15.4178 27.4911 18.5004 27.4911C21.5829 27.4911 24.5392 26.4059 26.7189 24.4741C28.8985 22.5422 30.1231 19.9221 30.1231 17.1901Z" fill="#46736C"/>
<path d="M19.2911 16.9175L25.2329 22.1793C25.2405 22.1862 25.2447 22.1955 25.2447 22.2051C25.2447 22.2147 25.2405 22.224 25.2329 22.2309L24.1883 23.1567C24.1805 23.1635 24.17 23.1672 24.1592 23.1672C24.1483 23.1672 24.1378 23.1635 24.1301 23.1567L17.7392 17.4866C17.7352 17.4831 17.732 17.479 17.7298 17.4744C17.7276 17.4698 17.7265 17.4649 17.7266 17.4599V11.7279C17.7266 11.7181 17.731 11.7087 17.7388 11.7017C17.7466 11.6948 17.7572 11.6909 17.7683 11.6909H19.2367C19.2478 11.6909 19.2584 11.6948 19.2662 11.7017C19.2741 11.7087 19.2785 11.7181 19.2785 11.7279V16.8908C19.2784 16.8958 19.2795 16.9007 19.2817 16.9053C19.2839 16.9099 19.2871 16.914 19.2911 16.9175Z" fill="black"/>
<path d="M11.1896 27.7388L12.5552 28.4024L9.86853 31.9759C9.84784 32.0028 9.82198 32.0074 9.79094 31.9897L8.57755 31.2719C8.56913 31.2668 8.5633 31.259 8.5613 31.2502C8.5593 31.2413 8.56131 31.2321 8.56688 31.2246L11.1896 27.7388Z" fill="black"/>
<path d="M25.8188 27.7397L28.4366 31.2187C28.4398 31.2228 28.442 31.2275 28.4431 31.2324C28.4442 31.2374 28.4441 31.2425 28.443 31.2474C28.4418 31.2524 28.4395 31.2571 28.4363 31.2613C28.433 31.2655 28.4289 31.2692 28.424 31.272L27.2281 31.9803C27.188 32.0044 27.1547 31.9987 27.1282 31.9631L24.4531 28.4042L25.8188 27.7397Z" fill="black"/>
</svg>
